o DeckA
v 7 0 11.75
v 7 0 0
v 7 -1 11.75
v 7 -1 0
v -7 0 0
v -7 0 11.75
v -7 -1 0
v -7 -1 11.75
v -7 0 0
v 7 0 0
v -7 0 11.75
v 7 0 11.75
v -7 -1 11.75
v 7 -1 11.75
v -7 -1 0
v 7 -1 0
v -7 0 11.75
v 7 0 11.75
v -7 -1 11.75
v 7 -1 11.75
v 7 0 0
v -7 0 0
v 7 -1 0
v -7 -1 0
vt 0 1
vt 1 1
vt 0 0
vt 1 0
vt 0 1
vt 1 1
vt 0 0
vt 1 0
vt 0 1
vt 1 1
vt 0 0
vt 1 0
vt 0 1
vt 1 1
vt 0 0
vt 1 0
vt 0 1
vt 1 1
vt 0 0
vt 1 0
vt 0 1
vt 1 1
vt 0 0
vt 1 0
vn 1 0 0
vn 1 0 0
vn 1 0 0
vn 1 0 0
vn -1 0 0
vn -1 0 0
vn -1 0 0
vn -1 0 0
vn 0 1 0
vn 0 1 0
vn 0 1 0
vn 0 1 0
vn 0 -1 0
vn 0 -1 0
vn 0 -1 0
vn 0 -1 0
vn 0 0 1
vn 0 0 1
vn 0 0 1
vn 0 0 1
vn 0 0 -1
vn 0 0 -1
vn 0 0 -1
vn 0 0 -1
f 1/1/1 3/3/3 2/2/2
f 3/3/3 4/4/4 2/2/2
f 5/5/5 7/7/7 6/6/6
f 7/7/7 8/8/8 6/6/6
f 9/9/9 11/11/11 10/10/10
f 11/11/11 12/12/12 10/10/10
f 13/13/13 15/15/15 14/14/14
f 15/15/15 16/16/16 14/14/14
f 17/17/17 19/19/19 18/18/18
f 19/19/19 20/20/20 18/18/18
f 21/21/21 23/23/23 22/22/22
f 23/23/23 24/24/24 22/22/22
o DeckC_GapFiller
v 7 0 18.25
v 7 0 11.75
v 7 -1 18.25
v 7 -1 11.75
v -7 0 11.75
v -7 0 18.25
v -7 -1 11.75
v -7 -1 18.25
v -7 0 11.75
v 7 0 11.75
v -7 0 18.25
v 7 0 18.25
v -7 -1 18.25
v 7 -1 18.25
v -7 -1 11.75
v 7 -1 11.75
v -7 0 18.25
v 7 0 18.25
v -7 -1 18.25
v 7 -1 18.25
v 7 0 11.75
v -7 0 11.75
v 7 -1 11.75
v -7 -1 11.75
vt 0 1
vt 1 1
vt 0 0
vt 1 0
vt 0 1
vt 1 1
vt 0 0
vt 1 0
vt 0 1
vt 1 1
vt 0 0
vt 1 0
vt 0 1
vt 1 1
vt 0 0
vt 1 0
vt 0 1
vt 1 1
vt 0 0
vt 1 0
vt 0 1
vt 1 1
vt 0 0
vt 1 0
vn 1 0 0
vn 1 0 0
vn 1 0 0
vn 1 0 0
vn -1 0 0
vn -1 0 0
vn -1 0 0
vn -1 0 0
vn 0 1 0
vn 0 1 0
vn 0 1 0
vn 0 1 0
vn 0 -1 0
vn 0 -1 0
vn 0 -1 0
vn 0 -1 0
vn 0 0 1
vn 0 0 1
vn 0 0 1
vn 0 0 1
vn 0 0 -1
vn 0 0 -1
vn 0 0 -1
vn 0 0 -1
f 25/25/25 27/27/27 26/26/26
f 27/27/27 28/28/28 26/26/26
f 29/29/29 31/31/31 30/30/30
f 31/31/31 32/32/32 30/30/30
f 33/33/33 35/35/35 34/34/34
f 35/35/35 36/36/36 34/34/34
f 37/37/37 39/39/39 38/38/38
f 39/39/39 40/40/40 38/38/38
f 41/41/41 43/43/43 42/42/42
f 43/43/43 44/44/44 42/42/42
f 45/45/45 47/47/47 46/46/46
f 47/47/47 48/48/48 46/46/46
o DeckB
v 7 0 30
v 7 0 18.25
v 7 -1 30
v 7 -1 18.25
v -7 0 18.25
v -7 0 30
v -7 -1 18.25
v -7 -1 30
v -7 0 18.25
v 7 0 18.25
v -7 0 30
v 7 0 30
v -7 -1 30
v 7 -1 30
v -7 -1 18.25
v 7 -1 18.25
v -7 0 30
v 7 0 30
v -7 -1 30
v 7 -1 30
v 7 0 18.25
v -7 0 18.25
v 7 -1 18.25
v -7 -1 18.25
vt 0 1
vt 1 1
vt 0 0
vt 1 0
vt 0 1
vt 1 1
vt 0 0
vt 1 0
vt 0 1
vt 1 1
vt 0 0
vt 1 0
vt 0 1
vt 1 1
vt 0 0
vt 1 0
vt 0 1
vt 1 1
vt 0 0
vt 1 0
vt 0 1
vt 1 1
vt 0 0
vt 1 0
vn 1 0 0
vn 1 0 0
vn 1 0 0
vn 1 0 0
vn -1 0 0
vn -1 0 0
vn -1 0 0
vn -1 0 0
vn 0 1 0
vn 0 1 0
vn 0 1 0
vn 0 1 0
vn 0 -1 0
vn 0 -1 0
vn 0 -1 0
vn 0 -1 0
vn 0 0 1
vn 0 0 1
vn 0 0 1
vn 0 0 1
vn 0 0 -1
vn 0 0 -1
vn 0 0 -1
vn 0 0 -1
f 49/49/49 51/51/51 50/50/50
f 51/51/51 52/52/52 50/50/50
f 53/53/53 55/55/55 54/54/54
f 55/55/55 56/56/56 54/54/54
f 57/57/57 59/59/59 58/58/58
f 59/59/59 60/60/60 58/58/58
f 61/61/61 63/63/63 62/62/62
f 63/63/63 64/64/64 62/62/62
f 65/65/65 67/67/67 66/66/66
f 67/67/67 68/68/68 66/66/66
f 69/69/69 71/71/71 70/70/70
f 71/71/71 72/72/72 70/70/70
o TurnMarker
v 2.4 0.72 4.5
v 2.4 0.72 4.5
v 2.4 0.72 4.5
v 2.4 0.72 4.5
v 2.4 0.72 4.5
v 2.4 -0.6799999999999999 5.5
v 3.4 -0.6799999999999999 4.5
v 2.4 -0.6799999999999999 3.5
v 1.4 -0.6799999999999999 4.5
v 2.3999999999999995 -0.6799999999999999 5.5
v 2.4 -0.6799999999999999 4.5
v 2.4 -0.6799999999999999 4.5
v 2.4 -0.6799999999999999 4.5
v 2.4 -0.6799999999999999 4.5
v 2.4 -0.6799999999999999 5.5
v 3.4 -0.6799999999999999 4.5
v 2.4 -0.6799999999999999 3.5
v 1.4 -0.6799999999999999 4.5
v 2.3999999999999995 -0.6799999999999999 5.5
vt 0 1
vt 0.25 1
vt 0.5 1
vt 0.75 1
vt 1 1
vt 0 0
vt 0.25 0
vt 0.5 0
vt 0.75 0
vt 1 0
vt 0.5 0.5
vt 0.5 0.5
vt 0.5 0.5
vt 0.5 0.5
vt 1 0.5
vt 0.5 0
vt 0 0.5
vt 0.5 1
vt 1 0.5
vn 0 0.5812381937190965 0.813733471206735
vn 0.813733471206735 0.5812381937190965 4.982680520160485e-17
vn 9.96536104032097e-17 0.5812381937190965 -0.813733471206735
vn -0.813733471206735 0.5812381937190965 -1.4948041861502964e-16
vn -1.993072208064194e-16 0.5812381937190965 0.813733471206735
vn 0 0.5812381937190965 0.813733471206735
vn 0.813733471206735 0.5812381937190965 4.982680520160485e-17
vn 9.96536104032097e-17 0.5812381937190965 -0.813733471206735
vn -0.813733471206735 0.5812381937190965 -1.4948041861502964e-16
vn -1.993072208064194e-16 0.5812381937190965 0.813733471206735
vn 0 -1 0
vn 0 -1 0
vn 0 -1 0
vn 0 -1 0
vn 0 -1 0
vn 0 -1 0
vn 0 -1 0
vn 0 -1 0
vn 0 -1 0
f 78/78/78 79/79/79 74/74/74
f 79/79/79 80/80/80 75/75/75
f 80/80/80 81/81/81 76/76/76
f 81/81/81 82/82/82 77/77/77
f 88/88/88 87/87/87 83/83/83
f 89/89/89 88/88/88 84/84/84
f 90/90/90 89/89/89 85/85/85
f 91/91/91 90/90/90 86/86/86
