# Blender 4.4.0
# www.blender.org
mtllib Meshy_AI_Blue_Crystal_High_Top_0825085233_texture.mtl
o Meshy_AI_Blue_Crystal_High_Top_0825085233_texture
v -0.462891 -0.287109 -0.102051
v 0.020752 0.035889 0.020386
v 0.207031 -0.134766 -0.113770
v -0.060547 0.001915 0.090820
v -0.109863 -0.066895 0.085449
v 0.261719 0.214844 -0.105957
v 0.080566 -0.216797 0.148438
v -0.257812 -0.100098 -0.006317
v -0.285156 -0.189453 0.148438
v 0.213867 0.275391 -0.061279
v 0.494141 -0.310547 0.115234
v 0.004120 0.030518 -0.085938
v -0.216797 -0.292969 -0.207031
v 0.265625 0.175781 0.183594
v 0.067871 -0.078125 -0.147461
v -0.109863 0.008484 0.013062
v -0.474609 -0.157227 -0.013062
v 0.136719 0.273438 0.179688
v 0.343750 -0.186523 -0.088379
v 0.030029 0.104492 0.024292
v -0.009460 -0.316406 0.142578
v 0.425781 0.037354 -0.029785
v 0.222656 -0.134766 0.177734
v -0.073242 -0.000267 -0.070801
v -0.492188 -0.269531 -0.015747
v 0.164062 0.124512 -0.115723
v 0.447266 -0.086914 0.140625
v 0.099121 0.242188 -0.079102
v -0.263672 -0.188477 -0.181641
v 0.257812 0.255859 0.156250
v 0.076660 -0.296875 -0.110352
v -0.390625 -0.187500 0.122070
v -0.453125 -0.226562 0.075195
v 0.179688 0.202148 -0.080566
v 0.376953 -0.300781 0.193359
v -0.093750 -0.045654 0.008667
v -0.108887 -0.234375 -0.215820
v 0.437500 0.129883 0.020386
v 0.122559 0.014709 -0.090820
v 0.082520 0.196289 0.136719
v -0.375000 -0.306641 -0.169922
v 0.229492 -0.003372 0.165039
v 0.433594 -0.094238 -0.046875
v 0.086914 0.253906 0.076172
v -0.111816 -0.073730 0.142578
v 0.349609 0.247070 -0.020264
v 0.077637 -0.208984 0.138672
v -0.228516 -0.086426 -0.120117
v -0.457031 -0.230469 0.106934
v 0.170898 0.170898 -0.075684
v 0.496094 -0.100098 0.061523
v 0.122559 0.243164 -0.110840
v -0.109375 -0.067383 -0.078125
v 0.302734 0.159180 0.209961
v 0.189453 -0.300781 -0.105469
v -0.228516 -0.087402 0.121094
v -0.416016 -0.177734 -0.114746
v 0.208984 0.277344 0.148438
v 0.484375 -0.298828 0.007629
v 0.099121 0.142578 0.177734
v -0.237305 -0.316406 0.186523
v 0.239258 0.084961 -0.130859
v 0.072266 -0.083984 0.178711
v -0.464844 -0.141602 -0.010376
v -0.423828 -0.177734 0.092773
v 0.139648 0.273438 -0.075684
v 0.281250 -0.214844 0.161133
v -0.155273 -0.057373 -0.114746
v -0.020264 -0.316406 -0.157227
v 0.386719 0.032227 0.173828
v 0.096191 -0.097656 -0.118652
v -0.156250 -0.038818 0.085449
v -0.316406 -0.233398 -0.180664
v 0.153320 0.171875 0.154297
v 0.482422 -0.091797 0.007690
v 0.131836 0.275391 0.153320
v -0.153320 -0.069336 -0.000053
v 0.253906 0.176758 -0.125977
v 0.052979 -0.302734 0.133789
v -0.482422 -0.165039 -0.040771
v -0.470703 -0.287109 0.080566
v 0.115234 0.062012 -0.095703
v 0.349609 -0.044922 0.187500
v 0.088379 0.250000 -0.004730
v 0.104004 0.045410 -0.109375
v 0.414062 0.243164 0.091309
v 0.192383 -0.201172 -0.108887
v 0.017334 0.056885 0.116699
v -0.445312 -0.229492 -0.098145
v 0.170898 0.201172 0.163086
v 0.406250 -0.316406 -0.075684
v 0.033936 0.017944 0.085938
v -0.289062 -0.236328 0.187500
v 0.392578 0.251953 0.025269
v 0.087891 -0.097168 0.145508
v -0.151367 -0.036133 -0.076660
v -0.500000 -0.273438 -0.008423
v 0.144531 0.119629 0.186523
v 0.351562 -0.039307 -0.092773
v 0.080078 0.253906 0.082031
v -0.118164 -0.230469 0.181641
v 0.355469 0.239258 -0.053467
v 0.174805 -0.316406 0.148438
v -0.281250 -0.190430 -0.188477
v -0.250000 -0.125977 0.083008
v 0.195312 0.275391 -0.096680
v 0.445312 -0.302734 0.171875
v 0.063477 0.100098 0.006439
v -0.190430 -0.318359 -0.206055
v 0.330078 0.027832 0.173828
v 0.025879 0.014465 -0.029785
v -0.155273 -0.059570 0.125000
v -0.371094 -0.235352 -0.180664
v 0.115234 0.316406 0.052490
v 0.419922 -0.300781 -0.053467
v 0.029663 0.020630 0.142578
v -0.063965 -0.160156 0.157227
v 0.380859 0.141602 -0.052246
v 0.265625 -0.064941 0.214844
v 0.106934 0.316406 -0.004333
v -0.380859 -0.306641 0.149414
v 0.085938 0.078125 0.005951
v 0.439453 -0.116699 0.126953
v 0.083984 0.160156 -0.083984
v -0.188477 -0.117676 -0.139648
v 0.207031 0.279297 0.161133
v -0.100586 -0.229492 -0.193359
v -0.470703 -0.165039 0.049561
v -0.500000 -0.225586 -0.053711
v 0.099121 0.156250 0.151367
v 0.271484 -0.296875 -0.079102
v -0.051270 0.038574 0.019897
v -0.123535 -0.234375 0.202148
v 0.410156 0.248047 0.021484
v 0.149414 0.028442 0.149414
v 0.093750 0.217773 -0.077148
v -0.417969 -0.287109 0.099609
v 0.157227 0.063965 -0.070801
v 0.300781 -0.184570 0.192383
v 0.059570 0.116211 0.028687
v -0.152344 -0.166016 -0.195312
v 0.398438 0.251953 0.069824
v 0.116211 -0.219727 -0.105469
v -0.416016 -0.154297 0.087402
v -0.451172 -0.231445 -0.127930
v 0.120605 0.061523 0.158203
v 0.482422 -0.116211 0.049561
v 0.119141 0.238281 0.182617
v 0.039062 -0.124023 0.155273
v 0.335938 0.164062 -0.100098
v 0.343750 -0.318359 0.190430
v -0.222656 -0.067871 -0.073730
v -0.273438 -0.125000 0.112793
v 0.137695 0.273438 -0.096191
v 0.500000 -0.104492 0.068359
v 0.105469 0.139648 -0.090332
v -0.416016 -0.287109 -0.116699
v 0.214844 0.074707 0.215820
v 0.021240 -0.163086 -0.153320
v -0.219727 -0.065918 0.075195
v -0.373047 -0.237305 0.158203
v 0.072754 0.099121 0.043701
v 0.351562 -0.119141 0.167969
v 0.088867 0.198242 -0.065430
v -0.050781 0.001083 -0.022217
v 0.298828 0.233398 0.185547
v 0.158203 -0.216797 -0.122070
v -0.169922 -0.042236 0.000683
v -0.271484 -0.235352 -0.211914
v 0.181641 0.200195 0.153320
v 0.500000 -0.310547 0.004211
v 0.111328 0.048828 0.171875
v -0.223633 -0.294922 0.184570
v 0.339844 0.040771 -0.071777
v 0.112793 -0.122559 0.193359
v 0.019897 0.079590 0.023682
v -0.480469 -0.224609 0.022095
v 0.175781 0.240234 -0.124512
v 0.384766 -0.298828 0.173828
v 0.014954 0.055420 -0.072754
v -0.101562 -0.304688 -0.195312
v 0.458984 0.050049 0.094238
v 0.216797 -0.073242 -0.109375
v 0.080566 0.163086 0.154297
v -0.482422 -0.223633 -0.040527
v 0.188477 0.213867 0.208008
v 0.357422 0.027344 -0.089844
v 0.101074 0.318359 0.073730
v -0.147461 -0.166992 0.185547
v 0.265625 0.251953 -0.061035
v 0.056641 -0.294922 0.118652
v -0.437500 -0.170898 -0.104980
v -0.500000 -0.224609 0.033203
v 0.149414 0.124023 -0.125977
v 0.304688 -0.044678 0.189453
v 0.079590 0.253906 -0.008728
v -0.160156 -0.172852 -0.185547
v 0.353516 0.248047 0.114746
v 0.168945 -0.316406 -0.099121
v -0.298828 -0.192383 0.158203
v -0.247070 -0.122559 -0.081055
v 0.173828 0.238281 0.197266
v 0.441406 -0.304688 -0.064453
v 0.049072 0.105957 0.033691
v -0.211914 -0.296875 0.193359
v 0.322266 -0.007355 -0.074219
v 0.075195 -0.220703 0.121582
v -0.267578 -0.125977 -0.123535
v -0.322266 -0.234375 0.155273
v 0.189453 0.200195 -0.070801
v 0.478516 -0.296875 0.110840
v -0.112305 -0.071289 -0.123535
v -0.004303 -0.156250 -0.149414
v 0.378906 0.127930 0.147461
v 0.134766 -0.116211 -0.151367
v 0.029907 0.125000 0.028076
v -0.267578 -0.298828 -0.206055
v 0.089355 0.075195 0.074219
v 0.419922 -0.117188 -0.044189
v 0.090332 0.235352 0.149414
v -0.188477 -0.119629 0.137695
v 0.212891 0.279297 -0.074219
v -0.143830 -0.047052 0.054902
v 0.109717 0.166461 -0.094487
v 0.161602 0.295075 -0.021771
v 0.316265 0.141179 0.166513
vn -0.2199 -0.9755 -0.0040
vn -0.3817 -0.9242 -0.0163
vn -0.9017 -0.2972 -0.3140
vn -0.2060 -0.9785 -0.0088
vn -0.8357 -0.0769 -0.5437
vn -0.6264 -0.2163 -0.7489
vn -0.0171 0.9784 0.2062
vn -0.9993 -0.0172 -0.0317
vn -0.7556 0.3882 -0.5276
vn 0.0378 0.9766 -0.2116
vn -0.3921 0.0616 -0.9179
vn 0.0351 0.9785 0.2030
vn 0.2236 -0.1204 -0.9672
vn 0.2206 -0.1198 -0.9680
vn 0.2242 -0.1206 -0.9670
vn 0.2197 -0.1197 -0.9682
vn 0.2532 -0.5810 -0.7735
vn 0.3588 -0.3532 -0.8640
vn -0.3863 0.8657 0.3182
vn 0.1000 0.5148 0.8514
vn -0.3241 0.6739 0.6639
vn -0.6145 0.7307 0.2973
vn -0.5188 0.3728 0.7694
vn -0.9927 0.0841 -0.0864
vn -0.5039 0.0430 0.8627
vn 0.1264 0.9920 0.0036
vn 0.5167 -0.8562 0.0041
vn 0.2914 -0.4892 -0.8220
vn 0.3886 -0.9213 -0.0123
vn 0.5081 -0.8612 -0.0095
vn 0.2330 -0.5185 -0.8227
vn 0.3719 -0.9283 0.0039
vn -0.0479 0.0647 -0.9968
vn 0.4637 0.1096 -0.8792
vn 0.3281 0.4841 -0.8112
vn 0.4148 0.0075 -0.9099
vn -0.0131 0.1374 -0.9904
vn 0.1539 -0.1234 -0.9804
vn -0.1791 -0.1092 0.9777
vn 0.0912 0.7908 0.6053
vn -0.1791 -0.1092 0.9778
vn 0.2664 -0.2444 0.9323
vn -0.2354 0.7233 0.6492
vn -0.1958 0.9552 0.2218
vn -0.2587 0.9311 -0.2573
vn -0.1428 0.9689 -0.2020
vn -0.2274 0.9587 0.1706
vn -0.1169 0.9751 0.1885
vn -0.1890 0.9621 -0.1967
vn -0.2869 0.9211 0.2631
vn 0.1890 -0.7536 -0.6295
vn 0.1247 -0.7448 -0.6555
vn 0.0755 -0.2835 -0.9560
vn 0.3627 -0.1056 -0.9259
vn 0.4395 -0.2519 0.8622
vn 0.4100 -0.6849 0.6024
vn 0.9449 -0.2868 -0.1578
vn 0.7604 0.0863 0.6437
vn 0.0587 -0.9983 0.0037
vn 0.0592 -0.9982 0.0035
vn 0.0597 -0.9982 0.0032
vn 0.1983 -0.9332 0.2997
vn 0.0546 -0.9985 0.0055
vn 0.8154 0.1063 0.5691
vn 0.9985 -0.0164 0.0527
vn -0.3860 0.2726 -0.8813
vn -0.3438 0.9295 0.1331
vn -0.1977 -0.1880 -0.9621
vn -0.7280 0.5402 -0.4221
vn 0.0163 0.3299 -0.9439
vn -0.7622 0.4791 -0.4354
vn -0.2677 0.5392 -0.7985
vn 0.1870 0.5649 -0.8037
vn -0.3915 0.6776 -0.6226
vn 0.3991 -0.0435 0.9159
vn -0.3102 0.0992 0.9455
vn 0.4125 -0.0163 0.9108
vn -0.2840 -0.0375 0.9581
vn 0.0319 0.9995 0.0055
vn 0.0386 0.9993 0.0012
vn 0.0360 0.9993 0.0029
vn 0.0116 0.9999 0.0052
vn 0.0680 -0.2067 0.9760
vn 0.3950 0.9184 0.0223
vn -0.0081 -0.0346 -0.9994
vn 0.2227 0.5090 -0.8315
vn -0.0389 -0.0114 0.9992
vn 0.5257 0.8209 -0.2230
vn -0.3348 -0.0839 -0.9385
vn 0.2070 0.4525 -0.8674
vn -0.0145 0.0767 -0.9969
vn -0.3865 0.8846 -0.2611
vn -0.7707 -0.1798 -0.6113
vn -0.8093 -0.2827 0.5149
vn 0.0847 0.9942 -0.0668
vn 0.8445 -0.1445 0.5157
vn 0.2356 -0.9174 0.3208
vn 0.8843 -0.1277 -0.4491
vn 0.2566 -0.9184 -0.3011
vn 0.1453 -0.9892 -0.0180
vn 0.1520 0.9874 0.0450
vn -0.6917 0.6994 0.1799
vn 0.2066 0.8945 0.3965
vn -0.5664 0.0354 0.8234
vn 0.3393 0.0908 -0.9363
vn 0.1962 -0.1194 -0.9733
vn 0.1377 -0.0368 -0.9898
vn 0.1337 -0.0325 -0.9905
vn 0.4615 -0.0509 -0.8857
vn 0.0560 0.5694 -0.8201
vn 0.2900 0.0461 -0.9559
vn -0.7207 0.3084 -0.6209
vn -0.6463 -0.4981 -0.5781
vn -0.4468 0.1602 0.8802
vn -0.4261 -0.1666 0.8892
vn -0.9069 0.0712 -0.4153
vn 0.0068 -1.0000 -0.0009
vn 0.0010 -1.0000 0.0051
vn 0.0018 -1.0000 0.0048
vn 0.0011 -1.0000 -0.0000
vn -0.0082 -1.0000 0.0002
vn 0.2009 -0.3227 0.9249
vn -0.0250 0.6188 0.7852
vn -0.0005 -1.0000 0.0001
vn 0.1631 -0.5081 0.8457
vn 0.8113 0.1959 -0.5509
vn 0.5530 0.1395 -0.8214
vn 0.7360 0.1300 -0.6644
vn 0.6619 -0.0253 -0.7492
vn 0.7867 0.2143 -0.5789
vn 0.7590 0.1931 -0.6219
vn 0.6555 0.0465 -0.7538
vn -0.2263 -0.0692 0.9716
vn 0.3732 -0.6040 0.7042
vn 0.0672 -0.5002 0.8633
vn -0.1334 0.0812 0.9877
vn -0.1319 -0.2474 0.9599
vn -0.0810 -0.9776 0.1943
vn -0.2511 0.6623 -0.7059
vn 0.8417 0.0114 -0.5398
vn 0.2274 0.9738 0.0021
vn 0.7973 -0.0108 0.6035
vn 0.3795 -0.0775 0.9219
vn -0.4478 -0.8888 0.0976
vn -0.1099 0.0863 0.9902
vn -0.1407 -0.9588 0.2468
vn -0.1379 0.2176 0.9662
vn 0.5099 0.0137 0.8601
vn -0.3226 -0.8043 0.4991
vn 0.8540 0.0998 0.5105
vn 0.4717 0.1222 0.8733
vn 0.5509 0.8090 0.2052
vn -0.7938 0.1810 -0.5806
vn 0.0772 0.9932 0.0875
vn 0.1487 -0.8658 0.4777
vn 0.0503 -0.0393 -0.9980
vn 0.0225 -0.0048 -0.9997
vn -0.0074 -0.0331 -0.9994
vn 0.2322 0.9012 0.3658
vn -0.4034 -0.1292 -0.9059
vn -0.1583 0.0187 0.9872
vn -0.0015 1.0000 -0.0086
vn -0.0020 1.0000 -0.0087
vn 0.0007 1.0000 -0.0084
vn 0.0013 1.0000 -0.0084
vn -0.5218 -0.1686 0.8362
vn -0.6454 0.1293 0.7528
vn -0.5799 0.3329 0.7436
vn -0.2625 0.6039 0.7526
vn -0.2587 0.5978 0.7587
vn -0.2579 0.5964 0.7601
vn -0.2634 0.6054 0.7511
vn -0.3567 0.1346 0.9245
vn 0.0058 0.9924 0.1229
vn -0.8882 -0.0642 0.4550
vn -0.0468 0.9839 0.1725
vn 0.0162 0.9995 0.0284
vn -0.0613 0.9915 0.1145
vn -0.5891 -0.0180 -0.8079
vn -0.4676 0.2650 -0.8433
vn -0.4637 0.2682 -0.8444
vn -0.4630 0.2687 -0.8446
vn -0.6245 0.0464 -0.7797
vn -0.4684 0.2642 -0.8431
vn 0.6815 -0.1612 -0.7138
vn 0.6653 -0.2279 -0.7109
vn -0.1790 0.1769 0.9678
vn 0.0264 0.0257 0.9993
vn 0.3008 0.0539 0.9522
vn 0.2317 -0.5691 0.7889
vn 0.0355 0.9956 0.0871
vn 0.3251 0.0835 -0.9420
vn -0.0372 0.9793 -0.1991
vn 0.3357 -0.2313 -0.9131
vn -0.0109 0.9779 -0.2086
vn 0.0524 -0.2746 -0.9601
vn -0.0234 -0.0933 -0.9954
vn 0.9556 0.2057 -0.2110
vn 0.9735 0.2256 -0.0387
vn 0.9734 0.2257 -0.0388
vn 0.9734 0.2258 -0.0390
vn 0.7831 0.1867 -0.5932
vn 0.7882 0.1976 -0.5828
vn 0.9734 0.2256 -0.0387
vn 0.9697 0.2437 -0.0186
vn -0.3956 0.0335 0.9178
vn 0.8531 -0.3050 0.4233
vn 0.5104 -0.0097 -0.8599
vn 0.5068 -0.3174 0.8015
vn 0.3827 -0.6997 0.6033
vn 0.5215 -0.6097 0.5969
vn 0.2085 -0.0962 -0.9733
vn 0.2549 0.0438 -0.9660
vn -0.7057 -0.0874 0.7031
vn -0.2463 0.3438 -0.9062
vn -0.0668 -0.9978 -0.0016
vn -0.0644 -0.9979 -0.0025
vn -0.0675 -0.9977 -0.0012
vn -0.0639 -0.9980 -0.0027
vn -0.3081 -0.1252 -0.9431
vn -0.5507 -0.0948 -0.8293
vn -0.1789 -0.7066 -0.6846
vn 0.1074 0.0446 -0.9932
vn 0.1709 -0.0531 -0.9839
vn 0.2021 0.0278 -0.9790
vn 0.0540 0.0316 -0.9980
vn 0.7408 0.0832 -0.6666
vn 0.5282 -0.2388 -0.8148
vn 0.9153 -0.4011 0.0359
vn 0.5107 -0.4972 -0.7014
vn 0.6372 0.0171 -0.7705
vn 0.9998 0.0135 0.0175
vn 0.1012 0.8820 0.4603
vn -0.1946 0.4708 0.8605
vn 0.0563 0.3999 0.9148
vn 0.1580 0.9549 -0.2515
vn 0.1536 0.9676 -0.2005
vn 0.1264 0.9704 -0.2060
vn -0.4347 -0.1418 0.8893
vn -0.4390 -0.1410 0.8874
vn -0.4376 -0.1412 0.8880
vn -0.4335 -0.1421 0.8899
vn -0.7055 -0.1812 0.6852
vn -0.0709 0.9831 0.1687
vn 0.1834 -0.1077 0.9771
vn 0.2103 0.0370 0.9769
vn -0.1733 0.5836 -0.7933
vn -0.4466 -0.8099 0.3804
vn -0.4191 -0.8024 0.4248
vn -0.3300 0.8901 -0.3144
vn -0.6230 -0.2015 0.7558
vn -0.5233 -0.0489 0.8507
vn -0.8646 -0.0249 0.5019
vn 0.1377 0.0420 0.9896
vn -0.1466 -0.1164 0.9823
vn 0.0532 -0.2068 0.9769
vn -0.1217 -0.0371 0.9919
vn -0.0930 -0.0708 0.9931
vn 0.8317 0.5403 -0.1279
vn -0.2447 0.0677 -0.9672
vn -0.5466 -0.0168 -0.8372
vn 0.0711 -0.5918 0.8029
vn -0.0936 -0.6880 0.7197
vn 0.2869 -0.7479 0.5986
vn 0.0785 -0.5657 0.8209
vn 0.6853 0.2597 0.6804
vn 0.2015 -0.1425 0.9691
vn 0.6691 0.1985 0.7162
vn 0.0107 0.0581 0.9983
vn 0.2264 0.5029 0.8342
vn 0.0867 -0.4706 -0.8781
vn 0.2950 -0.0784 -0.9523
vn 0.2394 -0.6183 -0.7486
vn -0.3497 0.8724 0.3414
vn -0.4402 -0.7779 -0.4484
vn -0.2229 0.4663 0.8561
vn -0.4852 -0.7928 -0.3688
vn 0.1639 -0.8287 0.5352
vn 0.4433 0.8937 -0.0693
vn 0.9288 -0.3171 0.1917
vn -0.0117 0.9997 -0.0196
vn -0.8238 -0.1352 0.5506
vn -0.9984 0.0023 -0.0567
vn -0.6869 -0.0367 0.7258
vn -0.3170 -0.8138 -0.4870
vn -0.3383 -0.8354 -0.4332
vn -0.7261 0.1173 0.6775
vn -0.3046 0.0151 0.9524
vn -0.8570 -0.2843 0.4297
vn 0.8921 -0.4011 -0.2080
vn -0.7032 -0.5914 0.3947
vn -0.2510 -0.0124 0.9679
vn 0.3271 -0.0019 -0.9450
vn -0.4795 -0.8603 0.1729
vn -0.0291 0.0577 -0.9979
vn -0.6011 0.0310 0.7986
vn -0.1694 0.8807 0.4423
vn -0.4522 -0.1406 0.8808
vn -0.1966 0.1608 0.9672
vn -0.0932 0.2909 0.9522
vn -0.8590 0.4997 0.1114
vn -0.3818 0.8728 0.3040
vn -0.4347 0.8171 -0.3787
vn -0.2750 0.8931 -0.3560
vn 0.3991 -0.0359 -0.9162
vn -0.0338 0.9994 0.0032
vn -0.8212 0.5652 0.0782
vn 0.1120 0.9173 0.3822
vn 0.1124 -0.0116 -0.9936
vn 0.1662 0.0561 -0.9845
vn 0.1887 -0.0084 -0.9820
vn 0.1812 0.1690 -0.9688
vn 0.1751 0.8521 -0.4932
vn -0.2444 0.9570 -0.1565
vn -0.8676 0.4668 -0.1713
vn 0.0288 0.5959 -0.8025
vn 0.1918 -0.7451 -0.6388
vn 0.2004 -0.7307 -0.6527
vn -0.0168 0.2162 0.9762
vn 0.3047 0.0222 0.9522
vn 0.0466 -0.6005 0.7982
vn -0.6346 0.5712 -0.5205
vn -0.2189 0.0692 0.9733
vn -0.3188 0.0499 0.9465
vn -0.5130 0.2717 -0.8143
vn -0.0558 -0.1343 -0.9894
vn -0.0355 0.9938 -0.1049
vn -0.0355 0.9933 -0.1103
vn -0.0355 0.9941 -0.1025
vn -0.0237 0.9951 -0.0962
vn -0.0355 0.9930 -0.1131
vn -0.2495 0.0397 -0.9675
vn 0.9617 0.0814 -0.2616
vn 0.7617 0.0715 -0.6439
vn -0.4320 -0.8131 0.3903
vn -0.6934 -0.4087 -0.5934
vn -0.6639 -0.4235 0.6164
vn -0.5003 -0.7644 -0.4068
vn 0.2973 -0.0249 -0.9545
vn 0.3315 0.4274 -0.8411
vn -0.0072 0.0142 -0.9999
vn -0.1604 -0.7766 0.6093
vn 0.1928 -0.3987 0.8966
vn -0.9864 0.1027 0.1280
vn -0.9995 0.0001 0.0312
vn -0.8195 -0.0024 -0.5731
vn -0.9340 -0.2318 0.2719
vn -0.2026 0.7005 -0.6842
vn 0.1274 0.9488 -0.2892
vn -0.6438 -0.1775 0.7443
vn -0.8783 -0.0647 -0.4738
vn 0.5615 0.0434 0.8263
vn 0.9986 -0.0173 -0.0507
vn -0.5247 0.1262 -0.8419
vn 0.1008 0.8430 -0.5284
vn 0.0821 0.0781 -0.9936
vn 0.5645 0.8221 -0.0742
vn 0.2279 0.9721 0.0552
vn 0.1771 0.9493 0.2596
vn 0.6123 0.1875 0.7681
vn 0.2093 0.9129 0.3506
vn 0.6510 0.1627 0.7414
vn 0.2683 0.0863 -0.9595
vn -0.4317 0.4222 0.7971
vn -0.0550 0.9704 0.2353
vn 0.0066 0.9977 -0.0668
vn 0.0050 0.9978 -0.0664
vn 0.0138 0.9976 -0.0682
vn -0.0233 0.9930 -0.1160
vn 0.0156 0.9975 -0.0685
vn -0.8375 0.0482 -0.5443
vn -0.4748 -0.0393 -0.8792
vn -0.7032 -0.1394 0.6972
vn -0.5451 0.2782 0.7909
vn -0.5498 0.2740 0.7890
vn -0.5492 0.2746 0.7893
vn 0.6590 -0.1405 0.7389
vn 0.1833 -0.1002 0.9779
vn -0.8459 0.2889 0.4484
vn 0.6330 -0.2747 0.7238
vn -0.5441 0.2791 0.7912
vn 0.0007 -1.0000 -0.0072
vn 0.4042 -0.8154 -0.4145
vn 0.1039 -0.4183 -0.9024
vn 0.7153 -0.6983 -0.0288
vn 0.4855 -0.2114 -0.8483
vn 0.4362 -0.5655 -0.7000
vn -0.0310 0.9953 0.0922
vn -0.0275 0.9833 0.1801
vn -0.3101 -0.3082 0.8994
vn -0.0880 -0.0157 0.9960
vn -0.0508 0.9924 0.1124
vn -0.9655 -0.2272 0.1270
vn -0.8200 -0.1639 0.5484
vn -0.1589 0.2034 -0.9661
vn -1.0000 -0.0000 -0.0000
vn -0.4427 -0.8595 -0.2554
vn 0.6657 0.1182 -0.7368
vn 0.2542 0.0201 -0.9669
vn -0.9704 -0.0138 0.2412
vn -0.9506 0.3103 0.0051
vn -0.9945 0.1047 0.0053
vn -0.1548 -0.1317 0.9791
vn -0.1282 0.0023 0.9917
vn 0.0934 0.9065 0.4118
vn -0.0116 -0.9999 0.0003
vn -0.0408 -0.0639 -0.9971
vn -0.2595 0.7122 -0.6522
vn -0.1716 0.7171 -0.6755
vn -0.3836 0.9157 0.1195
vn 0.0719 0.2840 -0.9561
vn 0.0111 0.2069 0.9783
vn 0.7440 -0.6650 -0.0658
vn -0.2184 0.9627 0.1600
vn -0.2977 -0.1059 -0.9488
vn 0.1124 0.9935 -0.0164
vn 0.2744 0.9569 0.0950
vn 0.0271 0.9996 -0.0044
vn -0.1703 -0.0060 0.9854
vn -0.0297 0.9995 -0.0132
vn -0.1649 0.0149 0.9862
vn -0.3419 -0.0474 0.9385
vn -0.2289 -0.2993 0.9263
vn -0.2212 0.0646 -0.9731
vn -0.6876 0.1418 0.7121
vn -0.9113 0.4042 -0.0785
vn -0.2455 -0.0946 0.9648
vn 0.7068 -0.1672 0.6874
vn -0.8611 -0.1701 -0.4792
vn -0.8647 -0.1445 -0.4810
vn -0.4165 -0.1282 -0.9001
vn -0.4180 -0.1067 -0.9021
vn -0.6868 -0.1853 -0.7029
vn -0.5564 -0.0464 -0.8296
vn 0.6939 0.6071 0.3872
vn 0.2530 0.8815 0.3986
vn -0.2156 0.6637 -0.7163
vn 0.2297 0.1577 -0.9604
vn -0.1021 0.9947 -0.0112
vn 0.2675 0.8872 -0.3758
vn 0.2683 0.8870 -0.3758
vn 0.2696 0.8866 -0.3759
vn -0.0150 0.3592 -0.9332
vn 0.7005 -0.7137 0.0071
vn 0.0115 0.9999 0.0026
vn 0.7367 -0.1231 -0.6649
vn -0.3618 0.5445 0.7568
vn 0.0400 0.9992 0.0004
vn 0.2704 0.8863 -0.3759
vn 0.1891 0.5410 -0.8195
vn -0.2414 0.1992 0.9498
vn -0.4536 0.7731 0.4434
vn -0.7402 -0.1619 -0.6526
vn -0.4381 0.7873 0.4338
vn -0.3480 -0.0133 0.9374
vn -0.2498 0.2604 0.9326
vn -0.2652 0.5620 0.7835
vn -0.2387 0.6029 0.7613
vn -0.2279 0.0952 -0.9690
vn 0.0087 0.9998 0.0153
vn -0.5733 0.7289 0.3741
vn 0.7102 0.1706 0.6830
vn 0.4182 -0.0404 0.9074
vn -0.3747 0.8456 -0.3803
vn 0.0373 0.9968 0.0706
vn -0.1363 0.9788 0.1525
vn -0.8567 -0.4652 -0.2229
vn -0.7681 0.0225 -0.6399
vn 0.4015 -0.1281 0.9069
vn 0.4183 -0.2554 0.8716
vn -0.6340 -0.0194 -0.7731
vn -0.0270 -0.1904 0.9813
vn -0.0521 -0.0288 0.9982
vn -0.1463 0.2657 -0.9529
vn 0.2879 0.9530 -0.0940
vn 0.4846 0.8469 0.2191
vn 0.3909 0.9142 0.1073
vn 0.3489 0.9358 -0.0510
vn 0.2171 -0.1578 0.9633
vn 0.3820 0.1058 0.9181
vn 0.3086 0.0987 0.9461
vn 0.2590 -0.1480 0.9545
vn -0.8243 -0.0648 -0.5624
vn 0.4841 -0.7229 0.4930
vn 0.8984 0.0832 0.4311
vn 0.7262 -0.6714 0.1479
vt 0.512951 0.315437
vt 0.464408 0.342824
vt 0.487742 0.186306
vt 0.528534 0.226242
vt 0.538525 0.272142
vt 0.161454 0.505736
vt 0.111001 0.501212
vt 0.130959 0.475405
vt 0.174533 0.477674
vt 0.217176 0.515756
vt 0.046643 0.908712
vt 0.122834 0.908147
vt 0.083072 0.939499
vt 0.001988 0.888070
vt 0.048105 0.886644
vt 0.071502 0.877995
vt 0.028234 0.939499
vt 0.536581 0.756642
vt 0.526463 0.725238
vt 0.608901 0.695075
vt 0.072995 0.663844
vt 0.011164 0.722522
vt 0.073550 0.630099
vt 0.575669 0.746663
vt 0.113182 0.668974
vt 0.965572 0.415429
vt 0.932913 0.383474
vt 0.978205 0.365509
vt 0.488227 0.370541
vt 0.534819 0.349054
vt 0.553283 0.429394
vt 0.505669 0.321749
vt 0.978205 0.462712
vt 0.928493 0.429828
vt 0.480155 0.422579
vt 0.460487 0.410419
vt 0.909787 0.409006
vt 0.710349 0.861277
vt 0.711830 0.780042
vt 0.789534 0.804817
vt 0.160058 0.651291
vt 0.077319 0.661520
vt 0.155721 0.588751
vt 0.634609 0.858284
vt 0.638718 0.777078
vt 0.793472 0.862087
vt 0.238026 0.651022
vt 0.066192 0.847867
vt 0.146965 0.760924
vt 0.124619 0.879572
vt 0.013288 0.862503
vt 0.000833 0.814457
vt 0.095938 0.879680
vt 0.022912 0.766030
vt 0.355965 0.109598
vt 0.503185 0.067246
vt 0.468720 0.125814
vt 0.113175 0.024631
vt 0.113024 0.018265
vt 0.218161 0.024631
vt 0.343421 0.065940
vt 0.248665 0.096198
vt 0.017893 0.069649
vt 0.130193 0.075652
vt 0.015772 0.075652
vt 0.202659 0.927993
vt 0.307888 0.934793
vt 0.281846 0.981897
vt 0.147484 0.926781
vt 0.179034 0.857547
vt 0.216469 0.869956
vt 0.209838 0.988626
vt 0.168220 0.999317
vt 0.265043 0.610467
vt 0.334016 0.642125
vt 0.250862 0.549848
vt 0.568273 0.552055
vt 0.542342 0.615776
vt 0.528598 0.552042
vt 0.458060 0.885143
vt 0.505704 0.946140
vt 0.460961 0.954404
vt 0.156909 0.123155
vt 0.117522 0.119590
vt 0.158342 0.116616
vt 0.858568 0.540178
vt 0.746406 0.517318
vt 0.853638 0.503095
vt 0.053384 0.152222
vt 0.086546 0.251072
vt 0.044528 0.206545
vt 0.079895 0.126057
vt 0.131570 0.123177
vt 0.756444 0.561313
vt 0.857251 0.595949
vt 0.671690 0.772359
vt 0.611725 0.743224
vt 0.702240 0.744200
vt 0.710616 0.769809
vt 0.191482 0.736986
vt 0.083578 0.707936
vt 0.869230 0.426506
vt 0.872552 0.441100
vt 0.694075 0.696959
vt 0.195289 0.749884
vt 0.150365 0.679960
vt 0.052601 0.403578
vt 0.002998 0.378866
vt 0.005573 0.293330
vt 0.093246 0.545797
vt 0.061060 0.574503
vt 0.060158 0.302429
vt 0.000959 0.442725
vt 0.796182 0.268417
vt 0.876034 0.341758
vt 0.738712 0.453915
vt 0.643072 0.268417
vt 0.334596 0.018963
vt 0.316309 0.034550
vt 0.271511 0.009600
vt 0.243590 0.378078
vt 0.175059 0.371282
vt 0.191712 0.314568
vt 0.411690 0.002025
vt 0.389976 0.019880
vt 0.225020 0.457801
vt 0.265118 0.400327
vt 0.263474 0.312249
vt 0.320204 0.328412
vt 0.740957 0.764289
vt 0.730360 0.709109
vt 0.262145 0.475027
vt 0.234059 0.475027
vt 0.249062 0.428175
vt 0.763513 0.751780
vt 0.010382 0.232458
vt 0.065049 0.242071
vt 0.523723 0.806827
vt 0.551952 0.754979
vt 0.392316 0.661520
vt 0.406412 0.608082
vt 0.544438 0.862087
vt 0.340484 0.132464
vt 0.280266 0.136202
vt 0.341128 0.119139
vt 0.369466 0.118137
vt 0.264558 0.158342
vt 0.195125 0.466060
vt 0.141555 0.393131
vt 0.785255 0.681653
vt 0.746406 0.627718
vt 0.850733 0.640730
vt 0.828784 0.766542
vt 0.784551 0.775996
vt 0.000833 0.650692
vt 0.853662 0.660024
vt 0.802268 0.262145
vt 0.728487 0.260778
vt 0.755994 0.214066
vt 0.032805 0.221679
vt 0.032805 0.126997
vt 0.038706 0.145838
vt 0.873430 0.299197
vt 0.886718 0.226098
vt 0.886718 0.300444
vt 0.837375 0.243723
vt 0.848392 0.232980
vt 0.007516 0.088308
vt 0.005913 0.075083
vt 0.017594 0.091436
vt 0.005913 0.098524
vt 0.863782 0.302465
vt 0.303904 0.165874
vt 0.419208 0.158653
vt 0.371482 0.348655
vt 0.291190 0.314337
vt 0.202093 0.274914
vt 0.313495 0.056528
vt 0.211040 0.058151
vt 0.402675 0.057185
vt 0.212758 0.152793
vt 0.201158 0.045582
vt 0.202936 0.761112
vt 0.229126 0.716130
vt 0.232236 0.826493
vt 0.692033 0.211483
vt 0.196322 0.826900
vt 0.694491 0.256428
vt 0.185178 0.703858
vt 0.625424 0.262145
vt 0.638854 0.230358
vt 0.599117 0.518000
vt 0.598328 0.440264
vt 0.643046 0.527510
vt 0.622237 0.589792
vt 0.586231 0.564623
vt 0.558420 0.473648
vt 0.344702 0.587339
vt 0.897274 0.401360
vt 0.843526 0.443928
vt 0.263956 0.475027
vt 0.263956 0.405969
vt 0.286776 0.451839
vt 0.031933 0.061903
vt 0.073041 0.050143
vt 0.130193 0.073893
vt 0.067932 0.446406
vt 0.123155 0.378229
vt 0.121520 0.467795
vt 0.001536 0.073893
vt 0.024950 0.056479
vt 0.067932 0.348273
vt 0.100450 0.506696
vt 0.470895 0.427476
vt 0.459321 0.466495
vt 0.395702 0.419567
vt 0.551566 0.169210
vt 0.498659 0.193276
vt 0.538343 0.063094
vt 0.753167 0.564326
vt 0.474598 0.009092
vt 0.493796 0.005062
vt 0.479459 0.050169
vt 0.001131 0.056300
vt 0.001131 0.012119
vt 0.008797 0.038299
vt 0.872982 0.187549
vt 0.857048 0.138317
vt 0.928942 0.248070
vt 0.246060 0.784385
vt 0.373258 0.804955
vt 0.284093 0.838547
vt 0.231551 0.843717
vt 0.432164 0.746033
vt 0.225208 0.138077
vt 0.249929 0.732778
vt 0.560077 0.236065
vt 0.551708 0.140148
vt 0.597376 0.214742
vt 0.616935 0.379297
vt 0.949952 0.953573
vt 0.836913 0.943627
vt 0.951814 0.855247
vt 0.356480 0.911160
vt 0.395034 0.932461
vt 0.317687 0.932461
vt 0.408196 0.901972
vt 0.376424 0.893387
vt 0.306932 0.867797
vt 0.307742 0.910422
vt 0.071537 0.094619
vt 0.078636 0.080286
vt 0.127480 0.077813
vt 0.427288 0.927314
vt 0.149354 0.090846
vt 0.041684 0.104386
vt 0.041436 0.093545
vt 0.954406 0.294361
vt 0.894653 0.359124
vt 0.889045 0.282726
vt 0.891755 0.249098
vt 0.957092 0.252485
vt 0.957092 0.364188
vt 0.116942 0.112700
vt 0.048204 0.123155
vt 0.487094 0.058339
vt 0.770600 0.717077
vt 0.064246 0.295573
vt 0.223439 0.288944
vt 0.204843 0.295573
vt 0.071667 0.285995
vt 0.354057 0.485005
vt 0.493868 0.497690
vt 0.355333 0.521503
vt 0.004539 0.121516
vt 0.081874 0.097847
vt 0.004009 0.133711
vt 0.273521 0.511260
vt 0.273464 0.479776
vt 0.358532 0.459917
vt 0.446487 0.491366
vt 0.298452 0.446318
vt 0.185907 0.653351
vt 0.232236 0.657105
vt 0.307946 0.479975
vt 0.791221 0.246310
vt 0.797598 0.160533
vt 0.803781 0.223420
vt 0.719984 0.199962
vt 0.660413 0.219740
vt 0.011738 0.017797
vt 0.029909 0.033247
vt 0.011738 0.049262
vt 0.423366 0.559009
vt 0.416378 0.615776
vt 0.364413 0.557583
vt 0.459927 0.605901
vt 0.456697 0.554576
vt 0.267469 0.873310
vt 0.337769 0.858851
vt 0.193046 0.036947
vt 0.123546 0.026807
vt 0.211123 0.026807
vt 0.247669 0.866784
vt 0.221533 0.479885
vt 0.310510 0.525015
vt 0.479377 0.780712
vt 0.420395 0.876638
vt 0.356089 0.845006
vt 0.748316 0.591785
vt 0.895090 0.484936
vt 0.957405 0.454063
vt 0.958324 0.496065
vt 0.856266 0.491153
vt 0.886017 0.450745
vt 0.912231 0.572417
vt 0.527105 0.325352
vt 0.585719 0.335678
vt 0.063290 0.332940
vt 0.067197 0.302052
vt 0.075653 0.298638
vt 0.307354 0.163621
vt 0.307263 0.146490
vt 0.352151 0.151059
vt 0.075653 0.344835
vt 0.810442 0.055679
vt 0.817930 0.099829
vt 0.692145 0.101328
vt 0.632437 0.057832
vt 0.810432 0.024449
vt 0.212926 0.015316
vt 0.615061 0.353992
vt 0.739535 0.654729
vt 0.717299 0.690621
vt 0.678009 0.637539
vt 0.152948 0.854818
vt 0.139506 0.875959
vt 0.717527 0.639843
vt 0.754669 0.674062
vt 0.076301 0.049400
vt 0.075704 0.017636
vt 0.130090 0.030295
vt 0.123865 0.064554
vt 0.036933 0.032182
vt 0.851531 0.137214
vt 0.842854 0.173412
vt 0.520771 0.000801
vt 0.520771 0.059818
vt 0.915156 0.084984
vt 0.850133 0.002189
vt 0.928942 0.003764
vt 0.841925 0.060970
vt 0.925840 0.158539
vt 0.239878 0.047503
vt 0.210673 0.002025
vt 0.613225 0.452838
vt 0.672076 0.438790
vt 0.643408 0.524289
vt 0.621009 0.390505
vt 0.613225 0.377563
vt 0.835990 0.777637
vt 0.505079 0.541551
vt 0.495030 0.550026
vt 0.500682 0.436238
vt 0.534846 0.454901
vt 0.494793 0.461033
vt 0.142278 0.999317
vt 0.132467 0.975625
vt 0.543256 0.288600
vt 0.564800 0.303361
vt 0.124734 0.415325
vt 0.124734 0.346064
vt 0.130204 0.418728
vt 0.125125 0.313166
vt 0.123860 0.306841
vt 0.165253 0.306819
vt 0.925070 0.743552
vt 0.950579 0.779898
vt 0.874184 0.738791
vt 0.540495 0.023407
vt 0.628983 0.002157
vt 0.511139 0.621193
vt 0.517780 0.672189
vt 0.425581 0.654456
vt 0.542611 0.067191
vt 0.136048 0.014075
vt 0.160554 0.006220
vt 0.204086 0.001088
vt 0.126467 0.002897
vt 0.370751 0.351335
vt 0.356487 0.397763
vt 0.352951 0.353629
vt 0.439840 0.351335
vt 0.538319 0.179257
vt 0.552439 0.190372
vt 0.551574 0.260385
vt 0.058798 0.008703
vt 0.538319 0.256999
vt 0.859140 0.679874
vt 0.904048 0.667786
vt 0.857442 0.747728
vt 0.040832 0.193530
vt 0.040832 0.125261
vt 0.052781 0.132856
vt 0.857442 0.632512
vt 0.534642 0.450549
vt 0.821621 0.920398
vt 0.745249 0.981723
vt 0.720273 0.978706
vt 0.820018 0.949061
vt 0.804254 0.864191
vt 0.430609 0.879640
vt 0.449939 0.888856
vt 0.770600 0.454215
vt 0.745377 0.502701
vt 0.750337 0.462039
vt 0.302379 0.884417
vt 0.416482 0.154433
vt 0.391201 0.138760
vt 0.418411 0.144347
vt 0.460953 0.163621
vt 0.520771 0.728335
vt 0.520771 0.891996
vt 0.483781 0.884053
vt 0.397837 0.536215
vt 0.350113 0.397616
vt 0.332240 0.375850
vt 0.350113 0.341338
vt 0.630546 0.634250
vt 0.021112 0.131477
vt 0.021112 0.221679
vt 0.010322 0.157491
vt 0.593582 0.590784
vt 0.000959 0.581469
vt 0.013628 0.522384
vt 0.686938 0.555825
vt 0.718113 0.490979
vt 0.699142 0.579535
vt 0.638895 0.633617
vt 0.107887 0.105244
vt 0.133222 0.095188
vt 0.183994 0.118543
vt 0.131556 0.929325
vt 0.131938 0.922674
vt 0.914868 0.710100
vt 0.015834 0.198372
vt 0.001956 0.246310
vt 0.001956 0.157564
vt 0.914279 0.618428
vt 0.457434 0.917510
vt 0.722932 0.459343
vt 0.032329 0.000683
vt 0.149960 0.772240
vt 0.133711 0.886527
vt 0.155343 0.770788
vt 0.150468 0.853282
vt 0.158735 0.845259
vt 0.877030 0.573514
vt 0.014161 0.754897
vt 0.194543 0.143865
vt 0.173806 0.118137
vt 0.191082 0.130717
vt 0.168203 0.125481
vt 0.324496 0.388607
vt 0.532372 0.906629
vt 0.525470 0.884880
vt 0.565844 0.863761
vt 0.550781 0.950055
vt 0.179930 0.103850
vt 0.218161 0.123503
vt 0.214622 0.133711
vt 0.648477 0.877977
vt 0.652968 0.943862
vt 0.575487 0.933699
vt 0.691429 0.879613
vt 0.686071 0.950055
vt 0.166091 0.299652
vt 0.251589 0.313166
vt 0.239585 0.294553
vt 0.574369 0.869612
vt 0.068428 0.244486
vt 0.073910 0.592229
vt 0.911802 0.613698
vt 0.856266 0.614921
vt 0.965954 0.580580
vt 0.971167 0.649204
vt 0.170487 0.082259
vt 0.248775 0.116118
vt 0.249829 0.105429
vt 0.166127 0.078058
vt 0.810678 0.002157
vt 0.099238 0.536217
vt 0.000683 0.008687
vt 0.726005 0.864191
vt 0.686759 0.959149
vt 0.694389 0.894613
vt 0.156884 0.343067
vt 0.426263 0.009809
vt 0.353649 0.054540
vt 0.351734 0.035540
vt 0.459939 0.010078
vt 0.430941 0.054540
vt 0.620051 0.266707
vt 0.643046 0.262262
vt 0.740478 0.599077
vt 0.328270 0.053406
vt 0.762044 0.880358
vt 0.499604 0.506689
vt 0.511974 0.918289
vt 0.511974 0.957092
vt 0.137230 0.348285
vt 0.836913 0.779840
vt 0.122227 0.343621
vt 0.464471 0.048521
vt 0.430363 0.697982
vt 0.246560 0.701391
vt 0.848742 0.304369
vt 0.822469 0.245545
vt 0.003794 0.110480
vt 0.012830 0.116118
vt 0.087958 0.337510
vt 0.154787 0.333155
vt 0.059695 0.001088
vt 0.452732 0.155448
vt 0.086970 0.322358
vt 0.139217 0.403389
vt 0.394411 0.404958
vt 0.380941 0.411690
vt 0.578753 0.260972
vt 0.119511 0.504055
vt 0.432434 0.375451
vt 0.242792 0.372985
vt 0.200038 0.319766
vt 0.242792 0.315391
vt 0.238845 0.441572
vt 0.534846 0.520771
vt 0.523629 0.488860
vt 0.323061 0.348700
vt 0.330760 0.333713
vt 0.330760 0.369466
vt 0.473552 0.423916
vt 0.469752 0.462007
vt 0.462156 0.473070
vt 0.483824 0.462781
vt 0.446878 0.388819
vt 0.437973 0.357287
vt 0.446878 0.346319
vt 0.483824 0.492621
vt 0.483878 0.907121
vt 0.058840 0.341539
vt 0.065096 0.339105
vt 0.057005 0.375411
vt 0.065096 0.404653
vt 0.286725 0.372857
vt 0.142508 0.471509
vt 0.122392 0.471509
vt 0.136111 0.396515
vt 0.847269 0.163121
vt 0.022785 0.136496
vt 0.028150 0.130992
vt 0.028150 0.200567
s 1
usemtl Material.007
f 1/1/1 41/2/1 121/3/1
f 1/1/2 81/4/2 97/5/2
f 1/6/3 97/7/3 129/8/3
f 1/1/4 121/3/4 81/4/4
f 1/6/5 129/8/5 145/9/5
f 1/6/6 145/9/6 41/10/6
f 2/11/7 82/12/7 180/13/7
f 2/11/8 88/14/8 176/15/8
f 2/11/9 108/16/9 82/12/9
f 2/11/10 132/17/10 88/14/10
f 2/11/11 176/15/11 108/16/11
f 2/11/12 180/13/12 132/17/12
f 3/18/13 87/19/14 159/20/15
f 3/21/13 99/22/16 87/23/14
f 3/18/17 159/20/17 215/24/17
f 3/21/18 215/25/18 99/22/18
f 4/26/19 16/27/19 72/28/19
f 4/29/20 45/30/20 149/31/20
f 4/29/21 72/32/21 45/30/21
f 4/26/22 88/33/22 132/34/22
f 4/29/23 116/35/23 88/36/23
f 4/26/24 132/34/24 165/37/24
f 4/29/25 149/31/25 116/35/25
f 4/26/26 165/37/26 16/27/26
f 5/38/27 53/39/27 111/40/27
f 5/41/28 92/42/28 117/43/28
f 5/38/29 105/44/29 201/45/29
f 5/38/30 111/40/30 92/46/30
f 5/41/31 117/43/31 105/47/31
f 5/38/32 201/45/32 53/39/32
f 6/48/33 85/49/33 154/50/33
f 6/48/34 102/51/34 118/52/34
f 6/48/35 106/53/35 102/51/35
f 6/48/36 118/52/36 174/54/36
f 6/48/37 154/50/37 106/53/37
f 6/48/38 174/54/38 85/49/38
f 7/55/39 35/56/39 139/57/39
f 7/58/40 47/59/40 133/60/40
f 7/55/39 79/61/41 35/56/39
f 7/55/42 133/62/42 79/61/42
f 7/63/43 139/64/43 47/65/43
f 8/66/44 64/67/44 144/68/44
f 8/66/45 77/69/45 125/70/45
f 8/66/46 125/70/46 208/71/46
f 8/66/47 144/68/47 153/72/47
f 8/66/48 153/72/48 221/73/48
f 8/66/49 208/71/49 64/67/49
f 8/66/50 221/73/50 77/69/50
f 9/74/51 65/75/51 105/47/51
f 9/74/52 105/47/52 117/43/52
f 9/74/53 117/43/53 173/76/53
f 9/74/54 173/76/54 65/75/54
f 10/77/55 84/78/55 210/79/55
f 10/80/56 114/81/56 84/82/56
f 10/83/57 210/84/57 222/85/57
f 11/86/58 27/87/58 107/88/58
f 11/89/59 91/90/60 171/91/61
f 11/89/62 107/92/62 151/93/62
f 11/89/59 151/93/63 91/90/60
f 11/86/64 155/94/64 27/87/64
f 11/86/65 171/95/65 155/94/65
f 12/96/66 15/97/66 159/20/66
f 12/96/67 24/98/67 165/99/67
f 12/100/68 85/49/68 183/101/68
f 12/102/69 132/34/69 180/103/69
f 12/96/70 159/20/70 212/104/70
f 12/102/71 165/37/71 132/34/71
f 12/100/72 180/105/72 85/49/72
f 12/100/73 183/101/73 15/106/73
f 12/96/74 212/104/74 24/98/74
f 13/107/75 29/108/75 57/109/75
f 13/107/76 31/110/76 143/111/76
f 13/107/77 57/109/77 157/112/77
f 13/107/78 143/111/78 197/113/78
f 13/114/79 157/115/80 173/116/81
f 13/114/82 173/116/82 31/117/82
f 13/107/83 197/113/83 29/108/83
f 14/118/84 54/119/84 214/120/84
f 14/121/85 98/122/85 148/123/85
f 14/118/86 148/124/86 202/125/86
f 18/126/87 14/121/87 166/127/87
f 14/118/88 202/125/88 54/119/88
f 14/121/89 214/128/89 110/129/89
f 15/106/90 183/101/90 215/25/90
f 15/97/91 215/24/91 159/20/91
f 16/130/92 24/98/92 96/131/92
f 16/132/93 36/133/93 72/134/93
f 16/130/94 96/131/94 36/135/94
f 16/130/95 165/99/95 24/98/95
f 17/136/96 25/137/96 57/109/96
f 17/138/97 57/139/97 201/45/97
f 17/140/98 65/75/98 25/141/98
f 17/138/99 105/44/99 65/142/99
f 17/138/100 201/45/100 105/44/100
f 18/143/101 30/144/101 76/145/101
f 18/143/102 76/145/102 220/146/102
f 18/143/103 166/147/103 30/144/103
f 18/126/104 220/148/104 172/149/104
f 19/150/105 43/151/105 203/152/105
f 19/150/106 55/153/106 167/154/106
f 19/155/107 87/23/107 99/22/107
f 19/150/108 91/156/108 55/153/108
f 19/157/109 99/158/109 43/159/109
f 19/160/110 167/161/110 87/162/110
f 19/150/111 203/152/111 91/156/111
f 20/163/112 82/164/112 176/165/112
f 20/163/113 124/166/113 156/167/113
f 20/168/114 176/169/114 204/170/114
f 20/168/115 204/170/115 216/171/115
f 20/163/116 216/172/116 124/166/116
f 21/173/117 61/174/118 109/175/119
f 21/173/117 69/176/120 199/177/121
f 21/178/122 79/61/122 205/179/122
f 21/178/123 103/180/123 79/61/123
f 21/173/117 109/175/119 69/176/120
f 21/173/117 199/177/121 103/181/124
f 21/178/125 205/179/125 61/182/125
f 22/183/126 38/184/126 75/185/126
f 22/186/127 43/159/127 99/158/127
f 22/183/128 75/185/128 43/187/128
f 22/186/129 99/158/129 187/188/129
f 22/183/130 118/189/130 38/184/130
f 22/186/131 150/190/131 118/191/131
f 22/186/132 187/188/132 150/190/132
f 23/192/133 47/193/133 139/194/133
f 23/192/134 83/195/134 119/196/134
f 23/192/135 119/196/135 175/197/135
f 23/192/136 139/194/136 83/195/136
f 23/192/137 149/31/137 47/193/137
f 23/192/138 175/197/138 149/31/138
f 24/98/139 212/104/139 96/131/139
f 25/141/140 65/75/140 137/198/140
f 25/199/141 137/200/141 157/115/141
f 25/137/142 157/112/142 57/109/142
f 26/201/143 28/202/143 156/203/143
f 26/204/144 62/205/144 174/206/144
f 26/207/145 150/208/145 178/209/145
f 26/204/146 156/210/146 194/211/146
f 26/207/147 174/212/147 150/208/147
f 26/207/148 178/209/148 28/213/148
f 26/204/149 194/211/149 62/205/149
f 27/214/150 51/215/150 182/216/150
f 27/217/151 83/218/151 107/219/151
f 27/87/152 155/94/152 51/220/152
f 28/221/153 52/222/153 124/223/153
f 28/224/154 178/225/154 52/226/154
f 29/227/155 197/228/155 57/229/155
f 30/230/156 42/231/156 74/232/156
f 30/230/157 74/232/157 76/233/157
f 30/230/158 163/234/158 42/231/158
f 30/144/159 166/147/159 198/235/159
f 30/230/160 198/236/160 163/234/160
f 31/237/161 131/238/161 143/239/161
f 31/117/162 173/116/163 191/240/164
f 31/241/162 191/242/164 131/243/165
f 32/244/166 33/245/166 209/246/166
f 32/244/167 128/247/167 33/245/167
f 32/244/168 144/248/168 128/247/168
f 32/244/169 153/249/170 144/248/171
f 32/244/169 200/250/172 153/249/170
f 32/244/173 209/246/173 200/250/173
f 33/251/174 49/252/174 161/253/174
f 33/245/175 128/247/175 177/254/175
f 33/251/176 161/253/176 209/255/176
f 33/251/177 177/256/177 193/257/177
f 33/251/178 193/257/178 49/252/178
f 34/258/179 108/259/179 196/260/179
f 34/258/180 120/261/181 222/262/182
f 34/258/183 138/263/183 108/259/183
f 34/258/180 196/260/184 120/261/181
f 34/264/185 210/84/185 138/265/185
f 34/264/186 222/85/186 210/84/186
f 35/56/187 79/61/187 151/266/187
f 35/56/188 83/218/188 139/57/188
f 35/56/189 107/219/189 83/218/189
f 35/56/190 151/266/190 107/219/190
f 36/135/191 96/131/191 168/267/191
f 37/268/192 87/269/192 167/270/192
f 37/268/193 127/271/193 87/269/193
f 37/272/194 167/273/194 181/274/194
f 37/275/195 169/276/195 127/277/195
f 37/272/196 181/274/196 217/278/196
f 37/272/197 217/278/197 169/279/197
f 38/280/198 51/215/198 75/281/198
f 38/280/199 86/282/200 182/216/201
f 38/184/202 102/283/202 134/284/202
f 38/184/203 118/189/203 102/283/203
f 38/280/199 134/285/204 86/282/200
f 38/280/205 182/216/205 51/215/205
f 39/286/206 50/287/206 82/288/206
f 39/289/207 71/290/207 50/287/207
f 39/291/208 82/292/208 138/293/208
f 39/294/209 111/295/209 71/296/209
f 39/294/210 122/297/210 111/295/210
f 39/294/211 138/298/211 122/297/211
f 40/299/212 74/232/212 146/300/212
f 40/299/213 76/233/213 74/232/213
f 40/301/214 146/302/214 220/303/214
f 40/299/215 220/304/215 76/233/215
f 41/2/216 61/174/217 121/3/218
f 41/2/216 109/175/219 61/174/217
f 41/10/220 113/305/220 217/278/220
f 41/10/221 145/9/221 113/305/221
f 41/10/222 217/278/222 109/306/222
f 42/231/223 67/307/223 95/308/223
f 42/231/224 95/308/224 135/309/224
f 42/231/225 135/309/225 74/232/225
f 42/231/226 163/234/226 67/307/226
f 43/151/227 75/310/227 203/152/227
f 44/311/228 58/312/228 170/313/228
f 44/311/229 84/314/229 114/315/229
f 44/311/230 114/315/230 58/312/230
f 44/311/231 170/313/231 218/316/231
f 44/311/232 218/316/232 84/314/232
f 45/30/233 72/32/233 112/317/233
f 45/30/234 112/317/234 189/318/234
f 45/30/235 189/318/235 149/31/235
f 46/319/236 94/320/236 134/321/236
f 46/322/237 102/323/237 190/324/237
f 46/319/238 134/321/238 102/325/238
f 46/326/239 190/327/240 206/328/241
f 46/326/239 206/328/241 219/329/242
f 46/326/243 219/329/243 94/330/243
f 47/59/244 101/331/244 133/60/244
f 47/193/245 149/31/245 189/318/245
f 47/193/246 189/318/246 101/332/246
f 48/333/247 68/334/247 141/335/247
f 48/336/248 125/70/248 152/337/248
f 48/333/249 141/335/249 125/338/249
f 48/333/250 152/339/250 68/334/250
f 49/340/251 81/341/251 121/342/251
f 49/340/252 121/342/252 161/343/252
f 49/340/253 193/344/253 81/341/253
f 50/287/254 66/345/254 164/346/254
f 50/287/255 71/290/255 206/328/255
f 50/287/256 164/346/256 82/288/256
f 50/287/257 190/327/257 66/345/257
f 50/287/258 206/328/258 190/327/258
f 51/220/259 155/94/259 75/310/259
f 52/222/260 178/347/260 194/348/260
f 52/222/261 194/348/261 124/223/261
f 53/349/262 71/350/262 111/351/262
f 53/349/263 197/228/263 213/352/263
f 53/349/264 201/353/264 197/228/264
f 53/349/265 213/352/265 71/350/265
f 54/119/266 70/354/266 182/355/266
f 54/356/267 158/357/267 70/358/267
f 54/119/268 182/355/268 214/120/268
f 54/356/269 186/359/269 158/357/269
f 54/356/270 202/360/270 186/359/270
f 55/153/271 91/156/271 199/361/271
f 55/362/272 181/274/272 167/273/272
f 55/362/273 199/363/273 181/274/273
f 56/364/274 112/365/274 160/366/274
f 56/367/275 160/368/275 221/73/275
f 56/369/276 189/318/276 112/317/276
f 56/369/277 221/370/277 189/318/277
f 57/229/278 197/228/278 201/353/278
f 58/371/279 114/372/279 126/373/279
f 58/374/280 126/375/280 170/376/280
f 59/377/281 115/378/281 211/379/281
f 59/380/282 147/381/282 219/329/282
f 59/382/283 211/383/283 147/384/283
f 59/380/284 219/329/284 115/385/284
f 60/386/285 98/387/285 158/388/285
f 60/386/286 130/389/286 98/387/286
f 60/390/287 148/391/287 184/392/287
f 60/390/288 158/393/288 148/391/288
f 60/394/289 184/395/289 216/396/289
f 60/386/290 204/397/290 130/389/290
f 60/394/291 216/396/291 204/398/291
f 61/182/292 205/179/292 121/342/292
f 62/399/293 78/400/293 187/401/293
f 62/402/294 187/403/294 174/404/294
f 62/399/295 194/405/295 78/400/295
f 63/406/296 116/35/296 149/31/296
f 63/407/297 119/408/297 195/409/297
f 63/406/298 149/31/298 175/197/298
f 63/407/299 175/410/299 119/408/299
f 63/407/300 195/409/300 116/411/300
f 64/412/301 80/413/301 128/247/301
f 64/412/302 128/247/302 144/248/302
f 64/414/303 192/415/303 80/416/303
f 64/67/304 208/71/304 192/417/304
f 65/75/305 173/76/305 137/198/305
f 66/418/306 106/419/306 154/420/306
f 66/418/307 154/420/307 164/421/307
f 66/418/308 190/324/308 106/419/308
f 67/307/309 163/234/309 179/422/309
f 67/307/310 179/422/310 191/423/310
f 67/307/311 191/423/311 207/424/311
f 67/307/312 207/424/312 95/308/312
f 68/334/313 96/131/313 212/104/313
f 68/334/314 152/339/314 168/267/314
f 68/334/315 168/267/315 96/131/315
f 68/334/316 212/104/316 141/335/316
f 69/425/317 109/306/317 181/274/317
f 69/425/318 181/274/318 199/363/318
f 70/426/319 110/427/319 195/428/319
f 70/429/320 119/196/320 83/195/320
f 70/430/321 158/431/321 110/432/321
f 70/429/322 195/433/322 119/196/322
f 71/290/323 143/239/323 206/328/323
f 71/434/324 213/435/324 143/111/324
f 73/436/325 89/437/325 104/438/325
f 73/436/326 104/438/326 127/439/326
f 73/440/327 113/441/328 89/442/329
f 73/440/330 127/277/330 169/276/330
f 73/440/327 169/276/331 113/441/328
f 74/232/332 135/309/332 146/300/332
f 75/310/333 155/94/333 171/95/333
f 75/310/334 171/95/334 203/152/334
f 77/69/335 152/337/335 125/70/335
f 77/69/336 160/368/336 168/443/336
f 77/69/337 168/444/337 152/337/337
f 77/69/338 221/73/338 160/368/338
f 78/400/339 150/445/339 187/401/339
f 78/446/340 178/447/340 150/448/340
f 78/400/341 194/405/341 178/449/341
f 79/61/342 103/180/342 151/266/342
f 79/61/343 133/62/343 205/179/343
f 80/413/344 177/254/344 128/247/344
f 80/413/345 185/450/345 177/254/345
f 80/416/346 192/415/346 185/451/346
f 81/341/347 193/344/347 97/452/347
f 82/453/348 85/49/348 180/105/348
f 82/12/349 108/16/349 138/454/349
f 82/455/350 136/456/350 85/49/350
f 82/455/351 164/457/351 136/456/351
f 84/78/352 122/297/352 210/79/352
f 84/314/353 218/316/353 122/458/353
f 85/49/354 136/456/354 154/50/354
f 85/49/355 174/54/355 187/459/355
f 85/49/356 187/459/356 183/101/356
f 86/460/357 94/461/357 142/462/357
f 86/460/358 134/463/358 94/461/358
f 86/460/359 142/462/359 198/235/359
f 86/282/360 166/127/360 214/464/360
f 86/460/361 198/235/361 166/147/361
f 86/282/362 214/464/362 182/216/362
f 87/19/363 127/439/363 159/20/363
f 88/465/364 116/466/364 172/467/364
f 88/465/365 172/467/365 176/468/365
f 89/442/366 113/441/367 145/469/368
f 89/442/369 129/470/369 185/471/369
f 89/442/366 145/469/368 129/470/370
f 89/437/371 185/451/371 192/415/371
f 89/437/372 192/415/372 104/438/372
f 90/472/373 100/473/373 162/474/373
f 90/472/374 126/475/375 188/476/376
f 90/477/377 135/478/377 170/376/377
f 90/477/378 146/479/378 135/478/378
f 90/472/379 162/474/379 146/480/379
f 90/477/380 170/376/380 126/375/380
f 90/472/374 188/476/376 100/473/381
f 91/90/382 151/93/382 199/177/382
f 91/90/383 203/481/383 171/91/383
f 92/42/384 95/482/384 117/43/384
f 92/483/385 111/484/385 218/316/385
f 92/483/386 135/485/386 95/486/386
f 92/483/387 218/316/387 135/485/387
f 93/487/388 101/488/388 209/255/388
f 93/487/389 133/489/389 101/488/389
f 93/490/390 161/343/390 205/179/390
f 93/490/391 205/179/391 133/62/391
f 93/487/392 209/255/392 161/253/392
f 94/330/393 147/381/393 142/491/393
f 94/330/394 219/329/394 147/381/394
f 95/482/395 207/492/395 117/43/395
f 97/452/396 193/344/396 129/493/396
f 98/494/397 110/495/397 158/496/397
f 98/122/398 130/497/398 148/123/398
f 99/22/399 215/25/399 187/459/399
f 100/498/400 108/499/400 162/500/400
f 100/498/401 188/501/401 196/502/401
f 100/498/402 196/502/402 108/499/402
f 101/332/403 189/318/403 200/503/403
f 101/332/404 200/503/404 209/504/404
f 102/323/405 106/419/405 190/324/405
f 103/181/124 199/177/121 151/93/406
f 104/438/407 141/335/407 127/439/407
f 104/438/408 192/415/408 208/505/408
f 104/438/409 208/505/409 141/335/409
f 108/499/410 176/506/410 162/500/410
f 109/306/411 217/278/411 181/274/411
f 172/507/412 195/409/412 110/495/412
f 111/484/413 122/458/413 218/316/413
f 112/365/414 168/508/414 160/366/414
f 113/305/415 169/279/415 217/278/415
f 114/81/416 120/509/416 188/510/416
f 114/372/417 188/511/417 126/373/417
f 115/378/418 131/243/418 179/512/418
f 115/385/419 143/239/419 131/238/419
f 115/378/420 179/512/420 211/379/420
f 115/385/421 206/328/421 143/239/421
f 115/385/422 219/329/422 206/328/422
f 116/411/423 195/409/423 172/507/423
f 117/43/424 207/492/424 173/76/424
f 118/513/425 150/208/425 174/212/425
f 120/514/426 196/502/426 188/501/426
f 121/342/427 205/179/427 161/343/427
f 122/297/428 138/298/428 210/79/428
f 123/515/429 142/516/429 147/384/429
f 123/515/430 147/384/430 211/383/430
f 123/515/431 163/234/431 198/236/431
f 123/515/432 179/422/432 163/234/432
f 123/515/433 198/236/433 142/516/433
f 123/515/434 211/383/434 179/422/434
f 124/166/435 140/517/435 156/518/435
f 124/166/436 216/172/436 140/517/436
f 125/338/437 141/335/437 208/505/437
f 127/439/438 141/335/438 159/20/438
f 129/519/439 193/257/439 185/520/439
f 130/497/440 140/521/441 184/522/442
f 130/497/443 184/522/443 148/123/443
f 130/389/444 204/397/444 140/523/444
f 131/243/445 191/242/445 179/512/445
f 135/485/446 218/316/446 170/313/446
f 136/524/447 164/421/447 154/420/447
f 137/200/448 173/116/81 157/115/80
f 140/521/441 216/525/449 184/522/442
f 141/335/450 212/104/450 159/20/450
f 143/111/451 213/435/451 197/113/451
f 146/480/452 162/474/452 176/468/452
f 146/526/453 172/149/453 220/148/453
f 146/480/454 176/468/454 172/467/454
f 148/391/455 158/393/455 186/527/455
f 148/391/456 186/527/456 202/528/456
f 153/529/457 189/318/457 221/370/457
f 153/529/458 200/503/458 189/318/458
f 173/76/459 207/492/459 191/530/459
f 177/256/460 185/520/460 193/257/460
f 183/101/461 187/459/461 215/25/461
f 27/214/462 182/216/462 70/531/462
f 27/532/463 70/533/463 83/534/463
f 36/133/464 223/535/464 72/134/464
f 36/536/465 168/508/465 223/537/465
f 112/365/466 223/537/466 168/508/466
f 72/538/467 223/539/467 112/540/467
f 28/541/468 224/542/468 156/543/468
f 28/541/469 124/544/469 224/542/469
f 194/545/470 224/546/470 124/547/470
f 194/548/471 156/543/471 224/542/471
f 172/507/472 110/495/472 98/494/472
f 18/126/473 172/149/473 14/121/473
f 172/149/474 98/122/474 14/121/474
f 10/80/475 225/549/475 114/81/475
f 10/550/476 222/551/476 225/552/476
f 120/553/477 225/552/477 222/551/477
f 114/81/478 225/549/478 120/509/478
f 166/127/479 14/121/479 226/554/479
f 110/129/480 226/554/480 14/121/480
f 110/129/481 214/464/481 226/554/481
f 166/127/482 226/554/482 214/464/482
f 20/163/483 156/167/483 82/164/483
f 204/555/484 176/556/484 82/557/484
f 156/167/485 204/558/485 82/164/485
f 140/559/486 204/560/486 156/561/486
