# Blender 4.4.0
# www.blender.org
mtllib Meshy_AI_Azure_Geometry_0825083206_texture.mtl
o Meshy_AI_Azure_Geometry_0825083206_texture
v 0.000175 -0.140625 -0.470703
v 0.078125 -0.069824 0.045166
v 0.033691 -0.132812 -0.130859
v -0.035156 0.078125 0.402344
v -0.088867 -0.045410 0.168945
v 0.035645 0.151367 -0.061523
v -0.000360 -0.117188 0.416016
v -0.136719 0.047852 0.005219
v -0.030029 -0.019775 0.472656
v 0.006958 0.215820 0.034668
v 0.058838 -0.174805 0.168945
v -0.005005 0.079590 -0.210938
v -0.005524 -0.213867 0.022827
v 0.030273 0.000549 0.464844
v -0.000881 -0.070801 -0.347656
v -0.057617 0.173828 0.137695
v -0.125977 -0.033447 0.048584
v -0.000603 0.104492 0.414062
v 0.117676 -0.220703 0.007935
v -0.083984 0.051758 0.233398
v 0.000441 -0.162109 0.314453
v 0.136719 0.047852 0.004486
v 0.088379 -0.045410 0.167969
v -0.000456 0.122070 -0.210938
v -0.056396 -0.176758 0.166016
v -0.000504 -0.003784 -0.435547
v 0.077148 -0.086914 0.285156
v -0.001015 0.203125 -0.095703
v -0.029663 -0.046387 -0.219727
v 0.051025 0.152344 0.221680
v -0.000334 -0.257812 0.020874
v -0.055176 -0.037109 0.414062
v -0.077637 -0.087402 0.285156
v 0.004700 0.078613 -0.210938
v 0.051758 -0.090332 0.398438
v -0.088867 0.052490 0.082520
v 0.000184 -0.125977 -0.265625
v 0.107910 0.046387 0.107910
v 0.062256 -0.056641 -0.101562
v -0.040039 0.125977 0.324219
v -0.118164 -0.221680 0.007751
v 0.062988 -0.037354 0.388672
v 0.000580 -0.125977 -0.500000
v -0.000219 0.257812 0.160156
v 0.000326 -0.007782 0.500000
v 0.050781 0.173828 0.031494
v 0.000383 -0.213867 0.160156
v -0.031494 0.018555 -0.218750
v -0.051514 -0.090820 0.398438
v 0.005035 0.177734 -0.066406
v 0.087402 -0.051514 0.167969
v 0.001083 0.137695 -0.433594
v -0.047852 -0.184570 0.033691
v 0.041016 0.125977 0.322266
v -0.000136 -0.187500 -0.133789
v -0.084473 -0.039795 0.232422
v -0.062500 -0.056641 -0.101074
v -0.000161 0.204102 0.233398
v 0.108887 -0.181641 0.037354
v -0.000265 0.010742 0.500000
v 0.000208 -0.255859 0.132812
v 0.009583 -0.010254 -0.351562
v -0.000005 -0.054199 0.386719
v -0.050293 0.172852 0.031494
v -0.062500 -0.038330 0.390625
v 0.000460 0.275391 0.018311
v 0.055420 -0.177734 0.166016
v -0.000153 0.043945 -0.314453
v -0.000074 -0.273438 0.073730
v 0.030396 -0.019531 0.472656
v -0.000213 -0.097168 -0.242188
v -0.051025 0.152344 0.221680
v -0.034424 -0.131836 -0.131836
v 0.084473 0.051270 0.232422
v 0.125977 -0.033447 0.048584
v -0.000179 0.162109 0.326172
v -0.079102 -0.070312 0.045898
v 0.000381 0.121094 -0.466797
v 0.000231 -0.193359 0.233398
v -0.064453 0.039062 -0.100586
v -0.059082 -0.175781 0.169922
v 0.031494 0.018311 -0.218750
v 0.055420 -0.037109 0.414062
v -0.006256 0.215820 0.035156
v -0.000900 -0.088379 -0.500000
v 0.057861 0.173828 0.137695
v 0.005859 -0.212891 0.021973
v -0.030396 -0.000058 0.466797
v -0.109375 -0.182617 0.037842
v 0.034668 0.078125 0.400391
v -0.000437 -0.192383 -0.213867
v -0.107422 0.045898 0.108887
v 0.000049 -0.041748 0.488281
v 0.088867 0.052979 0.082031
v 0.000151 -0.023071 0.388672
v -0.035645 0.151367 -0.061768
v -0.105957 -0.253906 0.033203
v 0.000912 0.011047 0.457031
v 0.029175 -0.046631 -0.219727
v -0.000278 0.218750 0.197266
v -0.041992 -0.137695 0.294922
v 0.063965 0.038818 -0.100098
v 0.105469 -0.253906 0.033447
v -0.010681 -0.010437 -0.353516
v -0.088379 -0.051758 0.168945
v -0.000139 0.174805 -0.130859
v 0.041992 -0.137695 0.294922
v -0.005188 0.179688 -0.065918
v -0.000012 -0.201172 -0.061035
v 0.083496 -0.040039 0.231445
v 0.047119 -0.184570 0.033203
v 0.096498 -0.208471 0.061037
v 0.113242 0.002320 0.081855
v -0.113754 0.002132 0.082648
v -0.097390 -0.208734 0.061168
vn -0.9852 -0.1524 0.0780
vn 0.9982 -0.0581 -0.0152
vn 0.9814 -0.1631 0.1010
vn -0.9981 -0.0488 -0.0382
vn -0.9981 -0.0479 -0.0375
vn -0.9982 -0.0396 -0.0451
vn 0.9438 -0.3042 -0.1294
vn 0.9650 -0.2540 -0.0650
vn 0.9742 -0.2227 -0.0371
vn 0.9939 -0.0161 -0.1089
vn 0.9954 -0.0661 -0.0700
vn 0.9902 -0.0471 -0.1317
vn 0.9577 -0.2426 -0.1549
vn 0.9536 0.1979 -0.2271
vn 0.8494 -0.5269 0.0289
vn 0.8648 -0.3378 -0.3715
vn 0.9483 -0.2006 -0.2460
vn 0.9292 -0.2406 -0.2805
vn 0.8486 -0.5196 -0.0991
vn 0.7359 -0.6261 -0.2578
vn -0.6362 0.6467 0.4209
vn -0.9604 0.2067 0.1867
vn -0.6076 0.5355 0.5866
vn -0.9353 0.1895 0.2990
vn -0.6150 0.6547 0.4395
vn -0.7396 0.4008 0.5408
vn -0.9991 0.0287 0.0325
vn -0.9960 -0.0592 -0.0671
vn -0.9976 0.0046 0.0687
vn -0.9743 -0.2228 -0.0322
vn -0.9713 -0.2213 0.0868
vn 0.6247 0.6433 -0.4426
vn 0.9546 0.2142 -0.2071
vn 0.6521 0.7059 -0.2766
vn 0.6538 0.7039 -0.2775
vn 0.6525 0.7054 -0.2769
vn 0.9450 0.2898 -0.1517
vn 0.8749 0.3388 -0.3462
vn 0.5196 -0.7799 0.3490
vn 0.5147 -0.5945 0.6177
vn -0.5207 -0.7823 0.3419
vn -0.5173 -0.5906 0.6194
vn -0.9606 0.0554 0.2725
vn -0.9621 0.0181 0.2722
vn 0.9116 0.3252 -0.2515
vn -0.8817 -0.1862 0.4335
vn -0.0241 0.9251 -0.3790
vn -0.6475 -0.4481 0.6164
vn 0.1258 0.9353 -0.3307
vn -0.5877 -0.2596 0.7663
vn 0.9936 0.0893 -0.0695
vn 0.9982 0.0400 0.0437
vn 0.6541 0.7036 -0.2776
vn 0.9861 0.1487 -0.0748
vn 0.9934 0.1135 0.0188
vn 0.6894 0.7229 -0.0460
vn 0.6200 0.7845 0.0135
vn 0.9708 -0.2209 0.0934
vn 0.5619 -0.8271 0.0118
vn 0.5539 -0.8325 0.0161
vn 0.5553 -0.8315 0.0153
vn 0.5161 -0.8245 0.2319
vn 0.5639 -0.8258 0.0107
vn 0.5726 -0.7625 0.3012
vn 0.9417 -0.2672 0.2046
vn -0.0000 -0.0000 -1.0000
vn 0.0949 0.9426 -0.3201
vn -0.8569 0.4116 -0.3104
vn -0.8930 0.4110 -0.1834
vn -0.8737 0.3432 -0.3446
vn -0.6442 0.6291 -0.4350
vn -0.9915 0.1062 -0.0745
vn -0.9928 -0.1159 -0.0294
vn -0.5365 -0.8436 0.0231
vn -0.5891 -0.7923 -0.1587
vn -0.9988 -0.0238 0.0430
vn -0.9973 -0.0695 0.0254
vn -0.5680 -0.8230 0.0063
vn -0.9902 -0.1133 -0.0822
vn 0.9325 0.1980 0.3020
vn -0.3329 -0.9428 -0.0158
vn 0.9285 0.2501 0.2744
vn 0.7462 0.3999 0.5322
vn -0.4018 -0.8195 0.4087
vn -0.3999 -0.8193 0.4109
vn -0.4010 -0.8194 0.4096
vn -0.9672 -0.1749 -0.1842
vn 0.9836 -0.1732 -0.0495
vn -0.8801 -0.4618 -0.1099
vn -0.9331 0.3239 0.1561
vn -0.9714 0.2354 0.0326
vn -0.9581 0.2780 -0.0686
vn -0.7337 0.6422 0.2219
vn -0.5848 0.8098 -0.0478
vn -0.9546 -0.0030 0.2977
vn 0.6206 0.5311 0.5769
vn 0.6420 0.6398 0.4225
vn 0.9299 -0.0636 0.3622
vn -0.9911 0.0043 0.1329
vn -0.9911 0.0044 0.1333
vn -0.9903 0.0066 0.1391
vn -0.9277 0.3253 0.1830
vn -0.9912 0.0039 0.1320
vn -0.9363 0.2339 0.2619
vn -0.5748 -0.7635 0.2945
vn -0.5746 -0.7641 0.2932
vn -0.5750 -0.7629 0.2955
vn 0.5827 -0.7586 0.2915
vn 0.5827 -0.7588 0.2910
vn 0.5827 -0.7585 0.2916
vn -0.5750 -0.7629 0.2956
vn 0.5828 -0.7583 0.2920
vn 0.9631 0.0184 0.2685
vn 0.9969 -0.0115 0.0777
vn 0.9994 0.0208 0.0294
vn 0.9890 0.1216 -0.0844
vn 0.9896 0.1178 -0.0830
vn 0.9896 0.1174 -0.0828
vn 0.9888 0.1231 -0.0850
vn -0.9866 0.1382 -0.0871
vn -0.9208 -0.0691 0.3838
vn 0.9903 0.0812 -0.1127
vn 0.9918 -0.0376 -0.1220
vn -0.9890 0.0924 -0.1152
vn -0.9919 -0.0243 -0.1250
vn 0.8253 -0.5389 0.1687
vn 0.9634 -0.1653 0.2109
vn 0.9907 -0.0007 0.1358
vn 0.7091 -0.5706 -0.4142
vn 0.9942 -0.0118 0.1072
vn -0.1754 -0.7616 -0.6239
vn -0.9940 0.0981 -0.0493
vn -0.9924 0.1123 -0.0506
vn -0.9888 -0.0257 -0.1472
vn -0.9633 -0.0187 -0.2679
vn -0.9632 -0.0183 -0.2681
vn -0.9639 -0.0224 -0.2654
vn -0.8645 -0.3361 -0.3736
vn -0.9316 -0.2341 -0.2781
vn -0.9640 -0.0232 -0.2649
vn 0.9284 0.3261 0.1779
vn 0.7167 0.6538 0.2427
vn 0.9321 0.3254 0.1591
vn 0.7294 0.6461 0.2247
vn 0.7153 0.6484 0.2606
vn 0.9898 -0.1354 -0.0449
vn 0.9870 -0.1339 -0.0887
vn 0.4286 -0.0587 0.9016
vn -0.9411 -0.1520 0.3020
vn -0.9331 0.2258 0.2798
vn 0.3929 -0.8291 0.3978
vn -0.9615 -0.1690 0.2166
vn -0.6951 -0.5761 -0.4300
vn -0.8191 -0.5471 0.1724
vn 0.8896 0.4189 -0.1820
vn 0.8546 0.4194 -0.3063
vn 0.9473 -0.1485 0.2838
vn 0.6467 -0.4503 0.6157
vn 0.8817 -0.1877 0.4329
vn -0.9544 0.2208 -0.2008
vn -0.9908 -0.0403 -0.1292
vn -0.9446 0.2933 -0.1475
vn -0.9540 0.1812 -0.2388
vn -0.9487 -0.1888 -0.2537
vn 0.9520 -0.0118 0.3058
vn 0.9626 -0.0131 -0.2706
vn -0.7187 0.6510 0.2444
vn -0.6459 0.6955 0.3147
vn -0.9304 -0.0680 0.3601
vn 0.9546 0.2130 0.2080
vn 0.9372 0.2320 0.2604
vn 0.9951 0.0392 -0.0909
vn -0.9982 -0.0393 -0.0457
vn -0.9934 0.1147 0.0095
vn -0.9987 0.0359 0.0362
vn 0.0167 0.9252 -0.3791
vn 0.5888 -0.2679 0.7626
vn 0.9592 0.2755 -0.0639
vn 0.9988 -0.0298 0.0394
vn -0.4971 -0.8358 0.2330
vn -0.9192 0.3311 -0.2132
vn 0.1847 0.9810 -0.0594
vn 0.9986 0.0358 -0.0390
vn 0.9890 0.1109 0.0975
vn -0.9973 0.0713 -0.0146
vn -0.9879 0.1269 0.0896
vn -0.7327 -0.6290 -0.2598
vn -0.9569 -0.2451 -0.1557
vn -0.9644 -0.2570 -0.0629
vn 0.6423 0.6982 0.3161
vn 0.6131 0.6505 0.4483
vn -0.8504 -0.5250 0.0352
vn -0.8490 -0.5196 -0.0962
vn -0.9387 -0.2724 0.2113
vn -0.9451 -0.2979 -0.1345
vn -0.9933 -0.0197 -0.1140
vn -0.7172 0.6450 0.2638
vn 0.9208 -0.0643 0.3846
vn 0.3350 -0.9422 0.0025
vn 0.9965 -0.0811 0.0194
vn 0.9226 0.3166 -0.2203
vn 0.9872 -0.0329 -0.1558
vn 0.8816 -0.4048 -0.2427
vn -0.1238 0.9347 -0.3333
vn -0.4282 -0.0544 0.9020
vn -0.6636 0.7021 -0.2580
vn -0.6989 0.7151 0.0128
vn -0.6758 0.6880 -0.2646
vn 0.9715 0.2350 0.0311
vn -0.5600 -0.7681 0.3106
vn 0.9654 -0.0306 -0.2589
vn -0.3979 -0.8191 0.4132
vn 0.5873 -0.7946 -0.1537
vn 0.4150 -0.8159 0.4026
vn -0.9191 0.0849 -0.3847
vn -0.9188 0.0838 -0.3857
vn -0.9189 0.0840 -0.3855
vn -0.9239 0.0480 -0.3795
vn -0.9254 0.0457 -0.3762
vn -0.9243 0.0474 -0.3788
vn -0.9257 0.0452 -0.3755
vn -0.9192 0.0850 -0.3846
vn -0.9631 0.0407 -0.2659
vn -0.9626 0.0417 -0.2676
vn -0.9631 0.0407 -0.2660
vn -0.9482 -0.0452 -0.3143
vn -0.9485 -0.0459 -0.3134
vn -0.9483 -0.0452 -0.3140
vn -0.9485 -0.0461 -0.3135
vn -0.9636 0.0397 -0.2643
vn 0.9521 -0.0365 -0.3035
vn 0.9521 -0.0362 -0.3038
vn 0.9522 -0.0367 -0.3034
vn 0.9622 0.0235 -0.2715
vn 0.9628 0.0221 -0.2693
vn 0.9522 -0.0370 -0.3031
vn 0.9202 0.0799 -0.3833
vn 0.9200 0.0793 -0.3839
vn 0.9214 0.0838 -0.3796
vn 0.9234 0.0596 -0.3792
vn 0.9238 0.0589 -0.3782
vn 0.9254 0.0565 -0.3747
vn 0.9259 0.0557 -0.3736
vn 0.9216 0.0845 -0.3789
vt 0.001214 0.834793
vt 0.084826 0.740661
vt 0.136528 0.757516
vt 0.487995 0.050932
vt 0.496466 0.023366
vt 0.620332 0.134988
vt 0.567981 0.148759
vt 0.008494 0.862648
vt 0.674755 0.489908
vt 0.570551 0.357144
vt 0.647017 0.363483
vt 0.618758 0.621744
vt 0.572811 0.510552
vt 0.728356 0.585999
vt 0.728263 0.339520
vt 0.786425 0.487999
vt 0.534959 0.238351
vt 0.566220 0.247929
vt 0.514526 0.368588
vt 0.493557 0.300902
vt 0.621100 0.258264
vt 0.518444 0.434915
vt 0.419888 0.144136
vt 0.459458 0.139455
vt 0.481915 0.230436
vt 0.434850 0.223287
vt 0.316120 0.116862
vt 0.411778 0.036599
vt 0.380685 0.063223
vt 0.242600 0.302685
vt 0.340411 0.276793
vt 0.298952 0.401050
vt 0.187738 0.398798
vt 0.264941 0.250998
vt 0.132514 0.265943
vt 0.838894 0.335172
vt 0.734366 0.226051
vt 0.869733 0.312884
vt 0.877916 0.411727
vt 0.720239 0.831406
vt 0.651151 0.757666
vt 0.755869 0.791477
vt 0.800108 0.879267
vt 0.239850 0.057586
vt 0.273347 0.098041
vt 0.167339 0.129740
vt 0.321581 0.011916
vt 0.264307 0.013171
vt 0.215022 0.078526
vt 0.169989 0.001241
vt 0.344831 0.039849
vt 0.325290 0.096099
vt 0.039431 0.016957
vt 0.076535 0.000609
vt 0.051283 0.088983
vt 0.001299 0.080217
vt 0.351032 0.001571
vt 0.928698 0.396941
vt 0.898597 0.290720
vt 0.976916 0.370464
vt 0.999771 0.493061
vt 0.978391 0.535835
vt 0.902938 0.501535
vt 0.749673 0.638008
vt 0.558695 0.634022
vt 0.527928 0.511527
vt 0.598621 0.696719
vt 0.679542 0.721797
vt 0.738563 0.217723
vt 0.771293 0.213790
vt 0.676133 0.153571
vt 0.251828 0.664919
vt 0.193609 0.648188
vt 0.240980 0.550689
vt 0.193532 0.738736
vt 0.349347 0.552095
vt 0.380874 0.572173
vt 0.288225 0.677056
vt 0.040342 0.376742
vt 0.002153 0.367735
vt 0.001214 0.318084
vt 0.072021 0.254169
vt 0.086320 0.378410
vt 0.031601 0.455270
vt 0.029720 0.270149
vt 0.861299 0.826912
vt 0.798775 0.771824
vt 0.902273 0.747037
vt 0.064110 0.171175
vt 0.027284 0.203018
vt 0.035728 0.166835
vt 0.806976 0.794911
vt 0.891710 0.856198
vt 0.099594 0.108210
vt 0.137073 0.632995
vt 0.082183 0.642720
vt 0.415918 0.389339
vt 0.425612 0.315715
vt 0.389548 0.478367
vt 0.492279 0.358208
vt 0.102590 0.078526
vt 0.942319 0.754486
vt 0.966571 0.663445
vt 0.482046 0.701669
vt 0.522181 0.684001
vt 0.490092 0.739294
vt 0.244022 0.192748
vt 0.195362 0.166752
vt 0.113348 0.190854
vt 0.395662 0.603108
vt 0.489612 0.590902
vt 0.445496 0.668429
vt 0.825196 0.613199
vt 0.838547 0.266419
vt 0.886472 0.282053
vt 0.723972 0.001450
vt 0.614078 0.055543
vt 0.581572 0.001450
vt 0.612070 0.060030
vt 0.529247 0.017687
vt 0.713326 0.009547
vt 0.125633 0.830419
vt 0.041037 0.869449
vt 0.224650 0.884854
vt 0.728586 0.696470
vt 0.392985 0.603311
vt 0.440707 0.494459
vt 0.486236 0.525187
vt 0.160444 0.526267
vt 0.084980 0.534429
vt 0.911361 0.576276
vt 0.918348 0.667728
vt 0.976425 0.571788
vt 0.488993 0.521323
vt 0.487995 0.570758
vt 0.044993 0.108639
vt 0.001299 0.160735
vt 0.677227 0.243154
vt 0.824822 0.852173
vt 0.051183 0.653076
vt 0.008673 0.591102
vt 0.557343 0.668429
vt 0.490587 0.321891
vt 0.573358 0.038338
vt 0.513292 0.401217
vt 0.099433 0.033737
vt 0.829105 0.890600
vt 0.516451 0.618426
vt 0.733519 0.034820
vt 0.246069 0.860524
vt 0.028231 0.522525
vt 0.632039 0.739294
vt 0.055543 0.691493
vt 0.037886 0.731633
vt 0.023480 0.682099
vt 0.000243 0.723593
vt 0.000243 0.581651
vt 0.547767 0.128216
vt 0.535552 0.222171
vt 0.505914 0.145848
vt 0.470163 0.172419
vt 0.470163 0.060573
vt 0.368303 0.712480
vt 0.319054 0.647094
vt 0.395364 0.676802
vt 0.413377 0.635159
vt 0.480733 0.712480
vt 0.273173 0.675625
vt 0.383054 0.729717
vt 0.282329 0.706967
vt 0.240659 0.729717
vt 0.232450 0.692813
s 1
usemtl Material.004
f 1/1/1 15/2/1 104/3/1
f 1/4/2 43/5/2 62/6/2
f 1/4/3 62/6/3 15/7/3
f 1/1/4 104/3/5 43/8/6
f 2/9/7 3/10/7 39/11/7
f 2/9/8 11/12/8 111/13/8
f 2/9/9 23/14/9 11/12/9
f 2/9/10 39/11/10 102/15/10
f 2/9/11 94/16/11 23/14/11
f 2/9/12 102/15/12 94/16/12
f 2/9/13 111/13/13 3/10/13
f 3/10/14 37/17/14 71/18/14
f 3/10/15 55/19/15 91/20/15
f 3/10/16 71/18/16 99/21/16
f 3/10/17 91/20/17 37/17/17
f 3/10/18 99/21/18 39/11/18
f 3/10/19 109/22/19 55/19/19
f 3/10/20 111/13/20 109/22/20
f 4/23/21 18/24/21 76/25/21
f 4/23/22 40/26/22 65/27/22
f 4/23/23 60/28/23 18/24/23
f 4/23/24 65/27/24 88/29/24
f 4/23/25 76/25/25 40/26/25
f 4/23/26 88/29/26 60/28/26
f 5/30/27 20/31/27 36/32/27
f 5/30/28 36/32/28 77/33/28
f 5/30/29 56/34/29 20/31/29
f 5/30/30 77/33/30 81/35/30
f 5/30/31 81/35/31 56/34/31
f 6/36/32 34/37/32 50/38/32
f 6/36/33 46/39/33 94/16/33
f 6/36/34 50/38/35 46/39/36
f 6/36/37 94/16/37 102/15/37
f 6/36/38 102/15/38 34/37/38
f 7/40/39 21/41/39 35/42/39
f 7/40/40 35/42/40 93/43/40
f 7/44/41 49/45/41 21/46/41
f 7/44/42 93/47/42 49/45/42
f 8/48/43 17/49/44 92/50/45
f 9/51/46 32/52/46 49/45/46
f 9/53/47 45/54/47 63/55/47
f 9/51/48 49/45/48 93/47/48
f 9/53/49 63/55/49 32/56/49
f 9/51/50 93/47/50 45/57/50
f 10/58/51 28/59/51 66/60/51
f 10/58/52 44/61/52 100/62/52
f 10/58/53 46/39/36 50/38/35
f 10/58/54 50/38/54 28/59/54
f 10/58/55 66/60/55 44/61/55
f 10/58/56 86/63/56 46/39/56
f 10/58/57 100/62/57 86/63/57
f 11/12/58 23/14/58 110/64/58
f 11/12/59 47/65/60 87/66/61
f 11/12/62 79/67/62 47/65/62
f 11/12/59 87/66/61 111/13/63
f 11/12/64 107/68/64 79/67/64
f 11/12/65 110/64/65 107/68/65
f 12/69/66 24/70/66 34/37/66
f 12/69/67 34/37/67 68/71/67
f 12/72/68 48/73/68 80/74/68
f 12/72/69 68/75/69 48/73/69
f 12/72/70 80/74/70 96/76/70
f 12/72/71 96/76/71 108/77/71
f 12/72/72 108/77/72 24/78/72
f 13/79/73 31/80/73 69/81/73
f 13/79/74 47/82/74 81/35/74
f 13/79/75 53/83/75 109/84/75
f 13/79/76 61/85/76 47/82/76
f 13/79/77 69/81/77 61/85/77
f 13/79/78 81/35/78 53/83/78
f 13/79/79 109/84/79 31/80/79
f 14/86/80 42/87/80 90/88/80
f 14/89/81 60/90/81 98/91/81
f 14/86/82 83/92/82 42/87/82
f 14/86/83 90/88/83 60/93/83
f 14/89/84 98/91/85 83/94/86
f 15/2/87 29/95/87 104/3/87
f 15/7/88 62/6/88 71/18/88
f 15/2/89 71/96/89 29/95/89
f 16/97/90 20/31/90 72/98/90
f 16/97/91 36/32/91 20/31/91
f 16/97/92 64/99/92 36/32/92
f 16/97/93 72/98/93 100/100/93
f 16/97/94 100/100/94 64/99/94
f 17/49/95 105/101/95 92/50/95
f 18/102/96 60/93/96 90/88/96
f 18/102/97 90/88/97 76/103/97
f 19/104/98 59/105/98 103/106/98
f 20/31/99 33/107/100 65/27/101
f 20/31/102 40/26/102 72/98/102
f 20/31/99 56/34/103 33/107/100
f 20/31/104 65/27/104 40/26/104
f 21/46/105 49/45/106 101/108/107
f 21/41/108 79/67/109 107/68/110
f 21/46/105 101/108/107 79/109/111
f 21/41/108 107/68/110 35/42/112
f 22/110/113 38/111/113 75/112/113
f 23/14/114 74/113/114 110/64/114
f 23/14/115 94/16/115 74/113/115
f 24/70/116 50/38/117 34/37/118
f 24/70/116 106/114/119 50/38/117
f 24/70/120 108/115/120 106/114/120
f 25/116/121 89/117/121 97/118/121
f 26/119/122 62/6/122 85/120/122
f 26/119/123 78/121/123 62/6/123
f 26/122/124 85/123/124 104/3/124
f 26/122/125 104/3/125 78/124/125
f 27/125/126 35/42/126 107/68/126
f 27/125/127 42/87/127 35/42/127
f 27/125/128 74/113/128 42/87/128
f 27/125/129 107/68/129 110/64/129
f 27/125/130 110/64/130 74/113/130
f 28/59/131 50/38/131 108/115/131
f 28/126/132 84/127/132 66/128/132
f 28/126/133 108/77/133 84/127/133
f 29/95/134 48/73/134 104/3/134
f 29/95/135 57/129/136 80/74/137
f 29/95/138 71/96/138 73/130/138
f 29/95/139 73/130/139 57/129/139
f 29/95/135 80/74/137 48/73/140
f 30/131/141 54/132/141 74/113/141
f 30/131/142 58/133/142 54/132/142
f 30/131/143 74/113/143 86/63/143
f 30/131/144 86/63/144 100/62/144
f 30/131/145 100/62/145 58/133/145
f 31/134/146 87/66/146 69/135/146
f 31/134/147 109/22/147 87/66/147
f 32/56/148 63/55/148 95/136/148
f 32/52/149 65/27/149 49/45/149
f 32/52/150 88/29/150 65/27/150
f 32/56/151 95/136/151 88/137/151
f 33/107/152 49/45/152 65/27/152
f 33/107/153 56/34/153 101/108/153
f 33/107/154 101/108/154 49/45/154
f 34/37/155 82/138/155 68/71/155
f 34/37/156 102/15/156 82/138/156
f 35/42/157 42/87/157 83/92/157
f 35/42/158 70/139/158 93/43/158
f 35/42/159 83/92/159 70/139/159
f 36/32/160 64/99/160 96/76/160
f 36/32/161 80/74/161 77/33/161
f 36/32/162 96/76/162 80/74/162
f 37/140/163 73/130/163 71/96/163
f 37/140/164 91/141/164 73/130/164
f 38/111/165 51/142/165 75/112/165
f 39/11/166 99/21/166 102/15/166
f 40/26/167 58/143/167 72/98/167
f 40/26/168 76/25/168 58/143/168
f 41/144/169 97/118/169 89/117/169
f 42/87/170 54/132/170 90/88/170
f 42/87/171 74/113/171 54/132/171
f 43/5/172 85/120/172 62/6/172
f 43/8/6 104/3/5 85/123/173
f 44/145/174 66/128/174 84/127/174
f 44/145/175 84/127/175 100/100/175
f 45/54/176 70/146/176 63/55/176
f 45/147/177 93/43/177 70/139/177
f 46/39/178 86/63/178 94/16/178
f 47/65/179 61/148/179 87/66/179
f 47/82/180 79/109/180 81/35/180
f 48/73/181 68/75/181 104/3/181
f 50/38/182 106/114/182 108/115/182
f 52/149/183 62/6/183 78/121/183
f 52/149/184 68/71/184 62/6/184
f 52/150/185 78/124/185 104/3/185
f 52/150/186 104/3/186 68/75/186
f 53/83/187 73/130/187 109/84/187
f 53/83/188 77/33/188 73/130/188
f 53/83/189 81/35/189 77/33/189
f 54/132/190 58/133/190 76/103/190
f 54/132/191 76/103/191 90/88/191
f 55/151/192 73/130/192 91/141/192
f 55/151/193 109/84/193 73/130/193
f 56/34/194 81/35/194 101/108/194
f 57/129/195 73/130/195 77/33/195
f 57/129/196 77/33/196 80/74/196
f 58/143/197 100/100/197 72/98/197
f 59/105/198 67/152/198 103/106/198
f 60/90/199 88/137/199 98/91/199
f 61/148/200 69/135/200 87/66/200
f 62/6/201 68/71/201 82/138/201
f 62/6/202 82/138/202 99/21/202
f 62/6/203 99/21/203 71/18/203
f 63/55/204 70/146/204 83/94/204
f 63/55/205 83/94/205 95/136/205
f 64/99/206 84/127/206 108/77/206
f 64/99/207 100/100/207 84/127/207
f 64/99/208 108/77/208 96/76/208
f 74/113/209 94/16/209 86/63/209
f 79/109/210 101/108/210 81/35/210
f 82/138/211 102/15/211 99/21/211
f 83/94/86 98/91/85 95/136/212
f 87/66/213 109/22/213 111/13/213
f 88/137/214 95/136/214 98/91/214
f 59/153/215 19/154/216 112/155/217
f 19/154/218 103/156/219 112/155/220
f 103/156/219 67/157/221 112/155/220
f 67/157/222 59/153/215 112/155/217
f 38/158/223 22/159/224 113/160/225
f 22/159/226 75/161/227 113/160/228
f 75/161/227 51/162/229 113/160/228
f 51/162/230 38/158/223 113/160/225
f 17/163/231 8/164/232 114/165/233
f 8/164/43 92/166/45 114/165/234
f 92/166/235 105/167/235 114/165/235
f 105/167/236 17/163/231 114/165/233
f 89/168/237 25/169/238 115/170/239
f 25/169/240 97/171/241 115/170/242
f 97/171/241 41/172/243 115/170/242
f 41/172/244 89/168/237 115/170/239
