# Blender 4.4.0
# www.blender.org
mtllib Meshy_AI_Ruby_Mosaic_Heart_0825070523_texture.mtl
o Meshy_AI_Ruby_Mosaic_Heart_0825070523_texture
v -0.000366 0.148438 0.028320
v 0.242188 -0.021362 -0.028320
v -0.257812 0.371094 0.028320
v -0.126953 0.067871 0.028687
v 0.435547 0.388672 -0.030762
v 0.094727 -0.222656 0.029297
v -0.382812 0.225586 -0.026855
v -0.241211 -0.020996 0.028076
v 0.259766 0.369141 -0.027954
v 0.244141 -0.197266 0.029663
v -0.128906 0.226562 -0.028198
v -0.112305 -0.107422 -0.027832
v 0.384766 0.298828 0.028076
v -0.000225 0.068359 -0.028442
v -0.365234 0.455078 0.031982
v -0.500000 0.141602 -0.030273
v 0.131836 0.453125 0.029663
v 0.330078 -0.022095 -0.027466
v -0.161133 0.371094 0.028076
v 0.000139 -0.261719 0.028564
v 0.500000 0.222656 -0.031250
v 0.121582 -0.019653 0.028320
v -0.347656 0.386719 -0.028809
v -0.330078 -0.021851 0.029175
v 0.132812 0.296875 -0.027832
v 0.500000 0.140625 0.029175
v -0.063965 0.388672 -0.029663
v -0.242188 -0.021606 -0.027832
v 0.257812 0.369141 0.028687
v -0.001884 -0.455078 -0.030762
v -0.500000 0.140625 0.030396
v -0.376953 0.065430 0.029053
v 0.063965 0.388672 -0.030029
v -0.257812 0.147461 -0.027588
v -0.095703 -0.222656 -0.028442
v 0.500000 0.224609 0.030762
v 0.127930 0.068359 -0.028564
v -0.345703 0.388672 0.029419
v -0.246094 -0.198242 -0.029663
v 0.259766 0.147461 0.028076
v 0.500000 0.061279 -0.030029
v -0.063477 0.386719 0.030273
v -0.129883 0.148438 0.028320
v 0.365234 0.455078 -0.029541
v 0.114258 -0.107422 0.028442
v -0.382812 0.298828 -0.027588
v -0.404297 -0.025146 0.030518
v 0.162109 0.369141 -0.027954
v 0.382812 0.147461 -0.027710
v -0.202148 0.455078 -0.028320
v -0.120605 -0.019775 -0.028198
v 0.500000 0.306641 0.031128
v 0.166016 -0.281250 -0.030151
v -0.382812 0.224609 0.029053
v -0.373047 0.065918 -0.028076
v 0.202148 0.455078 0.029785
v 0.320312 -0.115234 0.031006
v -0.132812 0.298828 0.028076
v -0.082031 -0.369141 0.029663
v 0.257812 0.225586 -0.027710
v -0.000204 -0.020386 0.028442
v -0.500000 0.306641 -0.030029
v -0.500000 0.062256 0.031006
v 0.133789 0.453125 -0.028687
v 0.216797 -0.107910 0.027466
v -0.259766 0.296875 -0.027588
v -0.001457 -0.455078 0.030273
v 0.382812 0.148438 0.028076
v 0.113281 -0.106934 -0.028076
v -0.382812 0.298828 0.029175
v -0.216797 -0.107422 -0.027344
v 0.259766 0.296875 0.028442
v 0.500000 0.140625 -0.031250
v -0.132812 0.451172 0.030640
v -0.121582 -0.019287 0.028198
v 0.347656 0.386719 -0.028198
v 0.081543 -0.369141 0.030518
v -0.500000 0.223633 -0.030518
v -0.320312 -0.115234 0.030884
v 0.129883 0.225586 -0.027466
v 0.378906 0.065430 0.028809
v -0.132812 0.453125 -0.029785
v 0.000418 0.148438 -0.027954
v 0.435547 0.388672 0.030396
v 0.215820 -0.107910 -0.028320
v -0.259766 0.298828 0.027588
v -0.330078 -0.021484 -0.028076
v 0.162109 0.367188 0.028809
v 0.322266 -0.114746 -0.029907
v -0.129883 0.224609 0.027832
v -0.219727 -0.106445 0.027954
v 0.259766 0.296875 -0.027344
v -0.000443 0.068359 0.028442
v -0.435547 0.388672 -0.029175
v -0.406250 -0.024536 -0.029053
v 0.000347 0.226562 0.028076
v 0.253906 0.067383 -0.028198
v -0.271484 0.453125 0.030396
v -0.114258 -0.106934 0.027954
v 0.384766 0.298828 -0.028320
v 0.082031 -0.369141 -0.030396
v -0.384766 0.147461 -0.027710
v -0.251953 0.066895 0.028442
v 0.271484 0.455078 -0.029297
v 0.404297 -0.025635 0.030151
v 0.000610 0.226562 -0.028076
v -0.082031 -0.371094 -0.030640
v 0.382812 0.223633 0.028687
v 0.121094 -0.019653 -0.028442
v -0.435547 0.388672 0.032227
v -0.443359 0.066406 -0.028809
v 0.063965 0.388672 0.030396
v 0.244141 -0.196289 -0.030273
v -0.257812 0.224609 0.027832
v -0.000030 -0.179688 0.027466
v 0.500000 0.308594 -0.030518
v 0.251953 0.066895 0.028198
v -0.269531 0.455078 -0.028931
v -0.245117 -0.198242 0.030151
v 0.129883 0.149414 -0.027710
v 0.328125 -0.021240 0.028931
v -0.162109 0.369141 -0.027222
v -0.251953 0.067383 -0.028076
v 0.269531 0.453125 0.029907
v 0.000496 -0.141602 -0.028687
v -0.500000 0.310547 0.031006
v -0.500000 0.062256 -0.030029
v -0.000254 0.314453 0.029297
v -0.257812 0.147461 0.028320
v -0.095215 -0.221680 0.028687
v 0.384766 0.224609 -0.027344
v 0.126953 0.067871 0.028198
v -0.363281 0.455078 -0.028931
v -0.165039 -0.281250 0.030151
v 0.257812 0.147461 -0.027832
v 0.500000 0.061035 0.030640
v -0.000084 0.316406 -0.028564
v -0.126953 0.067871 -0.027832
v 0.345703 0.386719 0.029419
v 0.000496 -0.263672 -0.029175
v -0.500000 0.224609 0.031250
v -0.322266 -0.116211 -0.028931
v 0.132812 0.287109 0.028320
v 0.375000 0.065430 -0.028442
v -0.202148 0.455078 0.030151
v -0.000032 -0.107910 0.027832
v 0.498047 0.335938 -0.028687
v 0.166992 -0.279297 0.030396
v -0.257812 0.223633 -0.026978
v -0.382812 0.147461 0.029053
v 0.202148 0.451172 -0.028687
v 0.402344 -0.025269 -0.030640
v -0.131836 0.296875 -0.027466
v -0.166992 -0.281250 -0.030396
v 0.257812 0.224609 0.028442
v 0.000121 -0.020752 -0.028320
v -0.500000 0.337891 0.030640
v 0.129883 0.148438 0.027954
v 0.241211 -0.021362 0.028076
v -0.259766 0.369141 -0.026978
v -0.128906 0.149414 -0.027588
v 0.363281 0.453125 0.030640
v 0.096191 -0.222656 -0.028320
vn 0.0016 0.0027 1.0000
vn 0.0008 -0.0053 1.0000
vn 0.0008 -0.0025 1.0000
vn -0.0007 0.0029 1.0000
vn 0.0016 -0.0000 1.0000
vn -0.0012 0.0055 1.0000
vn 0.0006 0.0035 1.0000
vn 0.0099 0.0255 -0.9996
vn 0.0006 -0.0008 -1.0000
vn -0.0005 -0.0007 -1.0000
vn 0.0061 0.0072 -1.0000
vn -0.0021 -0.0037 -1.0000
vn -0.0013 -0.0006 -1.0000
vn -0.0146 0.0045 -0.9999
vn -0.0148 0.0048 -0.9999
vn -0.0186 0.0170 -0.9997
vn 0.0097 0.0001 -1.0000
vn 0.0029 -0.0244 0.9997
vn -0.0130 -0.0329 0.9994
vn 0.0051 -0.0239 0.9997
vn 0.0123 -0.0085 0.9999
vn 0.0110 -0.0073 0.9999
vn 0.0135 -0.0082 0.9999
vn 0.0020 -0.0009 1.0000
vn 0.0016 -0.0089 1.0000
vn 0.0074 -0.0240 0.9997
vn 0.0077 -0.0240 0.9997
vn -0.0009 -0.0049 1.0000
vn -0.0004 -0.0011 1.0000
vn -0.0020 0.0030 1.0000
vn 0.6866 0.7270 -0.0000
vn 0.6009 0.7254 0.3357
vn -0.0289 -0.0122 -0.9995
vn 0.7863 0.6178 -0.0000
vn -0.0275 -0.0718 -0.9970
vn -0.0111 0.0123 0.9999
vn -0.0036 0.0086 1.0000
vn -0.0093 0.0093 0.9999
vn -0.0069 0.0111 0.9999
vn -0.0054 0.0083 1.0000
vn -0.0061 0.0096 0.9999
vn -0.0133 0.0134 0.9998
vn -0.0216 -0.0051 0.9998
vn 0.0313 -0.0042 -0.9995
vn 0.0313 -0.0030 -0.9995
vn 0.0314 -0.0087 -0.9995
vn -0.0010 -0.0087 -1.0000
vn -0.0002 -0.0100 -0.9999
vn -0.0000 -0.0009 -1.0000
vn 0.0008 -0.0084 -1.0000
vn 0.0314 -0.0100 -0.9995
vn 0.0217 0.0104 -0.9997
vn -0.0008 0.0110 -0.9999
vn -0.0016 0.0123 -0.9999
vn 0.0068 0.0098 -0.9999
vn 0.0132 -0.0005 0.9999
vn 0.0092 0.0001 1.0000
vn 0.0100 -0.0003 1.0000
vn -0.0074 -0.0059 -1.0000
vn -0.0001 -0.0088 -1.0000
vn -0.0067 -0.0126 -0.9999
vn -0.0030 0.0001 -1.0000
vn -0.0068 0.0003 -1.0000
vn -0.0042 -0.0134 -0.9999
vn -0.0007 -0.0182 -0.9998
vn 0.0005 -0.0161 -0.9999
vn -0.0020 0.0108 0.9999
vn -0.0332 0.0144 0.9993
vn -0.0343 0.0029 0.9994
vn -0.0336 0.0140 0.9993
vn 0.0096 0.0275 0.9996
vn 0.7325 -0.6805 0.0180
vn 0.7226 -0.6911 -0.0114
vn 0.7278 -0.6857 -0.0113
vn 0.7221 -0.6917 -0.0113
vn 0.7284 -0.6851 -0.0112
vn -0.0098 0.0087 -0.9999
vn -0.0041 0.0035 -1.0000
vn 0.0005 -0.0062 -1.0000
vn 0.0015 0.0008 -1.0000
vn -0.0006 0.0041 -1.0000
vn 0.0049 -0.0052 -1.0000
vn -0.0098 0.0100 -0.9999
vn 0.0001 -0.0079 -1.0000
vn -0.0041 -0.0039 -1.0000
vn -0.0052 0.0045 -1.0000
vn -0.0055 0.0020 -1.0000
vn -0.0031 -0.0054 -1.0000
vn -0.0010 -0.0050 -1.0000
vn 0.0050 0.0058 -1.0000
vn 0.0030 -0.0033 1.0000
vn -0.0011 -0.0144 0.9999
vn -0.0000 -0.0049 1.0000
vn -0.0262 -0.0052 0.9996
vn -0.0262 -0.0045 0.9996
vn -0.0258 -0.0106 0.9996
vn -0.0257 -0.0113 0.9996
vn 0.0028 0.0081 1.0000
vn -0.0053 -0.0176 0.9998
vn -0.0103 -0.0159 0.9998
vn -0.0095 -0.0142 0.9999
vn -0.0178 0.0086 0.9998
vn -0.0048 -0.0174 0.9998
vn -0.0020 -0.0011 -1.0000
vn -0.0037 -0.0003 -1.0000
vn -0.0014 0.0076 -1.0000
vn 0.0162 -0.0338 0.9993
vn -0.6866 0.7270 -0.0000
vn 0.0208 0.9998 0.0007
vn 0.0312 -0.0294 0.9991
vn 0.0310 -0.0284 0.9991
vn 0.0305 -0.0159 0.9994
vn -0.6764 0.7362 -0.0217
vn -1.0000 -0.0000 -0.0000
vn 0.0224 -0.0026 -0.9997
vn 0.0218 -0.0031 -0.9998
vn -0.6886 0.7251 -0.0000
vn -0.0278 0.9996 -0.0009
vn -0.6779 0.7348 -0.0227
vn -0.0014 -0.0104 0.9999
vn -0.0021 -0.0064 1.0000
vn -0.0002 -0.0142 0.9999
vn 0.0152 -0.0046 0.9999
vn -0.0022 -0.0100 -0.9999
vn -0.0434 0.0111 -0.9990
vn -0.0425 0.0299 -0.9986
vn -0.0184 -0.0255 0.9995
vn -0.0181 -0.0254 0.9995
vn -0.0212 -0.0083 0.9997
vn -0.0038 -0.0015 1.0000
vn 0.0018 0.0088 1.0000
vn -0.0052 0.0089 0.9999
vn 0.0065 0.0133 0.9999
vn 0.0069 0.0134 0.9999
vn 0.0098 0.0140 0.9999
vn 0.0140 0.0081 0.9999
vn 1.0000 -0.0000 -0.0000
vn -0.0339 -0.0000 -0.9994
vn -0.0304 0.0050 -0.9995
vn -0.0336 0.0006 -0.9994
vn -0.0198 0.0085 -0.9998
vn -0.0341 -0.0131 -0.9993
vn 0.0040 -0.0042 1.0000
vn 0.0095 0.0006 1.0000
vn 0.0088 -0.0000 1.0000
vn -0.0016 -0.0062 1.0000
vn -0.0047 -0.0062 1.0000
vn 0.0030 0.0003 1.0000
vn 0.0038 -0.0154 -0.9999
vn 0.0002 -0.0016 -1.0000
vn 0.0041 -0.0008 -1.0000
vn 0.0038 -0.0008 -1.0000
vn 0.0167 -0.0207 -0.9996
vn 0.0167 -0.0208 -0.9996
vn -0.0000 -0.0018 -1.0000
vn 0.0167 -0.0206 -0.9996
vn 0.0176 0.0116 0.9998
vn 0.0166 0.0087 0.9998
vn 0.0169 0.0179 0.9997
vn 0.0172 0.0201 0.9997
vn 0.0332 0.0214 0.9992
vn 0.0338 0.0218 0.9992
vn 0.0292 0.0197 0.9994
vn 0.0052 0.0022 1.0000
vn 0.0203 0.0183 0.9996
vn 0.0192 -0.0095 -0.9998
vn 0.0195 -0.0091 -0.9998
vn 0.0209 -0.0023 -0.9998
vn 0.0021 0.0016 -1.0000
vn 0.0038 -0.0032 -1.0000
vn 0.0034 -0.0007 -1.0000
vn 0.0010 -0.0015 -1.0000
vn 0.0002 -0.0060 -1.0000
vn 0.0022 -0.0222 -0.9998
vn -0.0107 -0.0094 0.9999
vn -0.0175 -0.0189 0.9997
vn -0.0167 -0.0179 0.9997
vn -0.0088 0.0092 0.9999
vn -0.0013 -0.0008 1.0000
vn -0.0055 0.0022 1.0000
vn -0.0144 0.0184 0.9997
vn -0.0147 0.0161 0.9998
vn -0.0146 0.0117 0.9998
vn -0.0099 -0.0081 0.9999
vn 0.7492 0.6619 0.0232
vn 0.7526 0.6583 0.0153
vn 0.7521 0.6589 0.0164
vn 0.6833 0.7299 0.0182
vn 0.6830 0.7302 0.0188
vn 0.6810 0.7319 0.0230
vn -0.0202 -0.0235 -0.9995
vn -0.0217 -0.0231 -0.9995
vn -0.0210 -0.0232 -0.9995
vn 0.7488 0.6623 0.0246
vn -0.0054 -0.0200 -0.9998
vn -0.0236 -0.0065 -0.9997
vn 0.0022 0.0097 -1.0000
vn 0.0015 0.0103 -0.9999
vn 0.0091 0.0095 -0.9999
vn -0.0018 0.0016 -1.0000
vn 0.0504 0.0092 -0.9987
vn 0.0023 -0.0042 -1.0000
vn 0.0033 -0.0011 -1.0000
vn 0.0030 0.0092 -1.0000
vn -0.0070 -0.0154 0.9999
vn -0.7232 -0.6902 0.0224
vn -0.7236 -0.6899 0.0224
vn -0.7265 -0.6867 0.0231
vn -0.7295 -0.6839 0.0051
vn 0.7155 -0.6986 -0.0050
vn 0.7171 -0.6970 -0.0011
vn 0.7187 -0.6953 0.0040
vn 0.0015 0.0083 -1.0000
vn 0.0069 0.0188 -0.9998
vn 0.0028 0.0028 -1.0000
vn 0.0019 0.0130 -0.9999
vn 0.0111 0.0008 0.9999
vn 0.0114 0.0008 0.9999
vn 0.0073 0.0038 1.0000
vn 0.0117 -0.0067 0.9999
vn 0.0176 0.0012 0.9998
vn 0.0157 0.0078 0.9998
vn 0.0157 0.0109 0.9998
vn 0.0028 0.0039 1.0000
vn 0.0208 -0.0017 -0.9998
vn -0.7484 0.6633 -0.0000
vn 0.0003 0.0060 -1.0000
vn 0.0059 0.0107 -0.9999
vn 0.0125 0.0215 -0.9997
vn 0.0119 0.0210 -0.9997
vn 0.0018 0.0011 -1.0000
vn 0.0312 -0.0156 0.9994
vn 0.0131 0.0213 -0.9997
vn -0.7322 -0.6802 0.0350
vn -0.7321 -0.6803 0.0349
vn -0.7317 -0.6807 0.0350
vn -0.7410 -0.6714 0.0121
vn -0.7238 -0.6899 0.0118
vn -0.7225 -0.6912 0.0147
vn -0.7201 -0.6935 0.0214
vn -0.0029 0.0044 1.0000
vn -0.0004 -0.0060 1.0000
vn -0.0050 0.0048 1.0000
vn -0.0033 -0.0090 1.0000
vn -0.0311 -0.0154 -0.9994
vn 0.6631 -0.7481 -0.0258
vn 0.6713 -0.7412 -0.0030
vn -0.0125 0.0107 -0.9999
vn -0.0122 0.0201 -0.9997
vn -0.0124 0.0101 -0.9999
vn -0.0120 0.0206 -0.9997
vn -0.0069 -0.0195 0.9998
vn 0.6807 0.7322 0.0237
vn -0.0028 0.0079 1.0000
vn -0.0026 -0.0190 -0.9998
vn 0.0001 0.9995 0.0324
vn -0.0001 0.9995 0.0328
vn -0.0000 0.9995 0.0326
vn 0.6650 0.7454 0.0458
vn -0.0053 -0.0070 1.0000
vn 0.0212 0.0048 -0.9998
vn 0.0206 -0.0046 -0.9998
vn 0.0204 -0.0057 -0.9998
vn 0.0212 0.0059 -0.9998
vn 0.0001 0.0084 -1.0000
vn -0.0002 0.0082 -1.0000
vn -0.0022 0.0083 -1.0000
vn -0.6742 -0.7384 0.0145
vn -0.7373 -0.6754 0.0173
vn -0.7311 -0.6814 0.0350
vn -0.0003 -0.0088 -1.0000
vn 0.0016 0.0028 -1.0000
vn 0.0029 0.0051 -1.0000
vn -0.0299 0.0055 -0.9995
vn -0.0007 0.0064 -1.0000
vn -0.0015 0.0052 -1.0000
vn 0.0288 0.9991 0.0323
vn -0.0218 -0.0229 -0.9995
vn -0.0000 1.0000 -0.0000
vn 0.0094 -0.0208 -0.9997
vn -0.0025 -0.0139 -0.9999
vn 0.0083 -0.0210 -0.9997
vn 0.0562 0.9984 -0.0000
vn 0.0091 -0.0217 -0.9997
vn 0.9975 0.0711 0.0023
vn -0.0023 0.0112 -0.9999
vn 0.7233 -0.6905 0.0066
vn 0.7238 -0.6900 0.0088
vn -0.0190 0.0160 -0.9997
vn -0.0145 0.0175 -0.9997
vn -0.0203 0.0071 -0.9998
vn -0.0133 0.0155 -0.9998
vn -0.0146 0.0139 -0.9998
vn 0.7361 -0.6768 0.0100
vn 0.7246 -0.6891 0.0105
vn -0.0218 0.0053 -0.9997
vn 0.0039 -0.0026 1.0000
vn 0.0086 0.0034 1.0000
vn 0.0177 0.0101 -0.9998
vn 0.0103 0.0063 -0.9999
vn 0.0288 0.9974 -0.0666
vn 0.0290 0.9974 -0.0666
vn 0.0287 0.9974 -0.0666
vn 0.0285 0.9974 -0.0666
vn 0.7451 -0.6667 0.0186
vn -0.0145 0.0234 0.9996
vn -0.0147 0.0233 0.9996
vn -0.0124 0.0231 0.9997
vn -0.0099 0.0229 0.9997
vn 0.7292 -0.6838 -0.0275
vn -0.0340 0.0025 0.9994
vn -0.0021 0.0016 1.0000
vn -0.0088 -0.0036 1.0000
vn 0.0142 0.0079 0.9999
vn -0.7266 -0.6867 0.0225
vn -0.0000 -0.0058 1.0000
vn 0.0010 0.0050 1.0000
vn -0.7863 0.6178 -0.0000
vn -0.5674 0.7320 -0.3771
vn -0.6794 -0.7338 -0.0000
vn 0.0010 0.0038 -1.0000
vn 0.0011 -0.0064 -1.0000
vn -0.0025 0.0084 -1.0000
vn -0.0020 -0.0081 1.0000
vn -0.0020 -0.0015 1.0000
vn 0.0047 0.0017 -1.0000
vn 0.0051 0.0065 -1.0000
vn 0.0015 -0.0331 0.9995
vn 0.0159 0.0028 0.9999
vn 0.0170 0.0134 0.9998
vn 0.0132 -0.0107 0.9999
vn -0.0017 0.0001 1.0000
vn -0.0032 -0.0000 -1.0000
vn -0.0151 0.0105 0.9998
vn -0.0094 0.0002 1.0000
vn -0.0154 0.0104 0.9998
vn -0.0091 -0.0160 0.9998
vn 0.0124 0.0100 -0.9999
vn 0.0137 -0.0111 0.9998
vn -0.0017 -0.0139 0.9999
vn 0.0021 -0.0052 1.0000
vn -0.0012 -0.0140 0.9999
vn 0.0193 0.0186 0.9996
vn 0.0001 0.0126 0.9999
vn 0.0068 0.0106 0.9999
vn 0.0111 0.0094 0.9999
vn -0.0076 -0.0131 -0.9999
vn 0.0207 0.0111 -0.9997
vn -0.0000 0.9995 0.0329
vn -0.0280 0.9991 0.0320
vn 0.0011 0.0066 1.0000
vn 0.0136 0.0086 0.9999
vn -0.0245 0.0650 -0.9976
vn -0.0003 0.9995 0.0330
vn -0.0559 0.9980 0.0311
vn 0.0036 -0.0180 0.9998
vn -0.7562 0.6540 0.0199
vn 0.0151 -0.0051 0.9999
vt 0.310587 0.693057
vt 0.330452 0.798479
vt 0.269520 0.734674
vt 0.373652 0.759899
vt 0.204797 0.673820
vt 0.350635 0.651701
vt 0.242882 0.630281
vt 0.652529 0.098959
vt 0.612653 0.053331
vt 0.661917 0.012543
vt 0.660344 0.201798
vt 0.601751 0.135976
vt 0.708090 0.069288
vt 0.708641 0.160878
vt 0.553069 0.728385
vt 0.508522 0.673880
vt 0.574872 0.661463
vt 0.602495 0.770262
vt 0.570027 0.829766
vt 0.514241 0.760883
vt 0.605329 0.701128
vt 0.338342 0.901042
vt 0.283151 0.839540
vt 0.388377 0.863922
vt 0.576525 0.590771
vt 0.619457 0.643650
vt 0.543191 0.618271
vt 0.495999 0.561361
vt 0.540473 0.545761
vt 0.349170 0.180577
vt 0.389304 0.229190
vt 0.343468 0.248255
vt 0.350325 0.122901
vt 0.075324 0.836878
vt 0.102107 0.902536
vt 0.008008 0.915791
vt 0.123831 0.769984
vt 0.179647 0.824963
vt 0.011194 0.829805
vt 0.143470 0.861240
vt 0.854266 0.525107
vt 0.956894 0.530726
vt 0.921432 0.574380
vt 0.822925 0.564880
vt 0.753608 0.509541
vt 0.784665 0.468781
vt 0.889620 0.484275
vt 0.378365 0.947009
vt 0.285540 0.932425
vt 0.438824 0.270959
vt 0.484041 0.325899
vt 0.419259 0.338228
vt 0.420577 0.170430
vt 0.478455 0.239419
vt 0.385309 0.301117
vt 0.014097 0.752840
vt 0.016251 0.678152
vt 0.072384 0.721880
vt 0.195077 0.253444
vt 0.281421 0.280566
vt 0.249883 0.309936
vt 0.225141 0.223450
vt 0.137729 0.200044
vt 0.711209 0.411241
vt 0.819229 0.428081
vt 0.640969 0.348331
vt 0.748291 0.370030
vt 0.594334 0.396609
vt 0.680305 0.450830
vt 0.866966 0.228789
vt 0.916291 0.162748
vt 0.919421 0.277728
vt 0.827250 0.277525
vt 0.767697 0.219604
vt 0.828472 0.157457
vt 0.169544 0.433856
vt 0.271472 0.451287
vt 0.239501 0.490564
vt 0.072682 0.423950
vt 0.107480 0.379646
vt 0.178313 0.362424
vt 0.138087 0.475324
vt 0.228802 0.402487
vt 0.722573 0.265897
vt 0.787152 0.326142
vt 0.681320 0.307336
vt 0.648184 0.753173
vt 0.268220 0.242473
vt 0.344881 0.268224
vt 0.311080 0.295393
vt 0.227371 0.190634
vt 0.300832 0.214356
vt 0.642424 0.820920
vt 0.474531 0.408366
vt 0.444479 0.438971
vt 0.402405 0.397417
vt 0.958109 0.466487
vt 0.991340 0.487851
vt 0.513709 0.448593
vt 0.433700 0.366952
vt 0.693795 0.797861
vt 0.770799 0.812178
vt 0.743251 0.844628
vt 0.659754 0.759907
vt 0.722527 0.768076
vt 0.378308 0.459355
vt 0.325231 0.495844
vt 0.338876 0.427443
vt 0.390608 0.528365
vt 0.547729 0.070574
vt 0.582476 0.013950
vt 0.472394 0.611740
vt 0.541958 0.623927
vt 0.454720 0.689311
vt 0.089113 0.996965
vt 0.006193 0.999813
vt 0.168763 0.928986
vt 0.485177 0.488232
vt 0.414117 0.476877
vt 0.444648 0.447012
vt 0.455043 0.520080
vt 0.410357 0.072785
vt 0.453417 0.036356
vt 0.460225 0.137676
vt 0.364464 0.110093
vt 0.527618 0.531366
vt 0.164107 0.721667
vt 0.224131 0.780286
vt 0.102217 0.666957
vt 0.766201 0.598397
vt 0.815935 0.637161
vt 0.747532 0.643947
vt 0.693374 0.603465
vt 0.723088 0.549933
vt 0.444285 0.931204
vt 0.409337 0.987416
vt 0.328092 0.987946
vt 0.252564 0.990919
vt 0.538244 0.310842
vt 0.518363 0.389958
vt 0.517478 0.208331
vt 0.577617 0.278682
vt 0.036072 0.468453
vt 0.104733 0.515258
vt 0.069570 0.560504
vt 0.000951 0.511023
vt 0.374113 0.437253
vt 0.144418 0.041852
vt 0.116306 0.073386
vt 0.063804 0.031804
vt 0.194836 0.088133
vt 0.602211 0.472862
vt 0.667039 0.505944
vt 0.615669 0.542288
vt 0.089216 0.000187
vt 0.890293 0.332496
vt 0.979041 0.246304
vt 0.977528 0.321461
vt 0.936373 0.371999
vt 0.853247 0.383233
vt 0.299766 0.398299
vt 0.887240 0.781916
vt 0.793579 0.773463
vt 0.818623 0.739113
vt 0.865138 0.818511
vt 0.022305 0.066275
vt 0.095294 0.112075
vt 0.000187 0.102872
vt 0.986155 0.000872
vt 0.984120 0.082503
vt 0.889511 0.095449
vt 0.901547 0.002274
vt 0.537633 0.964822
vt 0.489594 0.897104
vt 0.530247 0.862422
vt 0.581820 0.927646
vt 0.495986 0.999813
vt 0.482872 0.478747
vt 0.432932 0.828885
vt 0.448622 0.377609
vt 0.823129 0.854441
vt 0.919515 0.436161
vt 0.980962 0.168189
vt 0.617497 0.241266
vt 0.693280 0.632166
vt 0.607647 0.606535
vt 0.637558 0.576584
vt 0.663924 0.662740
vt 0.751602 0.686546
vt 0.172121 0.570688
vt 0.208566 0.530552
vt 0.138731 0.616447
vt 0.307519 0.554679
vt 0.495156 0.000872
vt 0.501610 0.103943
vt 0.404974 0.407489
vt 0.310887 0.371502
vt 0.341132 0.340961
vt 0.396848 0.605604
vt 0.164017 0.117911
vt 0.413660 0.722646
vt 0.660560 0.695181
vt 0.586958 0.671153
vt 0.886585 0.619417
vt 0.547031 0.544034
vt 0.576271 0.513716
vt 0.558482 0.171976
vt 0.227588 0.126163
vt 0.654818 0.573456
vt 0.258824 0.162790
vt 0.196350 0.153378
vt 0.816756 0.005750
vt 0.756513 0.120405
vt 0.164713 0.166624
vt 0.070620 0.147204
vt 0.737523 0.010584
vt 0.822100 0.069652
vt 0.473550 0.793150
vt 0.978243 0.403122
vt 0.629002 0.722771
vt 0.691179 0.732776
vt 0.014465 0.597194
vt 0.056912 0.627754
vt 0.173312 0.993317
vt 0.724229 0.719640
vt 0.235202 0.880219
vt 0.391407 0.325866
vt 0.359457 0.354973
vt 0.345742 0.341628
vt 0.642839 0.878852
vt 0.627832 0.890491
vt 0.246012 0.357340
vt 0.799263 0.887247
s 1
usemtl Material.002
f 1/1/1 4/2/2 93/3/3
f 1/1/1 43/4/4 4/2/2
f 1/1/1 93/3/3 132/5/5
f 1/1/1 96/6/6 43/4/4
f 1/1/1 132/5/5 158/7/7
f 1/1/1 158/7/7 96/6/6
f 2/8/8 18/9/8 89/10/8
f 2/8/9 37/11/10 97/12/11
f 2/8/9 85/13/12 109/14/13
f 2/8/14 89/10/15 85/13/16
f 2/8/9 97/12/11 18/9/17
f 2/8/9 109/14/13 37/11/10
f 3/15/18 19/16/19 145/17/20
f 3/15/21 38/18/22 70/19/23
f 3/15/21 70/19/23 86/20/24
f 3/15/21 86/20/24 19/16/25
f 3/15/18 98/21/26 38/18/27
f 3/15/18 145/17/20 98/21/26
f 4/2/2 8/22/28 75/23/29
f 4/2/2 43/4/4 103/24/30
f 4/2/2 75/23/29 93/3/3
f 4/2/2 103/24/30 8/22/28
f 5/25/31 44/26/31 84/27/31
f 5/25/32 52/28/32 147/29/32
f 5/30/33 76/31/33 44/32/33
f 5/25/34 84/27/34 52/28/34
f 5/30/35 147/33/35 76/31/35
f 6/34/36 20/35/37 77/36/38
f 6/34/36 45/37/39 146/38/40
f 6/34/36 77/36/38 148/39/41
f 6/34/36 115/40/42 20/35/37
f 6/34/43 146/38/43 115/40/43
f 6/34/36 148/39/41 45/37/39
f 7/41/44 16/42/45 78/43/46
f 7/41/47 46/44/48 66/45/49
f 7/41/47 66/45/49 149/46/50
f 7/41/44 78/43/46 46/44/51
f 7/41/52 102/47/52 16/42/52
f 7/41/53 149/46/54 102/47/55
f 8/22/28 24/48/56 91/49/57
f 8/22/28 91/49/57 75/23/29
f 8/22/28 103/24/58 24/48/56
f 9/50/59 48/51/60 151/52/61
f 9/50/59 76/31/62 100/53/63
f 9/50/59 92/54/64 48/51/60
f 9/50/59 100/53/63 92/54/64
f 9/50/59 104/55/65 76/31/66
f 9/50/59 151/52/61 104/55/65
f 10/56/67 45/37/39 148/39/41
f 10/56/68 57/57/69 65/58/70
f 10/56/71 65/58/71 45/37/71
f 10/59/72 89/60/72 57/61/72
f 10/59/73 113/62/74 89/60/75
f 10/59/73 148/63/76 113/62/74
f 11/64/77 34/65/78 149/46/54
f 11/64/79 106/66/80 161/67/81
f 11/64/79 137/68/82 106/66/80
f 11/64/77 149/46/54 153/69/83
f 11/64/77 153/69/83 137/68/83
f 11/64/79 161/67/81 34/65/84
f 12/70/85 35/71/86 71/72/87
f 12/70/85 51/73/88 156/74/89
f 12/70/85 71/72/87 51/73/88
f 12/70/85 125/75/90 35/71/86
f 12/70/85 156/74/89 125/75/90
f 13/76/91 29/77/92 72/78/93
f 13/76/94 36/79/95 52/80/96
f 13/76/94 52/80/96 84/81/97
f 13/76/98 72/78/98 108/82/98
f 13/76/99 84/81/100 139/83/101
f 13/76/102 108/82/102 36/79/102
f 13/76/99 139/83/101 29/77/103
f 14/84/104 37/11/10 109/14/13
f 14/84/104 51/73/88 138/85/105
f 14/84/104 83/86/106 37/11/10
f 14/84/104 109/14/13 156/74/89
f 14/84/104 138/85/105 83/86/106
f 14/84/104 156/74/89 51/73/88
f 15/87/107 38/18/107 98/21/107
f 15/88/108 94/89/108 110/90/108
f 15/88/109 98/91/109 133/92/109
f 15/87/110 110/93/111 38/18/112
f 15/88/113 133/92/113 94/89/113
f 16/94/114 31/95/114 141/96/114
f 16/42/115 102/47/115 111/97/115
f 16/42/116 111/97/116 127/98/116
f 16/94/114 127/99/114 31/95/114
f 16/94/114 141/96/114 78/100/114
f 17/101/117 33/102/117 112/103/117
f 17/101/118 56/104/118 64/105/118
f 17/101/119 64/105/119 33/102/119
f 17/106/120 88/107/121 56/108/122
f 17/106/123 112/109/123 88/107/123
f 18/9/124 97/12/124 144/110/124
f 18/9/125 144/110/125 152/111/125
f 18/9/126 152/111/126 89/10/126
f 19/16/19 42/112/127 74/113/128
f 19/16/129 58/114/129 42/112/129
f 19/16/19 74/113/128 145/17/20
f 19/16/25 86/20/24 58/114/130
f 20/35/37 59/115/131 67/116/132
f 20/35/37 67/116/132 77/36/38
f 20/35/133 115/40/134 130/117/135
f 20/35/133 130/117/135 59/115/136
f 21/118/137 26/119/137 73/120/137
f 21/118/137 36/121/137 26/119/137
f 21/122/138 73/123/139 131/124/140
f 21/122/141 100/53/141 116/125/141
f 21/118/137 116/126/137 36/121/137
f 21/122/142 131/124/142 100/53/142
f 22/127/143 45/37/144 65/58/145
f 22/127/143 61/128/146 45/37/147
f 22/127/143 65/58/145 159/129/148
f 22/127/143 93/3/3 61/128/146
f 22/127/143 132/5/5 93/3/3
f 22/127/143 159/129/148 132/5/5
f 23/130/149 46/44/149 94/131/149
f 23/130/150 94/131/151 133/132/152
f 23/130/153 118/133/154 160/134/153
f 23/130/150 133/132/152 118/133/155
f 23/130/153 160/134/153 46/44/156
f 24/48/157 32/135/158 47/136/159
f 24/48/157 47/136/159 79/137/160
f 24/48/161 79/137/162 119/138/163
f 24/48/56 103/24/58 32/135/164
f 24/48/161 119/138/163 91/49/165
f 25/139/166 33/140/167 48/51/168
f 25/139/169 48/51/170 92/54/171
f 25/139/169 60/141/172 80/142/173
f 25/139/169 80/142/173 137/68/82
f 25/139/169 92/54/171 60/141/172
f 25/139/174 137/68/174 33/140/174
f 26/143/175 36/79/176 108/82/177
f 26/143/178 68/144/179 81/145/180
f 26/143/181 81/145/182 136/146/183
f 26/143/175 108/82/177 68/144/184
f 26/119/137 136/147/137 73/120/137
f 27/148/185 42/149/186 128/150/187
f 27/148/188 82/151/189 42/149/190
f 27/152/191 122/153/192 82/154/193
f 27/148/185 128/150/187 137/155/194
f 27/152/195 137/68/195 153/69/195
f 27/152/196 153/69/196 122/153/196
f 28/156/197 39/157/198 142/158/199
f 28/156/200 51/73/88 71/72/87
f 28/156/201 71/72/201 39/157/201
f 28/156/200 87/159/202 123/160/203
f 28/156/200 123/160/203 138/85/105
f 28/156/200 138/85/105 51/73/88
f 28/156/197 142/158/199 87/159/204
f 29/77/92 56/108/122 88/107/121
f 29/77/92 88/107/121 72/78/93
f 29/77/92 124/161/205 56/108/122
f 29/77/92 139/83/101 124/161/205
f 30/162/206 59/163/207 107/164/208
f 30/162/209 67/165/209 59/163/209
f 30/166/210 101/167/211 67/168/212
f 30/169/213 107/170/214 140/171/215
f 30/169/213 140/171/215 101/172/216
f 31/173/217 32/135/218 150/174/219
f 31/173/217 54/175/220 141/176/221
f 31/173/222 63/177/223 32/135/158
f 31/95/114 127/99/114 63/178/114
f 31/173/217 150/174/219 54/175/220
f 32/135/158 63/177/223 47/136/159
f 32/135/164 103/24/58 129/179/224
f 32/135/164 129/179/224 150/174/219
f 33/140/167 64/180/225 48/51/168
f 33/102/226 137/181/226 112/103/226
f 34/65/78 55/182/227 102/47/55
f 34/65/78 102/47/55 149/46/54
f 34/65/78 123/160/203 55/182/227
f 34/65/78 161/67/81 123/160/203
f 35/71/228 107/170/214 154/183/229
f 35/71/86 125/75/90 140/171/215
f 35/71/228 140/171/215 107/170/214
f 35/71/228 154/183/229 71/72/230
f 36/121/137 116/126/137 52/28/137
f 37/11/10 83/86/106 120/184/231
f 37/11/10 120/184/231 97/12/11
f 38/18/112 110/93/111 70/19/232
f 39/157/233 71/72/230 154/183/229
f 39/185/234 79/186/235 142/187/236
f 39/185/237 119/188/237 79/186/237
f 39/185/238 154/189/239 119/188/240
f 40/190/241 68/144/179 155/191/242
f 40/190/241 81/145/180 68/144/179
f 40/190/241 117/192/243 81/145/180
f 40/190/241 143/193/244 158/7/7
f 40/190/241 155/191/242 143/193/244
f 40/190/241 158/7/7 117/192/243
f 41/194/245 49/195/245 73/123/245
f 41/196/137 73/120/137 136/147/137
f 41/196/246 105/197/246 152/198/246
f 41/196/247 136/147/247 105/197/247
f 41/194/248 144/110/249 49/195/250
f 41/194/248 152/111/251 144/110/249
f 42/112/252 58/114/252 128/199/252
f 42/149/190 82/151/189 74/200/253
f 43/4/4 90/201/254 129/179/224
f 43/4/4 96/6/6 90/201/254
f 43/4/4 129/179/224 103/24/58
f 44/32/255 76/31/66 104/55/65
f 44/26/256 104/202/257 162/203/258
f 44/26/259 162/203/259 84/27/259
f 45/37/147 61/128/146 146/38/260
f 46/44/261 62/204/262 94/131/263
f 46/44/261 78/43/264 62/204/262
f 46/44/265 160/134/266 66/45/267
f 47/205/268 63/178/268 95/206/268
f 47/205/269 95/206/269 142/187/269
f 47/205/270 142/187/236 79/186/235
f 48/51/60 64/180/271 151/52/61
f 49/195/272 60/141/172 131/124/273
f 49/195/274 131/124/140 73/123/139
f 49/195/272 135/207/275 60/141/172
f 49/195/272 144/110/276 135/207/275
f 50/208/277 74/200/277 82/151/277
f 50/209/278 82/154/193 122/153/192
f 50/208/279 118/210/279 145/211/279
f 50/209/280 122/153/281 160/134/282
f 50/208/283 145/211/283 74/200/283
f 50/209/280 160/134/282 118/133/284
f 52/28/285 116/126/285 147/29/285
f 53/212/286 69/213/286 85/13/286
f 53/214/287 77/215/288 101/167/211
f 53/212/289 85/13/16 113/216/290
f 53/212/291 101/172/292 163/217/293
f 53/214/294 113/62/294 148/63/294
f 53/214/287 148/63/295 77/215/288
f 53/212/291 163/217/293 69/213/296
f 54/175/220 70/19/23 141/176/221
f 54/175/220 86/20/24 70/19/23
f 54/175/220 114/218/297 86/20/298
f 54/175/220 150/174/219 114/218/297
f 55/182/227 87/159/202 95/219/299
f 55/182/227 95/219/299 111/97/300
f 55/182/227 111/97/300 102/47/55
f 55/182/227 123/160/203 87/159/202
f 56/104/301 124/220/302 151/221/303
f 56/104/301 151/221/303 64/105/304
f 57/61/305 89/60/305 152/198/305
f 57/57/306 105/222/307 121/223/308
f 57/57/306 121/223/308 159/129/309
f 57/61/310 152/198/310 105/197/310
f 57/57/69 159/129/311 65/58/70
f 58/114/312 86/20/298 114/218/297
f 58/114/312 90/201/254 128/199/313
f 58/114/312 114/218/297 90/201/254
f 59/115/136 130/117/135 134/224/314
f 59/163/207 134/225/315 107/164/208
f 60/141/172 92/54/171 131/124/273
f 60/141/172 135/207/275 80/142/173
f 61/128/146 75/23/29 99/226/316
f 61/128/146 93/3/3 75/23/29
f 61/128/146 99/226/316 146/38/317
f 62/227/114 78/100/114 126/228/114
f 62/227/318 110/90/318 94/89/318
f 62/227/114 126/228/114 157/229/114
f 62/227/319 157/229/319 110/90/319
f 63/178/320 127/99/320 95/206/320
f 66/45/49 122/153/321 153/69/322
f 66/45/49 153/69/322 149/46/50
f 66/45/267 160/134/266 122/153/323
f 67/168/212 101/167/211 77/215/288
f 68/144/324 108/82/325 155/191/242
f 69/213/326 109/14/13 85/13/12
f 69/213/326 125/75/90 156/74/89
f 69/213/326 156/74/89 109/14/13
f 69/213/326 163/217/327 125/75/90
f 70/19/328 110/93/328 157/230/328
f 70/19/23 126/231/329 141/176/221
f 70/19/330 157/230/330 126/231/330
f 72/78/93 88/107/121 143/193/331
f 72/78/332 143/193/244 155/191/242
f 72/78/332 155/191/242 108/82/325
f 75/23/29 91/49/57 99/226/316
f 76/31/62 147/33/333 100/53/63
f 78/100/114 141/96/114 126/228/114
f 80/142/173 106/66/80 137/68/82
f 80/142/173 120/184/231 106/66/80
f 80/142/173 135/207/275 120/184/231
f 81/145/182 105/222/334 136/146/183
f 81/145/180 117/192/243 121/223/335
f 81/145/182 121/223/336 105/222/334
f 83/86/106 106/66/80 120/184/231
f 83/86/106 138/85/105 161/67/81
f 83/86/106 161/67/81 106/66/80
f 84/81/100 162/232/337 139/83/101
f 85/13/16 89/10/15 113/216/290
f 87/159/204 142/158/199 95/219/338
f 88/107/121 112/109/339 143/193/331
f 90/201/340 96/6/341 128/199/342
f 90/201/254 114/218/297 129/179/224
f 91/49/165 119/138/163 134/224/343
f 91/49/344 134/224/345 99/226/346
f 92/54/64 100/53/63 131/124/347
f 95/219/299 127/98/348 111/97/300
f 96/6/341 143/193/244 128/199/342
f 96/6/341 158/7/7 143/193/244
f 97/12/11 120/184/231 135/207/275
f 97/12/11 135/207/275 144/110/276
f 98/91/349 118/210/349 133/92/349
f 98/91/350 145/211/350 118/210/350
f 99/226/316 130/117/351 146/38/317
f 99/226/346 134/224/345 130/117/352
f 100/53/353 147/33/353 116/125/353
f 101/172/216 140/171/215 163/217/327
f 104/202/257 124/220/354 162/203/258
f 104/202/355 151/221/355 124/220/355
f 107/164/208 134/225/315 154/189/239
f 112/109/356 128/199/356 143/193/356
f 112/103/357 137/181/357 128/233/357
f 114/218/297 150/174/219 129/179/224
f 115/40/358 146/38/358 130/117/358
f 117/192/243 132/5/5 159/129/148
f 117/192/243 158/7/7 132/5/5
f 117/192/243 159/129/148 121/223/335
f 119/188/240 154/189/239 134/225/315
f 123/160/203 161/67/81 138/85/105
f 124/161/205 139/83/101 162/232/337
f 125/75/90 163/217/327 140/171/215
