# Blender 4.4.0
# www.blender.org
mtllib Meshy_AI_Polygonal_Magnet_0825070506_texture.mtl
o Meshy_AI_Polygonal_Magnet_0825070506_texture
v -0.417969 -0.500000 -0.106445
v 0.000479 0.306641 0.096680
v 0.221680 0.148438 -0.098145
v -0.208984 0.433594 0.099609
v -0.219727 0.147461 0.099121
v 0.212891 0.435547 -0.100098
v 0.214844 -0.500000 0.104004
v -0.365234 0.283203 -0.097168
v -0.412109 0.157227 0.100098
v 0.211914 0.437500 -0.097656
v 0.410156 -0.498047 0.099121
v -0.138672 0.265625 -0.100098
v -0.227539 -0.496094 -0.096191
v 0.367188 0.285156 0.100098
v 0.159180 0.251953 -0.106445
v -0.208008 0.435547 0.097656
v -0.408203 0.155273 -0.096191
v 0.000175 0.500000 0.105469
v 0.410156 -0.496094 -0.100098
v -0.137695 0.267578 0.100098
v -0.215820 -0.500000 0.104980
v 0.410156 0.154297 -0.099121
v 0.227539 0.148438 0.098145
v -0.209961 0.437500 -0.101074
v -0.406250 -0.496094 0.096191
v 0.134766 0.271484 -0.106445
v 0.410156 0.155273 0.099609
v 0.000828 0.494141 -0.100098
v -0.220703 0.149414 -0.099121
v 0.208984 0.433594 0.099121
v 0.214844 -0.500000 -0.103516
v -0.417969 0.156250 0.105957
v -0.406250 0.155273 0.096680
v 0.000299 0.308594 -0.099609
v 0.410156 -0.498047 0.099609
v -0.160156 0.251953 -0.097168
v -0.213867 -0.500000 -0.105469
v 0.365234 0.283203 0.097168
v 0.227539 0.149414 -0.095215
v -0.208984 0.435547 0.100098
v -0.404297 -0.494141 -0.097656
v 0.161133 0.251953 0.100098
v 0.419922 0.155273 -0.106934
v -0.000626 0.490234 0.097168
v -0.159180 0.248047 0.105469
v 0.208984 0.433594 -0.097168
v 0.224609 -0.500000 0.097168
v -0.375000 0.285156 -0.104980
v -0.410156 -0.500000 0.099121
v 0.137695 0.269531 -0.099609
v 0.406250 0.154297 0.097168
v 0.000538 0.500000 -0.106445
v -0.220703 0.148438 -0.099609
v 0.376953 0.285156 0.105469
v 0.227539 -0.498047 -0.096191
v -0.161133 0.250000 0.096191
v -0.406250 0.155273 -0.097168
v -0.000954 0.486328 0.098145
v 0.406250 -0.494141 -0.097168
v -0.134766 0.267578 0.104980
v -0.227539 -0.498047 0.096680
v 0.160156 0.251953 -0.099609
v 0.215820 0.147461 0.104004
v -0.367188 0.283203 -0.095215
v -0.412109 0.154297 0.099121
v 0.000504 0.486328 -0.099609
v 0.406250 -0.494141 0.097168
v -0.159180 0.253906 -0.100098
v -0.220703 -0.500000 -0.098633
v 0.419922 0.156250 0.105469
v 0.224609 0.149414 -0.098145
v -0.365234 0.283203 0.097168
v -0.406250 -0.494141 -0.098633
v 0.143555 0.269531 0.097656
v 0.408203 0.154297 -0.097656
v -0.000362 0.494141 0.098145
v -0.224609 0.146484 0.097168
v 0.215820 0.447266 -0.106445
v 0.220703 -0.500000 0.097656
v -0.365234 0.283203 -0.099121
v -0.408203 -0.496094 0.097656
v 0.140625 0.267578 -0.100098
v 0.410156 0.155273 0.099121
v 0.000073 0.488281 -0.098633
v 0.000275 0.306641 -0.106445
v 0.365234 0.283203 0.096191
v 0.227539 -0.496094 -0.095215
v -0.147461 0.263672 0.097168
v -0.223633 0.149414 -0.094238
v 0.209961 0.433594 0.098145
v 0.417969 -0.500000 -0.105957
v -0.151367 0.253906 0.100098
v 0.365234 0.281250 -0.096680
v 0.133789 0.267578 0.104004
v -0.367188 0.285156 -0.100098
v -0.408203 -0.498047 -0.099121
v -0.000549 0.306641 0.105469
v 0.412109 0.155273 -0.100586
v -0.208984 0.435547 0.098145
v -0.213867 0.146484 0.104004
v 0.365234 0.283203 -0.099121
v 0.225586 -0.494141 0.096191
v -0.410156 0.156250 -0.099121
v -0.223633 0.148438 0.095215
v 0.209961 0.431641 -0.099609
v 0.417969 -0.500000 0.105469
v 0.000257 0.306641 -0.097656
v -0.222656 -0.500000 -0.099121
v 0.365234 0.285156 0.098633
v 0.226562 0.149414 0.096680
v -0.369141 0.285156 0.100098
v -0.417969 0.155273 -0.105469
v -0.000607 0.488281 0.098145
v 0.406250 -0.496094 -0.097656
v -0.157227 0.251953 0.100586
v -0.223633 -0.500000 0.099609
v 0.363281 0.285156 -0.099121
v 0.221680 0.148438 0.099121
v -0.209961 0.435547 -0.098145
v -0.410156 -0.500000 0.098145
v 0.163086 0.251953 -0.095703
v 0.406250 0.153320 0.098145
v -0.137695 0.267578 -0.100098
v -0.225586 0.148438 -0.097168
v 0.211914 0.435547 0.100098
v -0.410156 0.156250 -0.100098
v -0.000336 0.308594 0.098633
v 0.408203 -0.498047 -0.101074
v -0.152344 0.263672 0.098145
v -0.221680 -0.498047 0.099121
v 0.363281 0.283203 -0.097168
v 0.163086 0.251953 0.097656
v -0.215820 0.447266 -0.106934
v -0.225586 -0.498047 0.098145
v 0.159180 0.251953 -0.100098
v -0.148438 0.265625 -0.096680
v -0.214844 0.148438 -0.105469
v 0.210938 0.437500 0.098145
v 0.223633 -0.500000 -0.097656
v -0.373047 0.287109 0.105469
v -0.412109 -0.498047 -0.099121
v 0.138672 0.269531 0.100098
v 0.406250 0.153320 -0.097168
v -0.216797 0.447266 0.106934
v -0.219727 0.147461 0.098633
v 0.375000 0.287109 -0.105957
v 0.222656 -0.498047 0.099121
v -0.157227 0.251953 -0.100586
v -0.406250 0.154297 0.097656
v 0.166992 0.447266 -0.100098
v 0.408203 -0.496094 0.097168
v -0.133789 0.267578 -0.105469
v -0.226562 -0.498047 -0.097656
v 0.159180 0.250000 0.104980
v 0.215820 0.149414 -0.104980
v -0.367188 0.285156 0.100586
v -0.417969 -0.500000 0.106445
v 0.148438 0.269531 -0.096680
v 0.222656 0.149414 0.098633
v -0.207031 0.431641 -0.099121
v -0.159180 0.249023 -0.105957
v 0.215820 0.445312 0.105957
v 0.223633 -0.500000 -0.098633
v -0.166919 0.302427 -0.050222
v 0.093199 0.281901 -0.033203
vn -0.0000 -1.0000 -0.0000
vn -1.0000 -0.0000 -0.0000
vn 0.0048 0.0015 -1.0000
vn 0.0034 0.0015 -1.0000
vn 0.0011 0.0003 -1.0000
vn -0.0034 0.0020 -1.0000
vn -0.0035 0.0018 -1.0000
vn 0.0063 0.0019 -1.0000
vn 0.2435 0.9699 0.0002
vn 0.2510 0.9680 0.0063
vn 0.2504 0.9681 0.0058
vn -0.0000 0.0026 -1.0000
vn -0.2659 0.9640 0.0003
vn 0.0019 0.0081 -1.0000
vn -0.2789 0.9603 0.0111
vn 0.2429 0.9700 -0.0003
vn -0.0172 -0.0005 -0.9999
vn -0.0128 0.0008 -0.9999
vn -0.0141 0.0004 -0.9999
vn -0.8561 -0.5169 -0.0000
vn -0.0185 -0.0008 -0.9998
vn -0.0119 -0.0260 -0.9996
vn -1.0000 -0.0030 -0.0000
vn -1.0000 -0.0026 -0.0011
vn -1.0000 -0.0018 -0.0038
vn 0.0081 0.0053 1.0000
vn 0.0030 0.0043 1.0000
vn 0.0076 0.0057 1.0000
vn -0.2459 0.9693 -0.0021
vn -0.2457 0.9693 -0.0018
vn -0.2545 0.9670 -0.0119
vn -0.2548 0.9669 -0.0120
vn -0.6801 0.7329 -0.0206
vn -0.6842 0.7292 -0.0144
vn -0.6797 0.7332 -0.0205
vn 0.0074 0.0029 1.0000
vn 0.0024 0.0040 1.0000
vn -0.6842 0.7292 -0.0139
vn 0.8502 -0.5264 -0.0094
vn -0.0033 -0.0012 1.0000
vn -0.0006 -0.0079 1.0000
vn -0.0013 -0.0012 1.0000
vn -0.0007 -0.0068 1.0000
vn -0.0052 -0.0000 1.0000
vn 1.0000 -0.0030 -0.0050
vn 1.0000 -0.0023 -0.0027
vn 1.0000 -0.0006 0.0027
vn 0.8413 -0.5401 -0.0193
vn 0.7071 0.7070 -0.0139
vn 0.2662 0.9639 0.0014
vn 0.2663 0.9639 0.0016
vn 0.2662 0.9639 0.0015
vn -0.0008 -0.0025 -1.0000
vn -0.0006 -0.0025 -1.0000
vn 0.0050 -0.0029 -1.0000
vn 0.0021 -0.0038 -1.0000
vn 0.2661 0.9640 0.0013
vn 0.0024 -0.0040 -1.0000
vn 0.6957 0.7183 0.0034
vn -1.0000 0.0015 -0.0000
vn -0.0072 -0.0000 1.0000
vn -0.0073 -0.0000 1.0000
vn -0.0099 -0.0035 0.9999
vn -0.0000 -0.0000 1.0000
vn -0.0035 -0.0016 1.0000
vn -0.0000 -0.0002 1.0000
vn 0.9523 -0.3053 -0.0000
vn 0.9523 -0.3050 -0.0001
vn 0.9529 -0.3034 -0.0013
vn 0.6981 -0.7160 -0.0000
vn 0.7003 -0.7138 -0.0035
vn 0.0075 -0.0015 1.0000
vn 0.0052 -0.0008 1.0000
vn -0.0003 0.0008 1.0000
vn -0.0006 -0.0036 1.0000
vn -0.9999 0.0030 -0.0098
vn -0.9999 -0.0030 0.0098
vn 0.0065 -0.0226 0.9997
vn -0.9435 0.3313 -0.0108
vn -0.6956 -0.7181 -0.0213
vn -0.2331 -0.9724 0.0089
vn -0.0041 0.0023 1.0000
vn -0.2596 -0.9655 -0.0218
vn -0.7138 -0.7003 0.0071
vn 1.0000 -0.0000 -0.0000
vn -0.0077 -0.0007 1.0000
vn -0.0079 -0.0008 1.0000
vn -0.0058 -0.0013 1.0000
vn 0.0103 -0.9999 0.0002
vn 0.0209 -0.9997 -0.0098
vn 0.2953 -0.9547 -0.0372
vn -0.0017 0.0033 -1.0000
vn -0.0040 0.0024 -1.0000
vn 0.0068 -0.0010 -1.0000
vn 0.5933 -0.8049 -0.0095
vn 0.0042 -0.0021 -1.0000
vn 0.1072 -0.1803 0.9777
vn -0.0035 0.0044 -1.0000
vn -0.0102 -0.0028 0.9999
vn -0.0091 -0.0028 1.0000
vn -0.0083 -0.0023 1.0000
vn 0.0110 0.9999 0.0101
vn 0.0109 0.9999 0.0102
vn -1.0000 0.0061 0.0001
vn -1.0000 0.0060 0.0001
vn -1.0000 0.0060 -0.0000
vn -0.0107 -0.0040 0.9999
vn 0.9493 0.3141 -0.0124
vn 0.0004 -0.0075 1.0000
vn 0.0003 -0.0080 1.0000
vn -0.0022 0.0002 1.0000
vn -0.0004 0.0001 1.0000
vn -0.0100 0.0029 0.9999
vn 0.0012 0.0065 -1.0000
vn 0.0024 0.0012 -1.0000
vn 0.0020 0.0008 -1.0000
vn -0.0090 -0.0193 -0.9998
vn -0.8753 -0.4835 -0.0045
vn 0.0010 0.0078 -1.0000
vn -0.6247 -0.7809 -0.0072
vn -0.8753 -0.4836 -0.0045
vn 0.6958 -0.7182 -0.0070
vn 0.6958 -0.7182 -0.0069
vn 0.6959 -0.7181 -0.0071
vn 0.2550 -0.9669 0.0106
vn 0.0003 0.0029 -1.0000
vn 0.2435 -0.9699 -0.0024
vn 0.9999 0.0060 -0.0101
vn 0.9522 -0.3052 -0.0097
vn 0.9522 -0.3053 -0.0096
vn -0.0107 -0.0042 0.9999
vn -0.2362 0.9717 -0.0004
vn -0.2365 0.9716 -0.0007
vn -0.2365 0.9716 -0.0008
vn 0.2457 0.9693 0.0087
vn 0.2381 0.9712 0.0005
vn 0.2379 0.9713 0.0004
vn -0.0045 -0.0089 1.0000
vn 0.0109 -0.0000 0.9999
vn 0.0068 -0.0000 1.0000
vn -0.0007 -0.0023 1.0000
vn 0.0002 -0.0109 0.9999
vn 0.2458 0.9693 0.0089
vn -0.0059 0.0014 -1.0000
vn -0.0073 0.0010 -1.0000
vn -0.0053 0.0015 -1.0000
vn -0.0079 0.0008 -1.0000
vn 0.6247 -0.7809 -0.0000
vn 0.2861 -0.9582 -0.0000
vn 0.0041 0.0261 0.9997
vn 1.0000 0.0015 0.0093
vn 0.0072 0.0015 1.0000
vn 0.0077 0.0013 1.0000
vn 0.0090 0.0009 1.0000
vn 1.0000 -0.0030 -0.0047
vn 0.0023 0.0008 -1.0000
vn -0.0048 -0.0173 -0.9998
vn 0.9414 0.3372 -0.0017
vn 0.9447 0.3279 -0.0085
vn 0.9418 0.3362 -0.0024
vn 0.9999 -0.0045 0.0151
vn 0.0004 -0.0149 -0.9999
vn -0.0000 0.0015 -1.0000
vn 0.0055 -0.0034 -1.0000
vn 0.0043 -0.0027 -1.0000
vn -0.2595 0.9657 0.0106
vn -0.0008 -0.0055 -1.0000
vn -0.0007 -0.0049 -1.0000
vn -0.0011 -0.0050 -1.0000
vn -0.6958 0.7182 0.0104
vn -0.6954 0.7186 0.0104
vn -0.6889 0.7248 0.0006
vn -0.0080 0.0008 -1.0000
vn -0.0063 0.0105 -0.9999
vn -0.0080 0.0021 -1.0000
vn 0.9999 -0.0000 0.0101
vn 0.0027 -0.0023 -1.0000
vn -0.0000 -0.0000 -1.0000
vn -0.2529 -0.9673 -0.0191
vn -0.5686 -0.8224 -0.0179
vn -0.0054 0.0057 1.0000
vn -0.0054 0.0046 1.0000
vn 0.9451 0.3268 -0.0093
vn -0.2704 0.9627 -0.0016
vn 0.0005 0.0006 -1.0000
vn 0.0006 -0.0006 -1.0000
vn 0.0016 -0.0002 -1.0000
vn -0.0073 -0.0079 -0.9999
vn -0.0084 -0.0091 -0.9999
vn 1.0000 -0.0000 0.0049
vn 0.0066 0.0036 1.0000
vn 0.0076 -0.0028 1.0000
vn 0.0086 -0.0079 0.9999
vn -0.0063 -0.0064 1.0000
vn -0.1051 0.0330 0.9939
vn 0.2436 0.9698 -0.0083
vn 0.6887 0.7250 -0.0037
vn 0.6898 0.7240 -0.0053
vn 0.6897 0.7241 -0.0052
vn -0.0120 -0.0022 -0.9999
vn -0.0114 -0.0021 -0.9999
vn -0.0101 -0.0016 -0.9999
vn 0.0006 0.0035 1.0000
vn 0.0087 -0.0191 0.9998
vn -0.9458 0.3247 -0.0015
vn -0.9490 0.3153 0.0051
vn -0.9462 0.3235 -0.0006
vn 0.0096 0.0007 1.0000
vn -0.0044 0.0055 -1.0000
vn -0.0040 0.0051 -1.0000
vn -0.2735 -0.9619 0.0013
vn -0.2806 -0.9598 -0.0009
vn 0.3405 -0.9403 0.0011
vn -0.0026 0.0007 1.0000
vn -0.0006 0.0001 1.0000
vn 1.0000 -0.0000 0.0098
vn 0.9999 -0.0060 -0.0097
vn 0.0106 -0.9999 -0.0001
vn -0.0000 -1.0000 0.0099
vn -0.7593 0.6507 0.0027
vn 0.0126 0.0208 0.9997
vn -0.8515 0.5244 0.0012
vn -0.8502 0.5264 0.0027
vn -0.8504 0.5261 0.0025
vn -0.8517 0.5241 0.0010
vn -0.0007 0.0031 -1.0000
vn -0.0027 0.0066 -1.0000
vn 0.0044 0.0004 -1.0000
vn 0.0037 0.0005 -1.0000
vn -0.9529 -0.3032 0.0031
vn -0.9529 -0.3034 0.0029
vn -0.9523 -0.3051 0.0017
vn -0.0035 0.0073 -1.0000
vn -0.0029 0.0035 -1.0000
vn 0.0018 0.0021 -1.0000
vn -0.0013 0.0037 -1.0000
vn 0.0082 -0.0015 1.0000
vn 0.0136 0.0013 0.9999
vn 0.0133 0.0102 0.9999
vn 0.0132 0.0130 0.9998
vn 1.0000 -0.0000 0.0051
vn 0.0135 -0.0000 0.9999
vn 0.8466 0.5322 -0.0000
vn 0.0091 0.0029 1.0000
vn 0.0087 0.0027 1.0000
vn -0.6890 0.7248 -0.0000
vn -0.0001 -0.0010 1.0000
vn 0.0086 0.0026 1.0000
vn -0.8467 -0.5321 0.0041
vn -0.8575 -0.5144 -0.0085
vn -0.7082 -0.7058 0.0175
vn -0.6247 -0.7808 0.0031
vn 0.0087 -0.0091 0.9999
vn 1.0000 -0.0030 -0.0000
vn -0.0095 -0.0015 -1.0000
vn 0.9466 0.3225 -0.0015
vn 0.9484 0.3169 -0.0052
vn 0.9468 0.3217 -0.0019
vn 0.0064 0.0020 -1.0000
vn 0.0037 0.0204 0.9998
vn 0.8805 -0.4741 -0.0022
vn 0.8758 -0.4827 -0.0076
vn 0.8797 -0.4756 -0.0032
vn 0.6246 -0.7809 -0.0036
vn -0.0058 0.0053 1.0000
vn -0.0023 0.0054 1.0000
vn 0.0002 0.0105 0.9999
vn -0.7068 -0.7071 0.0212
vn 0.0015 0.0025 1.0000
vn -0.2532 -0.9674 -0.0009
vn -0.6980 -0.7161 0.0070
vn -0.2334 -0.9721 0.0218
vn 0.0021 0.0022 1.0000
vn -0.0213 0.9997 0.0098
vn -0.9494 0.3141 0.0059
vn -0.0064 -0.0046 -1.0000
vn -0.0056 -0.0065 -1.0000
vn -0.0055 -0.0064 -1.0000
vn -0.7147 0.6994 -0.0015
vn -0.7158 0.6983 0.0002
vn -0.7146 0.6995 -0.0016
vn -0.7135 0.7006 -0.0033
vn -0.0026 0.0015 1.0000
vn -0.0000 -1.0000 -0.0099
vn 0.0004 0.0283 -0.9996
vn 0.0054 -0.0000 -1.0000
vn 0.0033 0.0006 -1.0000
vn -0.9523 -0.3053 0.0015
vn -0.0057 -0.0031 -1.0000
vn -0.0068 -0.0004 -1.0000
vn -0.2368 0.9716 -0.0011
vn 0.0038 -0.0064 -1.0000
vn 0.8637 -0.5039 -0.0067
vn 0.8589 -0.5120 -0.0123
vn 0.8630 -0.5052 -0.0074
vn 0.0014 -0.0021 -1.0000
vn 0.0019 -0.0010 -1.0000
vn 0.0009 -0.0012 -1.0000
vn 1.0000 -0.0036 0.0027
vn 1.0000 -0.0053 -0.0028
vn 1.0000 -0.0030 0.0049
vn 1.0000 -0.0060 -0.0050
vn -0.0011 -0.0082 1.0000
vn 0.9487 0.3162 -0.0058
vn 0.7053 0.7089 0.0067
vn 0.7094 0.7048 0.0004
vn 0.7049 0.7092 0.0065
vn 0.7093 0.7049 -0.0000
vn -0.0011 -0.0073 1.0000
vn -0.0015 -0.0046 1.0000
vn -0.0109 0.9999 0.0001
vn 0.0059 0.0654 -0.9978
vn -0.7074 0.7067 0.0107
vn 0.9529 -0.3032 -0.0015
vn -0.0055 -0.0023 1.0000
vn -0.0012 -0.0012 1.0000
vn 1.0000 -0.0023 0.0077
vn 1.0000 -0.0007 0.0023
vn 0.2284 0.9736 0.0017
vn -0.0109 0.9999 -0.0000
vn 0.0010 -0.0105 0.9999
vn 0.0012 -0.0103 0.9999
vn 0.2794 -0.9602 0.0013
vn 0.2796 -0.9601 0.0012
vn 0.5900 -0.8074 0.0027
vn 0.0062 -0.0235 -0.9997
vn -0.9999 -0.0030 -0.0099
vn -0.9501 0.3120 -0.0063
vn 0.0001 0.9999 -0.0102
vn -0.8507 0.5257 0.0041
vn -0.8467 0.5320 0.0088
vn -0.8512 0.5249 0.0035
vn 0.8582 -0.5131 -0.0133
vn -0.8461 0.5330 0.0096
vn 0.0026 -0.0000 -1.0000
vn -0.0104 -0.9999 0.0098
vn -0.9999 0.0015 -0.0099
vn -0.9999 0.0018 -0.0111
vn -0.9999 0.0027 -0.0138
vn 0.0046 0.0006 -1.0000
vn 0.0043 0.0016 -1.0000
vn -0.0039 -0.0001 -1.0000
vn 0.0006 0.0069 -1.0000
vn 0.0107 0.9999 0.0101
vn 0.0217 0.9998 -0.0001
vn 0.9999 -0.0030 0.0099
vn 0.6689 0.7432 0.0168
vn 0.0057 -0.0058 1.0000
vn -0.9999 0.0030 0.0100
vn -0.9443 -0.3290 -0.0111
vn 0.2091 0.0692 0.9754
vn -0.2116 -0.0641 -0.9752
vn -0.9999 -0.0030 -0.0100
vn -0.0096 0.0026 1.0000
vn -0.0098 0.0026 0.9999
vn 0.0007 -0.0002 -1.0000
vn -0.0014 -0.0003 -1.0000
vn -1.0000 0.0015 0.0050
vn 0.0027 -0.0015 -1.0000
vn -0.9999 0.0030 -0.0149
vn -0.9425 0.3335 -0.0218
vn -0.0061 0.0065 -1.0000
vn -0.0059 0.0065 -1.0000
vn -0.0060 0.0064 -1.0000
vn 0.0047 0.0011 -1.0000
vn 0.0043 0.0012 -1.0000
vn 0.0101 -0.0016 -0.9999
vn 0.9389 0.3439 0.0092
vn 0.2453 -0.9694 0.0008
vn 0.0037 0.0098 0.9999
vn -0.2792 -0.9602 -0.0011
vn 0.2797 -0.9601 0.0011
vn -0.9536 -0.3010 0.0096
vn 0.9999 -0.0015 0.0102
vn -0.0349 0.0051 0.9994
vn -0.9487 0.3162 -0.0000
vn 0.0104 -0.9999 -0.0098
vn 0.0028 0.0125 -0.9999
vn 0.8749 -0.4842 -0.0086
vn 0.6908 0.7230 -0.0068
vn 0.0038 0.0100 0.9999
vn -0.7343 0.4961 -0.4634
vn -0.0103 -0.9999 -0.0001
vn -0.0000 -0.0015 -1.0000
vn -1.0000 -0.0015 -0.0050
vn -0.0012 0.0545 0.9985
vn 0.0070 0.0023 1.0000
vn 0.7682 0.6402 -0.0000
vn 0.0189 0.0005 -0.9998
vn -0.0029 0.0073 -1.0000
vn 0.3389 0.9352 0.1028
vn 0.0028 -0.0047 1.0000
vn -0.2619 -0.9650 0.0134
vn 0.0075 0.0028 1.0000
vn 0.0005 -0.0077 1.0000
vn -0.8244 -0.5649 -0.0349
vn -0.6332 -0.7740 0.0031
vn 0.9583 0.2645 -0.1086
vn -0.8891 -0.3796 -0.2557
vn -0.8400 -0.5285 -0.1229
vn 0.9862 0.1655 -0.0080
vn -0.2706 -0.9627 0.0068
vn 0.2805 0.9598 -0.0066
vn -0.2224 0.2368 -0.9458
vn 0.2275 -0.2363 0.9447
vt 0.345021 0.427905
vt 0.273463 0.472474
vt 0.295732 0.422818
vt 0.060700 0.430347
vt 0.216579 0.523050
vt 0.173842 0.558131
vt 0.332182 0.472915
vt 0.929107 0.173915
vt 0.768105 0.223387
vt 0.914245 0.122387
vt 0.102026 0.393160
vt 0.637718 0.234063
vt 0.684718 0.273607
vt 0.641566 0.281151
vt 0.294339 0.836906
vt 0.332526 0.835247
vt 0.335724 0.886284
vt 0.698647 0.229236
vt 0.295128 0.887583
vt 0.254198 0.887585
vt 0.070909 0.184017
vt 0.070909 0.136396
vt 0.126286 0.150039
vt 0.254426 0.836650
vt 0.772917 0.606685
vt 0.776101 0.558141
vt 0.941328 0.546565
vt 0.324411 0.957967
vt 0.324133 0.906034
vt 0.354664 0.958739
vt 0.947799 0.593457
vt 0.726315 0.607142
vt 0.155026 0.961930
vt 0.291764 0.161765
vt 0.263387 0.198547
vt 0.231089 0.153738
vt 0.535661 0.079228
vt 0.590798 0.089151
vt 0.583722 0.140263
vt 0.527988 0.130904
vt 0.472808 0.122828
vt 0.477846 0.070728
vt 0.267208 0.125025
vt 0.326119 0.191694
vt 0.667998 0.835796
vt 0.667798 0.887613
vt 0.634406 0.887047
vt 0.563520 0.320641
vt 0.542807 0.366373
vt 0.385422 0.309822
vt 0.604218 0.323143
vt 0.400507 0.263602
vt 0.836488 0.830970
vt 0.636435 0.834447
vt 0.600243 0.067845
vt 0.658625 0.018079
vt 0.658461 0.070360
vt 0.542242 0.062053
vt 0.546734 0.010447
vt 0.705612 0.561737
vt 0.661061 0.602911
vt 0.660620 0.554190
vt 0.716235 0.608354
vt 0.603674 0.015063
vt 0.747984 0.554915
vt 0.312490 0.122387
vt 0.368893 0.123361
vt 0.310197 0.174229
vt 0.542628 0.884363
vt 0.401670 0.786338
vt 0.572649 0.839576
vt 0.916126 0.655517
vt 0.756711 0.736069
vt 0.746503 0.683257
vt 0.923694 0.708528
vt 0.162360 0.549359
vt 0.173193 0.582896
vt 0.125820 0.584675
vt 0.929154 0.931126
vt 0.926599 0.981843
vt 0.892457 0.930128
vt 0.982773 0.986837
vt 0.986838 0.935958
vt 0.340386 0.218400
vt 0.411088 0.369094
vt 0.293472 0.236031
vt 0.269412 0.204080
vt 0.393151 0.001887
vt 0.396276 0.054158
vt 0.226400 0.069659
vt 0.220648 0.018171
vt 0.430703 0.001031
vt 0.003701 0.397342
vt 0.052128 0.338540
vt 0.055270 0.393642
vt 0.060345 0.450076
vt 0.009375 0.454678
vt 0.056685 0.092009
vt 0.001807 0.076199
vt 0.111854 0.076199
vt 0.001253 0.338357
vt 0.900850 0.068382
vt 0.909262 0.119702
vt 0.739727 0.147073
vt 0.733003 0.095615
vt 0.012034 0.000534
vt 0.177730 0.037593
vt 0.000534 0.048744
vt 0.181254 0.272507
vt 0.230924 0.272883
vt 0.230164 0.324342
vt 0.181254 0.324736
vt 0.628022 0.886205
vt 0.588824 0.881102
vt 0.893966 0.715732
vt 0.890993 0.782867
vt 0.826010 0.755568
vt 0.039690 0.060561
vt 0.039294 0.061339
vt 0.001556 0.060561
vt 0.141933 0.129864
vt 0.147935 0.131699
vt 0.048721 0.131699
vt 0.930911 0.746283
vt 0.647822 0.605577
vt 0.813775 0.667513
vt 0.644433 0.651829
vt 0.049031 0.885598
vt 0.003220 0.887561
vt 0.048213 0.834905
vt 0.217773 0.886125
vt 0.816674 0.619187
vt 0.692707 0.017810
vt 0.754928 0.378706
vt 0.763540 0.328493
vt 0.784264 0.373582
vt 0.709075 0.384271
vt 0.714235 0.333621
vt 0.582358 0.163560
vt 0.592931 0.162641
vt 0.554592 0.216222
vt 0.524943 0.209802
vt 0.542194 0.159551
vt 0.414840 0.724626
vt 0.375761 0.762628
vt 0.410064 0.719030
vt 0.435665 0.742701
vt 0.065915 0.506668
vt 0.018083 0.566259
vt 0.014326 0.510586
vt 0.068555 0.565759
vt 0.728610 0.281400
vt 0.017211 0.599765
vt 0.067550 0.602997
vt 0.001253 0.768340
vt 0.847923 0.660239
vt 0.301675 0.656478
vt 0.253744 0.684187
vt 0.272824 0.604715
vt 0.282639 0.735351
vt 0.629804 0.699320
vt 0.698515 0.677061
vt 0.676690 0.724947
vt 0.661699 0.660810
vt 0.592581 0.655517
vt 0.330685 0.706318
vt 0.604169 0.763093
vt 0.781602 0.759833
vt 0.765853 0.805774
vt 0.614003 0.715732
vt 0.609373 0.643986
vt 0.604419 0.639078
vt 0.620100 0.604574
vt 0.644588 0.656630
vt 0.357794 0.633330
vt 0.131232 0.354847
vt 0.306061 0.648604
vt 0.818678 0.757599
vt 0.797663 0.810037
vt 0.700447 0.149740
vt 0.826273 0.412007
vt 0.690013 0.507547
vt 0.656024 0.467435
vt 0.799473 0.369689
vt 0.442046 0.555304
vt 0.478113 0.520029
vt 0.488908 0.554097
vt 0.440786 0.725244
vt 0.609980 0.566100
vt 0.485852 0.057287
vt 0.489619 0.004266
vt 0.566790 0.601369
vt 0.572882 0.546537
vt 0.430197 0.053676
vt 0.921890 0.252062
vt 0.757557 0.276222
vt 0.746110 0.230380
vt 0.051605 0.773955
vt 0.000895 0.837071
vt 0.917561 0.206233
vt 0.600770 0.211527
vt 0.648369 0.167896
vt 0.369461 0.755794
vt 0.389170 0.693073
vt 0.205894 0.053540
vt 0.166812 0.085683
vt 0.699338 0.097992
vt 0.951238 0.771314
vt 0.909426 0.604812
vt 0.999466 0.758517
vt 0.999228 0.789974
vt 0.947280 0.807215
vt 0.838644 0.882722
vt 0.241243 0.085844
vt 0.195393 0.108012
vt 0.201509 0.113512
vt 0.645544 0.095176
vt 0.641858 0.147957
vt 0.363339 0.175556
vt 0.171182 0.318278
vt 0.101984 0.332310
vt 0.149309 0.297069
vt 0.239697 0.553899
vt 0.705430 0.229720
vt 0.397630 0.963384
vt 0.361527 0.959297
vt 0.364754 0.906755
vt 0.551040 0.874756
vt 0.596131 0.829205
vt 0.939931 0.309555
vt 0.922036 0.263602
vt 0.862169 0.001031
vt 0.696315 0.069916
vt 0.867768 0.053166
vt 0.105245 0.910971
vt 0.106443 0.963384
vt 0.154174 0.910367
vt 0.249439 0.887613
vt 0.249395 0.836840
vt 0.845296 0.605577
vt 0.218198 0.836534
vt 0.750154 0.173072
vt 0.550785 0.288071
vt 0.521835 0.287704
vt 0.534225 0.242074
vt 0.052719 0.304754
vt 0.577073 0.240966
vt 0.595727 0.288654
vt 0.497325 0.394332
vt 0.630018 0.507620
vt 0.061911 0.223381
vt 0.230568 0.270367
vt 0.060873 0.270241
vt 0.478580 0.438281
vt 0.477505 0.369689
vt 0.231181 0.223510
vt 0.225511 0.808232
vt 0.175204 0.808232
vt 0.225511 0.639007
vt 0.373447 0.883525
vt 0.341764 0.885627
vt 0.339332 0.834905
vt 0.617959 0.370195
vt 0.665422 0.330428
vt 0.572524 0.375347
vt 0.662010 0.378528
vt 0.385200 0.482208
vt 0.437903 0.484266
vt 0.436214 0.515003
vt 0.384651 0.514634
vt 0.386389 0.475580
vt 0.438394 0.477874
vt 0.338836 0.817839
vt 0.381604 0.782396
vt 0.494039 0.911147
vt 0.452795 0.947858
vt 0.315783 0.786700
vt 0.586936 0.240890
vt 0.093794 0.329117
vt 0.319305 0.680582
vt 0.367475 0.658488
vt 0.323520 0.688929
vt 0.133357 0.167604
vt 0.185417 0.160525
vt 0.182229 0.209115
vt 0.122208 0.567148
vt 0.072245 0.624245
vt 0.071216 0.566611
vt 0.138812 0.212700
vt 0.072803 0.508962
vt 0.124482 0.511184
vt 0.123064 0.623210
vt 0.085817 0.190782
vt 0.488908 0.724401
vt 0.662346 0.541227
vt 0.194299 0.585294
vt 0.738368 0.225539
vt 0.690840 0.227315
vt 0.710181 0.174649
vt 0.224678 0.634368
vt 0.369377 0.393833
vt 0.439423 0.407939
vt 0.358649 0.252846
vt 0.367637 0.206233
vt 0.002017 0.301172
vt 0.068382 0.136406
vt 0.645170 0.217557
vt 0.698389 0.173713
vt 0.538385 0.654509
vt 0.587657 0.656128
vt 0.526954 0.563054
vt 0.401864 0.440324
vt 0.557700 0.524208
vt 0.608778 0.820055
vt 0.558357 0.828026
vt 0.726392 0.734331
vt 0.361446 0.755239
vt 0.708128 0.679572
vt 0.892450 0.981271
vt 0.172918 0.753197
vt 0.125820 0.754110
vt 0.721500 0.934255
vt 0.629561 0.146550
vt 0.017858 0.131263
vt 0.281438 0.270614
vt 0.058174 0.324535
vt 0.102198 0.275448
vt 0.370876 0.665042
vt 0.344076 0.723942
vt 0.439943 0.068382
vt 0.268566 0.120517
vt 0.267515 0.068973
vt 0.439152 0.120241
vt 0.281438 0.223292
vt 0.473387 0.932078
vt 0.505114 0.984870
vt 0.468728 0.983662
vt 0.505719 0.933977
vt 0.957587 0.593951
vt 0.887612 0.880744
vt 0.438394 0.684560
vt 0.882514 0.462752
vt 0.930312 0.470479
vt 0.908520 0.515660
vt 0.851676 0.468713
vt 0.722738 0.985767
vt 0.674660 0.986837
vt 0.674603 0.935394
vt 0.451536 0.417133
vt 0.123897 0.659131
vt 0.124482 0.829813
vt 0.073442 0.829882
vt 0.072555 0.659809
vt 0.037069 0.064754
vt 0.001325 0.066747
vt 0.037068 0.063821
vt 0.072164 0.066751
vt 0.866441 0.513812
vt 0.689961 0.511237
vt 0.700166 0.557464
vt 0.387067 0.685554
vt 0.985047 0.839252
vt 0.844118 0.802243
vt 0.853447 0.798356
vt 0.075592 0.452683
vt 0.238140 0.174070
vt 0.175330 0.639519
vt 0.886007 0.829205
vt 0.977817 0.490844
vt 0.223093 0.218295
vt 0.962906 0.557464
vt 0.133204 0.215806
vt 0.062331 0.218295
vt 0.909426 0.900241
vt 0.134151 0.083421
vt 0.389371 0.436603
vt 0.596497 0.602533
vt 0.381940 0.873034
vt 0.413137 0.929372
vt 0.391840 0.933170
vt 0.055217 0.110702
vt 0.110049 0.094381
vt 0.055219 0.111854
vt 0.000782 0.094376
s 1
usemtl Material.003
f 1/1/1 21/2/1 157/3/1
f 1/4/2 32/5/2 112/6/2
f 1/1/1 37/7/1 21/2/1
f 1/8/3 112/9/4 37/10/5
f 1/4/2 157/11/2 32/5/2
f 2/12/6 16/13/7 44/14/8
f 2/15/9 74/16/10 158/17/11
f 2/12/6 88/18/12 16/13/7
f 2/15/13 107/19/13 136/20/13
f 2/21/14 113/22/14 138/23/14
f 2/15/15 136/20/15 88/24/15
f 2/15/9 158/17/11 107/19/16
f 3/25/17 98/26/18 128/27/19
f 3/28/20 118/29/20 135/30/20
f 3/25/17 128/27/19 139/31/21
f 3/25/22 135/32/22 98/26/22
f 3/28/23 139/33/24 118/29/25
f 4/34/26 20/35/27 127/36/28
f 4/37/29 58/38/30 66/39/31
f 4/37/29 66/39/31 160/40/32
f 4/37/33 80/41/34 111/42/35
f 4/34/26 127/36/28 58/43/36
f 4/34/26 156/44/37 20/35/27
f 4/37/33 160/40/38 80/41/34
f 5/45/39 29/46/39 148/47/39
f 5/48/40 65/49/41 120/50/42
f 5/48/40 92/51/43 65/49/41
f 5/48/40 120/50/42 130/52/44
f 5/45/45 130/53/46 29/46/47
f 5/45/48 148/47/48 92/54/48
f 6/55/49 14/56/49 101/57/49
f 6/55/50 28/58/51 76/59/52
f 6/60/53 34/61/54 28/62/55
f 6/60/53 50/63/56 34/61/54
f 6/55/50 76/59/52 125/64/57
f 6/60/53 101/65/58 50/63/56
f 6/55/59 125/64/59 14/56/59
f 7/66/1 31/67/1 106/68/1
f 7/69/60 63/70/60 31/71/60
f 7/72/61 70/73/62 63/74/63
f 7/72/61 106/75/61 70/73/62
f 8/76/64 57/77/65 124/78/66
f 8/79/67 72/80/68 57/81/69
f 8/79/70 99/82/70 72/80/70
f 8/79/71 119/83/71 99/82/71
f 9/84/72 49/85/73 145/86/74
f 9/84/75 115/87/75 156/44/75
f 9/88/76 126/89/76 141/90/76
f 9/88/77 141/90/77 49/91/77
f 9/84/78 145/86/78 115/87/78
f 9/88/79 156/92/79 126/89/79
f 10/93/80 38/94/80 90/95/80
f 10/93/81 44/96/81 84/97/81
f 10/98/82 84/99/82 93/100/82
f 10/93/83 90/95/83 44/96/83
f 10/93/84 93/101/84 38/94/84
f 11/102/85 19/103/85 22/104/85
f 11/102/85 22/104/85 27/105/85
f 11/106/86 27/107/87 79/108/88
f 11/109/89 79/110/89 163/111/89
f 11/109/90 163/111/90 19/112/90
f 12/113/91 34/114/91 92/54/91
f 12/115/92 66/116/93 82/117/94
f 12/113/95 92/54/95 148/47/95
f 12/118/96 123/119/96 34/120/96
f 12/121/97 148/122/97 150/123/97
f 12/115/92 160/124/98 66/116/93
f 13/125/99 17/126/100 41/127/101
f 13/128/102 41/129/103 61/130/103
f 13/128/104 61/130/105 89/131/106
f 13/125/99 89/132/107 17/126/100
f 14/56/108 83/133/108 101/57/108
f 14/134/109 118/135/110 83/136/111
f 14/134/64 125/137/112 142/138/113
f 15/139/114 26/140/115 146/141/116
f 15/139/117 43/142/117 155/143/117
f 15/144/118 63/70/118 154/145/118
f 15/139/114 146/141/116 43/142/119
f 15/144/120 154/145/120 26/146/120
f 15/144/118 155/147/121 63/70/118
f 16/148/122 64/149/122 119/150/123
f 16/148/122 72/151/124 64/149/122
f 16/148/125 84/97/125 44/96/125
f 16/13/7 88/18/12 72/152/126
f 16/148/127 119/150/127 84/97/127
f 17/153/128 33/154/128 41/155/128
f 17/153/129 64/149/129 72/151/129
f 17/153/129 72/151/129 33/154/130
f 17/126/100 89/132/107 64/156/131
f 18/157/132 52/158/133 144/159/134
f 18/157/135 78/160/136 52/158/137
f 18/161/138 94/162/138 162/163/138
f 18/161/139 97/164/139 94/162/139
f 18/161/140 144/165/141 97/164/142
f 18/157/135 162/166/143 78/160/136
f 19/167/144 71/168/145 22/169/146
f 19/167/144 163/170/147 71/168/145
f 20/171/148 115/172/148 123/173/148
f 20/171/149 123/173/149 127/174/149
f 20/35/150 156/44/150 115/87/150
f 21/2/151 37/7/151 137/175/151
f 21/2/152 100/176/153 157/3/154
f 21/2/155 137/175/155 100/177/155
f 22/169/156 62/178/156 117/179/156
f 22/169/157 71/168/157 62/178/157
f 22/104/158 117/180/159 27/105/160
f 23/181/161 47/182/161 55/183/161
f 23/181/85 55/183/85 39/184/85
f 23/185/162 86/186/162 122/187/162
f 23/185/163 122/187/163 47/188/163
f 24/189/164 28/62/55 123/173/165
f 24/190/166 40/191/166 28/58/166
f 24/189/167 68/192/168 95/193/169
f 24/190/170 95/194/171 40/191/172
f 25/195/173 33/196/174 104/197/175
f 25/198/176 41/155/176 33/154/176
f 25/199/103 61/130/103 41/129/103
f 25/195/177 104/197/177 61/200/177
f 26/140/115 78/201/178 146/141/116
f 26/140/115 85/202/178 78/201/178
f 26/146/179 94/203/179 85/204/179
f 26/146/180 154/145/180 94/203/180
f 27/107/87 109/205/181 159/206/182
f 27/105/160 117/180/159 109/207/183
f 27/107/87 159/206/182 79/108/88
f 28/62/55 34/61/54 123/173/165
f 28/58/184 40/191/184 76/59/184
f 29/208/185 69/209/186 103/210/187
f 29/208/185 80/211/188 148/212/189
f 29/208/185 103/210/187 80/211/188
f 29/46/47 130/53/46 69/213/190
f 30/214/191 42/215/192 109/205/193
f 30/214/194 58/43/194 74/216/194
f 30/214/195 74/216/195 42/215/195
f 30/217/196 105/218/196 58/38/196
f 30/217/197 109/207/198 105/218/199
f 31/71/60 63/70/60 155/147/60
f 31/67/1 91/219/1 106/68/1
f 31/67/200 155/143/201 91/219/202
f 32/220/203 45/221/203 140/222/203
f 32/220/204 100/176/204 45/221/204
f 32/5/205 140/223/206 112/6/207
f 32/220/208 157/3/154 100/176/153
f 33/196/174 56/224/209 104/197/175
f 33/196/174 72/152/210 56/224/209
f 34/225/211 50/226/211 142/227/211
f 34/114/212 82/228/212 127/229/212
f 34/114/213 127/229/213 92/54/213
f 35/230/214 83/136/111 147/231/215
f 35/232/216 98/233/216 83/133/216
f 35/232/217 128/234/217 98/233/217
f 35/235/218 139/33/218 128/236/218
f 35/235/219 147/237/219 139/33/219
f 36/238/220 56/239/220 136/20/220
f 36/240/221 64/156/221 89/132/221
f 36/238/222 89/131/223 104/241/224
f 36/238/222 104/241/224 56/239/225
f 37/10/5 112/9/4 137/242/226
f 38/243/227 51/244/228 110/245/229
f 38/94/230 93/101/231 51/246/232
f 38/243/227 110/245/229 132/247/233
f 38/243/234 132/247/235 90/248/236
f 39/249/237 55/183/237 114/250/237
f 39/251/139 59/252/139 143/253/139
f 39/249/238 75/254/239 121/255/240
f 39/251/139 87/256/139 59/252/139
f 39/257/241 110/258/241 87/259/241
f 39/249/238 114/250/242 75/254/239
f 39/260/243 121/261/243 132/262/243
f 40/263/244 92/51/43 127/264/245
f 40/191/172 95/194/171 156/92/246
f 40/263/244 111/265/247 92/51/43
f 40/263/244 127/264/245 76/266/248
f 42/267/249 62/268/249 71/269/249
f 42/267/250 71/269/250 159/270/250
f 42/267/251 74/271/251 82/272/251
f 42/267/252 82/272/252 62/268/252
f 42/215/192 159/206/253 109/205/193
f 43/273/254 70/274/254 106/275/254
f 43/142/255 91/219/202 155/143/201
f 43/273/254 106/275/254 91/276/254
f 43/273/256 146/277/257 70/274/258
f 44/14/8 90/248/236 74/278/259
f 45/221/260 60/279/260 140/222/260
f 45/280/261 100/177/262 161/281/263
f 45/280/264 161/281/264 60/282/264
f 46/283/265 84/284/266 107/285/267
f 46/286/268 86/287/268 138/288/268
f 46/283/265 107/285/267 158/289/269
f 46/286/270 113/290/270 84/291/270
f 46/286/271 131/292/271 86/287/271
f 46/286/272 138/288/272 113/290/272
f 46/283/265 158/289/269 131/293/273
f 47/188/163 122/187/163 151/294/163
f 47/182/274 151/295/274 55/183/274
f 48/296/275 112/6/207 140/223/206
f 48/297/276 133/298/277 161/299/278
f 48/297/276 137/242/226 112/9/4
f 48/296/279 140/223/280 144/159/281
f 48/296/279 144/159/281 133/300/282
f 48/297/276 161/299/278 137/242/226
f 49/85/73 116/301/283 145/86/74
f 49/85/284 141/302/284 116/301/284
f 50/63/285 101/65/285 135/32/285
f 51/244/228 67/303/286 102/304/287
f 51/246/232 93/101/231 143/305/288
f 51/244/228 102/304/287 110/245/229
f 51/246/2 143/305/2 67/306/2
f 52/307/289 78/201/178 85/202/178
f 52/307/289 85/202/178 152/308/290
f 52/158/133 133/300/291 144/159/134
f 52/307/289 152/308/290 133/298/292
f 53/309/293 68/192/294 145/310/295
f 53/311/296 95/193/169 68/192/168
f 53/311/296 108/312/297 126/313/298
f 53/309/299 116/314/300 108/315/301
f 53/311/296 126/313/298 95/193/169
f 53/309/299 145/310/302 116/314/300
f 54/316/303 63/74/63 70/73/62
f 54/317/304 70/274/258 146/277/257
f 54/317/305 78/160/306 162/166/307
f 54/317/305 146/277/308 78/160/306
f 54/316/303 154/318/309 63/74/63
f 54/316/303 162/163/310 154/318/309
f 55/183/311 151/295/311 114/250/311
f 56/224/312 72/152/312 88/18/312
f 56/239/313 88/24/313 136/20/313
f 57/81/69 72/80/68 149/319/314
f 57/77/65 73/320/315 153/321/316
f 57/81/85 149/319/317 73/322/318
f 57/77/65 153/321/316 124/78/66
f 58/38/319 150/323/319 66/39/319
f 59/324/2 67/306/2 143/305/2
f 59/252/320 87/256/320 67/325/320
f 60/279/321 97/326/142 144/327/141
f 60/279/321 144/327/141 140/222/322
f 60/282/323 152/328/324 97/329/324
f 60/282/325 161/281/325 152/328/325
f 61/130/105 104/241/106 89/131/106
f 62/178/326 82/117/326 117/179/326
f 65/49/41 92/51/43 111/265/247
f 65/330/327 96/331/327 120/332/327
f 65/330/327 103/333/327 96/331/327
f 65/330/328 111/42/328 103/333/328
f 67/325/329 87/256/329 102/334/329
f 68/335/330 77/336/331 129/337/332
f 68/192/294 115/172/333 145/310/295
f 68/335/330 124/338/334 77/336/331
f 69/209/186 96/339/335 103/210/187
f 69/213/336 130/53/336 96/340/336
f 71/269/337 163/341/338 159/270/339
f 72/342/340 99/343/341 129/344/342
f 72/342/340 129/344/342 149/345/343
f 73/322/344 81/346/344 134/347/344
f 73/322/345 134/347/345 153/348/345
f 73/322/318 149/319/317 81/346/346
f 74/278/259 90/248/236 132/247/235
f 74/16/347 132/262/347 158/17/347
f 75/254/348 93/349/348 121/255/348
f 75/350/349 114/351/349 151/352/349
f 75/350/350 122/353/350 131/292/350
f 75/354/351 131/355/351 143/356/351
f 75/354/352 143/356/352 93/357/352
f 75/350/353 151/352/353 122/353/353
f 76/266/354 127/264/355 142/138/113
f 76/266/354 142/138/113 125/137/112
f 77/358/356 81/359/357 149/345/343
f 77/336/358 124/338/358 134/347/358
f 77/358/356 134/360/359 81/359/357
f 77/358/356 149/345/343 129/344/342
f 79/361/360 159/270/339 163/341/338
f 80/41/361 103/333/361 111/42/361
f 80/211/362 160/362/363 148/212/364
f 82/117/94 105/363/365 117/179/366
f 82/117/94 150/364/367 105/363/365
f 83/133/368 98/233/368 101/57/368
f 83/136/111 118/135/110 147/231/215
f 84/291/369 113/290/369 99/365/369
f 84/284/266 119/366/370 107/285/267
f 85/204/371 94/203/371 97/329/371
f 85/204/372 97/329/324 152/328/324
f 86/287/373 131/292/373 122/353/373
f 87/259/374 110/258/374 102/367/374
f 94/162/375 154/318/375 162/163/375
f 95/194/376 126/89/376 156/92/376
f 96/340/377 130/53/377 120/368/377
f 98/26/378 135/32/378 101/65/378
f 99/343/341 113/369/178 129/344/342
f 100/177/262 137/175/379 161/281/263
f 105/218/199 109/207/198 117/180/380
f 107/285/267 119/366/370 136/370/381
f 107/371/382 129/344/382 113/369/382
f 108/312/383 116/301/383 141/302/383
f 108/312/297 141/302/384 126/313/298
f 118/29/25 139/33/24 147/237/385
f 121/372/386 131/293/386 158/289/386
f 121/372/387 143/373/387 131/293/387
f 121/261/388 158/17/388 132/262/388
f 124/338/358 153/348/358 134/347/358
f 133/298/389 152/308/389 161/299/389
f 148/212/364 160/362/363 150/374/390
f 66/116/93 150/364/367 82/117/94
f 58/38/391 105/218/391 150/323/391
f 12/121/392 150/123/392 160/375/392
f 2/12/6 44/14/8 74/278/259
f 127/376/393 82/272/393 74/271/393
f 74/216/394 58/43/36 127/36/28
f 118/135/110 14/134/109 142/138/395
f 135/30/396 118/29/396 142/227/396
f 135/30/397 142/227/397 50/226/397
f 68/192/398 24/189/398 164/377/398
f 24/189/399 123/173/399 164/377/399
f 123/173/400 115/172/400 164/377/400
f 115/172/401 68/192/401 164/377/401
f 142/227/402 127/378/402 82/379/402
f 82/379/403 34/225/403 165/380/403
f 34/225/403 142/227/403 165/380/403
f 142/227/403 82/379/403 165/380/403
f 4/381/404 111/382/404 40/383/404
f 156/384/405 4/381/405 40/383/405
