# Blender 4.4.0
# www.blender.org
mtllib Meshy_AI_Blue_Shield_0825070515_texture.mtl
o Meshy_AI_Blue_Shield_0825070515_texture
v 0.000154 -0.046143 0.021729
v 0.233398 -0.275391 -0.032959
v -0.159180 0.359375 0.000353
v -0.192383 -0.226562 -0.007050
v 0.376953 0.335938 -0.045166
v 0.058350 -0.431641 0.000282
v -0.375000 0.158203 -0.031250
v -0.283203 -0.202148 -0.000824
v 0.158203 0.361328 -0.018677
v 0.255859 -0.291016 0.000412
v -0.257812 0.037354 -0.015198
v -0.165039 -0.347656 -0.032227
v 0.371094 0.158203 0.000854
v 0.190430 -0.228516 -0.019775
v -0.376953 0.337891 -0.019653
v -0.361328 0.038330 -0.019775
v 0.089844 0.423828 0.003082
v 0.234375 -0.275391 -0.049561
v -0.184570 0.275391 -0.004730
v 0.000216 -0.500000 0.001434
v 0.390625 0.036865 -0.049072
v 0.191406 -0.227539 -0.006775
v -0.263672 0.333984 -0.048828
v -0.165039 -0.345703 -0.019043
v 0.159180 0.361328 -0.048340
v 0.375000 -0.049561 0.002960
v 0.000364 0.466797 -0.046143
v -0.236328 -0.275391 -0.032471
v 0.265625 0.332031 0.000317
v 0.000542 -0.468750 -0.032715
v -0.390625 0.036865 0.001274
v -0.347656 -0.134766 0.001236
v 0.072266 0.406250 -0.031738
v 0.132812 -0.410156 0.001411
v -0.248047 -0.045410 -0.014954
v -0.114746 -0.390625 -0.050049
v 0.369141 0.103027 -0.020264
v 0.227539 -0.128906 -0.016235
v -0.273438 0.363281 0.001495
v -0.132812 -0.412109 -0.051025
v 0.259766 0.038330 -0.002243
v 0.349609 -0.133789 -0.049561
v 0.000572 0.462891 -0.031738
v -0.226562 -0.128906 -0.004303
v 0.275391 0.363281 -0.050049
v 0.058105 -0.429688 -0.019531
v -0.400391 0.158203 -0.049561
v -0.306641 -0.215820 0.000938
v 0.110352 0.384766 -0.047852
v 0.347656 -0.045898 -0.018921
v -0.090820 0.425781 -0.049805
v 0.000854 -0.223633 0.007721
v 0.376953 0.339844 0.001465
v 0.070801 -0.455078 -0.050537
v -0.369141 0.105957 -0.019897
v -0.375000 -0.049316 -0.050049
v 0.072266 0.402344 0.001625
v 0.234375 -0.275391 -0.018311
v -0.113770 -0.390625 -0.019287
v 0.361328 0.037354 -0.049072
v -0.000072 -0.330078 0.014648
v -0.376953 0.335938 -0.045410
v -0.373047 -0.049316 0.001740
v 0.000220 0.462891 -0.044434
v 0.164062 -0.347656 -0.001282
v -0.373047 0.158203 -0.049072
v -0.057861 -0.431641 -0.033447
v 0.345703 -0.045166 -0.000009
v 0.164062 -0.349609 -0.049316
v -0.265625 0.333984 -0.018799
v -0.165039 -0.347656 -0.049561
v 0.183594 0.273438 -0.016235
v 0.375000 -0.049561 -0.049072
v -0.000224 0.500000 0.003387
v -0.191406 -0.227539 -0.020020
v 0.265625 0.330078 -0.048828
v -0.000196 -0.466797 0.000755
v -0.363281 0.037598 -0.049316
v -0.255859 -0.292969 0.001457
v 0.247070 0.162109 -0.014099
v 0.320312 -0.125000 0.000008
v -0.071777 0.404297 -0.031982
v 0.000675 -0.127930 0.016602
v 0.410156 0.369141 -0.050293
v 0.165039 -0.347656 -0.032715
v -0.248047 0.161133 -0.002151
v -0.287109 -0.203125 -0.031494
v 0.159180 0.359375 0.000454
v 0.183594 -0.367188 -0.051025
v -0.000402 0.040527 0.046631
v -0.164062 -0.345703 -0.001671
v 0.371094 0.158203 -0.019653
v 0.000866 -0.127930 0.033691
v -0.410156 0.369141 -0.050537
v -0.308594 -0.216797 -0.050049
v -0.000144 0.160156 0.036621
v 0.283203 -0.202148 -0.049316
v -0.181641 0.386719 0.001923
v -0.127930 -0.335938 -0.017456
v 0.376953 0.337891 -0.032227
v 0.070801 -0.453125 0.001884
v -0.345703 -0.046143 -0.049072
v -0.347656 -0.046875 -0.018677
v 0.159180 0.394531 -0.050293
v 0.308594 -0.215820 0.001442
v 0.001320 0.275391 0.006500
v -0.069824 -0.455078 -0.050537
v 0.361328 0.037109 -0.019043
v 0.125977 -0.333984 -0.015747
v -0.378906 0.339844 0.000896
v -0.320312 -0.125000 -0.049316
v 0.072266 0.404297 -0.018799
v 0.114258 -0.392578 -0.032471
v -0.259766 0.037842 -0.001602
v -0.057617 -0.429688 -0.019775
v 0.402344 0.157227 -0.049561
v 0.250000 -0.045654 -0.002487
v -0.265625 0.333984 -0.029663
v -0.181641 -0.367188 0.000999
v 0.257812 0.039307 -0.014832
v 0.285156 -0.203125 -0.019653
v -0.159180 0.361328 -0.048096
v -0.322266 -0.125000 -0.030640
v 0.217773 0.376953 0.001930
v 0.000233 -0.464844 -0.047363
v -0.402344 0.158203 0.001663
v -0.349609 -0.134766 -0.049805
v 0.000003 0.460938 -0.019287
v 0.132812 -0.414062 -0.050537
v -0.246094 0.162109 -0.014404
v -0.114258 -0.390625 -0.001060
v 0.371094 0.157227 -0.032227
v 0.227539 -0.127930 -0.004486
v -0.273438 0.363281 -0.049805
v -0.132812 -0.412109 0.001389
v 0.249023 -0.045898 -0.014771
v 0.349609 -0.133789 0.001907
v -0.072754 0.404297 -0.019897
v -0.285156 -0.203125 -0.049316
v 0.273438 0.363281 0.001060
v 0.058105 -0.429688 -0.048828
v -0.371094 0.159180 0.001266
v -0.257812 -0.292969 -0.050537
v 0.000736 0.277344 0.026855
v 0.347656 -0.046875 -0.031250
v -0.090820 0.423828 0.003143
v 0.000380 -0.328125 -0.004791
v 0.378906 0.339844 -0.048340
v 0.113770 -0.388672 -0.000683
v -0.363281 0.037598 -0.032715
v -0.345703 -0.046387 0.000271
v 0.090332 0.427734 -0.050293
v 0.285156 -0.203125 -0.032227
v -0.068848 0.404297 -0.046875
v -0.114258 -0.390625 -0.033203
v 0.363281 0.038086 0.000572
v 0.125977 -0.335938 -0.023560
v -0.410156 0.369141 0.003937
v 0.000496 0.040283 0.025757
v 0.283203 -0.203125 -0.000942
v -0.159180 0.363281 -0.031250
v -0.227539 -0.127930 -0.016602
v 0.408203 0.369141 0.002625
v 0.114258 -0.390625 -0.048828
v -0.375000 0.159180 -0.019165
v -0.234375 -0.275391 -0.049805
v 0.267578 0.332031 -0.018921
v 0.257812 -0.292969 -0.050537
v -0.000100 -0.045166 0.042969
v -0.058105 -0.429688 0.000015
v 0.371094 0.159180 -0.048584
v 0.000402 -0.222656 0.028931
v -0.376953 0.337891 -0.031982
v -0.347656 -0.047607 -0.031494
v -0.000089 0.500000 -0.048828
v 0.233398 -0.275391 -0.001205
v -0.182617 0.271484 -0.015442
v -0.000246 -0.500000 -0.049805
v 0.390625 0.037354 0.002426
v 0.163086 -0.345703 -0.018433
v -0.263672 0.333984 0.000782
v -0.234375 -0.273438 -0.018799
v 0.182617 0.273438 -0.004211
v 0.345703 -0.045166 -0.048340
v 0.000519 0.466797 0.002228
v -0.234375 -0.273438 -0.001152
v 0.265625 0.332031 -0.030762
v 0.000332 -0.468750 -0.019897
v -0.392578 0.036865 -0.049316
v -0.283203 -0.203125 -0.019043
v 0.059814 0.408203 -0.046387
v 0.322266 -0.125977 -0.019775
v -0.189453 0.382812 -0.050537
v -0.126953 -0.333984 -0.023804
v 0.375000 0.337891 -0.019897
v 0.058350 -0.431641 -0.033447
v -0.361328 0.038330 0.000572
v -0.320312 -0.125000 -0.018921
v 0.160156 0.394531 0.002518
v 0.308594 -0.215820 -0.050537
v 0.000096 0.160156 0.018311
v -0.069824 -0.453125 0.001595
v 0.363281 0.037109 -0.031494
v 0.113281 -0.390625 -0.019043
v -0.378906 0.341797 -0.048096
v -0.318359 -0.124512 -0.000427
v 0.158203 0.361328 -0.031250
v 0.181641 -0.365234 0.000561
v -0.259766 0.043701 -0.015991
v -0.058105 -0.431641 -0.049072
v 0.402344 0.157227 0.002289
v 0.320312 -0.125977 -0.048828
v -0.158203 0.361328 -0.019165
v -0.182617 -0.367188 -0.051025
v 0.247070 0.164062 -0.002136
v 0.322266 -0.126953 -0.031738
v -0.071777 0.402344 0.001442
v -0.250000 -0.045410 -0.002777
v 0.217773 0.378906 -0.050537
vn 0.1459 0.0607 -0.9874
vn 0.1467 0.0493 -0.9880
vn 0.1462 0.0455 -0.9882
vn -0.1444 0.0562 -0.9879
vn -0.1432 0.0596 -0.9879
vn -0.1427 0.0610 -0.9879
vn 0.1437 0.0628 -0.9876
vn 0.1449 0.0605 -0.9876
vn -0.1449 0.0549 -0.9879
vn -0.1450 0.0466 -0.9883
vn -0.1625 0.1263 -0.9786
vn -0.7259 0.6865 -0.0427
vn -0.7256 0.6870 -0.0394
vn -0.7258 0.6867 -0.0415
vn -0.1496 0.1382 -0.9790
vn -0.8310 0.5541 -0.0489
vn -0.8072 0.5769 0.1252
vn 0.0093 -0.0212 0.9997
vn 0.0086 -0.0217 0.9997
vn 0.0005 -0.0244 0.9997
vn 0.2455 -0.9657 -0.0843
vn 0.0087 -0.0501 0.9987
vn 0.0107 -0.0484 0.9988
vn 0.0083 -0.0506 0.9987
vn 0.2360 -0.9715 -0.0235
vn 0.4409 -0.8950 -0.0675
vn 0.0112 -0.0481 0.9988
vn -0.0153 -0.1036 0.9945
vn -0.1520 -0.0809 0.9851
vn -0.1525 -0.0770 0.9853
vn -0.1537 -0.0783 0.9850
vn -0.1638 -0.0850 0.9828
vn -0.1761 -0.1956 0.9648
vn -0.1823 -0.0485 0.9820
vn -0.1310 -0.1290 0.9830
vn -0.1569 -0.1056 0.9820
vn 0.0591 -0.6472 -0.7601
vn 0.0539 -0.9874 0.1490
vn -0.9995 0.0329 0.0015
vn -0.9995 0.0326 -0.0025
vn -0.9995 0.0324 -0.0049
vn -0.8714 0.0383 -0.4890
vn -0.9994 0.0331 0.0039
vn 0.0487 -0.9930 0.1073
vn -0.0330 0.0635 0.9974
vn -0.0325 0.0591 0.9977
vn -0.0403 0.0635 0.9972
vn -0.5122 0.8541 0.0905
vn -0.0272 0.0587 0.9979
vn -0.0274 0.0587 0.9979
vn -0.6121 0.7879 -0.0675
vn -0.5761 0.8127 0.0872
vn 0.9940 0.0112 0.1089
vn 0.9909 0.0800 0.1086
vn 0.1314 -0.0728 -0.9886
vn 0.1288 0.0246 -0.9914
vn 0.9953 0.0967 -0.0000
vn 0.0207 -0.0038 -0.9998
vn 0.0594 0.0268 0.9979
vn 0.0596 0.0265 0.9979
vn 0.0558 0.0330 0.9979
vn 0.0555 0.0334 0.9979
vn 0.8210 0.5701 -0.0306
vn 0.8250 0.5651 -0.0000
vn 0.9107 0.4125 -0.0221
vn 0.0505 0.0177 0.9986
vn 0.0518 0.0138 0.9986
vn 0.0527 0.0092 0.9986
vn -0.4455 -0.8912 -0.0852
vn -0.4429 -0.8939 -0.0686
vn 0.1328 0.2683 0.9541
vn 0.1691 0.2056 0.9639
vn -0.2580 -0.9624 -0.0851
vn 0.0492 0.1755 0.9832
vn -0.0743 0.0385 0.9965
vn -0.0802 0.0265 0.9964
vn -0.0744 0.0381 0.9965
vn -0.0503 0.0310 0.9983
vn 0.8341 -0.5490 0.0530
vn -0.0416 0.0436 0.9982
vn 0.8187 -0.5742 -0.0000
vn 0.7061 -0.7060 0.0541
vn 0.7060 -0.7062 0.0537
vn 0.7061 -0.7061 0.0539
vn 0.1639 0.0161 -0.9864
vn 0.1566 0.0154 -0.9875
vn 0.1637 0.0161 -0.9864
vn 0.1564 0.0155 -0.9876
vn 0.1639 0.0159 -0.9864
vn 0.1628 -0.0734 -0.9839
vn 0.1577 -0.0750 -0.9846
vn 0.1570 -0.0747 -0.9848
vn 0.1345 0.1294 -0.9824
vn 0.6496 0.7603 -0.0000
vn 0.7119 0.7023 -0.0000
vn 0.1672 0.1359 -0.9765
vn 0.6456 0.7634 -0.0187
vn 0.1451 0.1935 -0.9703
vn 0.1358 0.1919 -0.9720
vn 0.1430 0.1931 -0.9707
vn -0.9949 0.0649 -0.0775
vn -0.9956 0.0318 0.0881
vn -0.9994 0.0348 -0.0000
vn -0.9996 0.0286 -0.0000
vn -0.9994 0.0354 -0.0000
vn -0.0676 0.0021 0.9977
vn -0.0455 0.0053 0.9989
vn -0.0457 0.0056 0.9989
vn -0.0395 -0.0000 0.9992
vn -0.9998 0.0217 -0.0000
vn -0.0434 -0.0016 0.9991
vn -0.1426 0.0955 -0.9852
vn -0.1534 0.0926 -0.9838
vn -0.1541 0.0924 -0.9837
vn -0.1406 0.0912 -0.9858
vn -0.1420 0.0886 -0.9859
vn -0.1844 0.1449 -0.9721
vn -0.1395 0.1184 -0.9831
vn -0.0351 -0.9994 0.0035
vn 0.9956 0.0111 0.0936
vn -0.0076 0.0026 1.0000
vn -0.0505 -0.9947 0.0897
vn 0.9934 0.1148 -0.0000
vn -0.1763 -0.0158 0.9842
vn -0.1762 -0.0156 0.9842
vn -0.1762 -0.0183 0.9842
vn -0.1762 -0.0186 0.9842
vn 0.9821 0.1562 -0.1053
vn 0.9834 0.1814 -0.0000
vn -0.0151 -0.0554 0.9984
vn -0.0274 -0.0373 0.9989
vn -0.0266 -0.0355 0.9990
vn -0.0293 -0.0411 0.9987
vn 0.6237 0.7791 0.0627
vn 0.6457 0.7635 0.0017
vn -0.0302 -0.0430 0.9986
vn 0.3841 0.9206 0.0709
vn -0.7255 0.6872 -0.0381
vn -0.0487 0.0429 -0.9979
vn -0.0488 0.0427 -0.9979
vn -0.0446 0.0406 -0.9982
vn -0.0321 0.0251 -0.9992
vn -0.0347 0.0248 -0.9991
vn -0.0302 0.0207 -0.9993
vn -0.0228 0.0283 -0.9993
vn -0.0210 0.0275 -0.9994
vn -0.1111 0.0841 0.9902
vn -0.1532 0.1073 0.9824
vn -0.1683 0.0831 0.9822
vn -0.1664 0.2128 0.9628
vn -0.0420 0.1780 0.9831
vn 0.0161 0.0206 0.9997
vn -0.0198 0.0202 0.9996
vn -0.5424 -0.8401 0.0049
vn 0.5532 -0.8330 -0.0050
vn 0.5467 -0.8373 0.0079
vn 0.5411 -0.8408 0.0187
vn -0.5559 -0.8307 0.0311
vn -0.5506 -0.8342 0.0313
vn -0.5457 -0.8374 0.0314
vn 0.9841 -0.1777 0.0003
vn 0.9842 -0.1771 0.0014
vn 0.9840 -0.1779 -0.0000
vn -0.0000 0.0020 -1.0000
vn -0.0000 0.0021 -1.0000
vn 0.0001 0.0040 -1.0000
vn -0.0000 -0.0000 -1.0000
vn 0.9953 -0.0969 0.0009
vn 0.9953 -0.0969 0.0008
vn 0.9953 -0.0972 0.0001
vn -0.0313 -0.0010 -0.9995
vn -0.0314 -0.0009 -0.9995
vn -0.0312 0.0026 -0.9995
vn 0.9842 -0.1769 0.0017
vn 0.1594 -0.0938 0.9827
vn 0.1823 -0.0502 0.9820
vn 0.0381 -0.1071 0.9935
vn 0.1559 -0.0792 0.9846
vn 0.1581 -0.0774 0.9844
vn 0.1582 -0.0787 0.9843
vn 0.1655 -0.0826 0.9827
vn 0.1757 -0.1895 0.9660
vn 0.1232 -0.1266 0.9843
vn -0.0346 -0.4260 -0.9041
vn -0.0173 -0.9998 -0.0018
vn 0.2529 -0.9671 0.0258
vn 0.0145 -0.0285 -0.9995
vn -0.0088 -0.0363 -0.9993
vn -0.0317 -0.0417 0.9986
vn 0.6585 0.7517 -0.0370
vn 0.7216 0.6923 -0.0000
vn 0.7160 0.6969 -0.0403
vn -0.0141 -0.0326 -0.9994
vn -0.0381 -0.0587 -0.9975
vn -0.2798 -0.9545 0.1032
vn -0.0198 -0.0587 -0.9981
vn -0.2630 -0.9647 -0.0150
vn -0.4328 -0.9011 -0.0247
vn -0.0133 -0.0802 -0.9967
vn 0.9574 -0.2886 -0.0000
vn -0.0985 0.0156 0.9950
vn -0.0985 0.0155 0.9950
vn -0.0983 0.0172 0.9950
vn -0.0988 0.0139 0.9950
vn -0.0672 0.0182 0.9976
vn 0.0756 -0.0793 -0.9940
vn 0.3571 -0.3854 -0.8508
vn -0.0793 -0.0772 -0.9939
vn -0.0806 -0.0803 -0.9935
vn -0.0787 -0.0758 -0.9940
vn 0.0692 -0.0650 -0.9955
vn -0.0812 -0.0814 -0.9934
vn -0.3609 -0.3626 -0.8592
vn 0.7191 0.6902 0.0810
vn 0.1476 0.1170 -0.9821
vn 0.8153 0.5717 0.0919
vn 0.8152 0.5721 0.0899
vn 0.8153 0.5718 0.0913
vn -0.0087 -0.0220 0.9997
vn -0.0092 -0.0233 0.9997
vn -0.0089 -0.0265 0.9996
vn -0.2488 -0.9682 -0.0253
vn -0.0045 -0.0226 0.9997
vn 0.0545 -0.9985 0.0055
vn 0.0689 -0.9940 0.0846
vn 0.1349 0.1931 -0.9719
vn 0.1355 0.1918 -0.9720
vn 0.1353 0.1929 -0.9718
vn 0.5225 0.8265 0.2094
vn -0.1361 0.1928 -0.9718
vn -0.1357 0.1930 -0.9718
vn -0.1334 0.1944 -0.9718
vn -0.5237 0.8203 0.2298
vn -0.9972 -0.0641 0.0385
vn -0.9792 -0.1996 0.0371
vn -0.9791 -0.1999 0.0377
vn -0.9792 -0.1995 0.0369
vn 0.0234 0.0102 0.9997
vn -0.9947 -0.0959 -0.0379
vn 0.0155 -0.0024 0.9999
vn 0.0199 -0.0024 0.9998
vn 0.0127 0.0002 0.9999
vn -0.9791 -0.2000 0.0378
vn 0.0241 -0.0038 0.9997
vn -0.9579 -0.2846 0.0365
vn -0.9580 -0.2844 0.0366
vn -0.9580 -0.2845 0.0367
vn -0.9579 -0.2848 0.0361
vn -0.8918 -0.4505 0.0416
vn -0.8935 -0.4476 0.0355
vn -0.8914 -0.4512 0.0428
vn -0.8939 -0.4470 0.0342
vn 0.0533 0.0097 0.9985
vn 0.0528 0.0080 0.9986
vn -0.5711 -0.7228 0.3891
vn -0.4620 -0.8828 0.0852
vn -0.1564 -0.1980 -0.9677
vn -0.4045 -0.8863 0.2256
vn -0.1110 -0.2228 -0.9685
vn 0.6768 -0.7342 0.0535
vn 0.6770 -0.7340 0.0542
vn 0.6766 -0.7344 0.0534
vn 0.5688 -0.8202 0.0617
vn 0.6775 -0.7334 0.0551
vn -0.0399 0.0625 0.9973
vn 0.1627 0.0425 -0.9858
vn 0.1481 0.0565 -0.9874
vn 0.0169 0.0312 -0.9994
vn 0.5866 0.8097 -0.0170
vn 0.5877 0.8090 -0.0111
vn 0.5870 0.8095 -0.0151
vn 0.0311 0.0192 -0.9993
vn 0.1632 -0.0011 0.9866
vn 0.1391 -0.0159 0.9902
vn -0.9886 0.1189 0.0925
vn 0.1541 0.0147 0.9879
vn -0.1624 0.0594 -0.9849
vn -0.1631 0.0588 -0.9849
vn -0.1633 0.0586 -0.9848
vn -0.1626 0.0855 -0.9830
vn 0.0428 0.9991 -0.0000
vn -0.2471 0.9684 -0.0353
vn -0.0003 -0.0244 0.9997
vn 0.0140 -0.0885 0.9960
vn -0.2265 0.9740 -0.0000
vn -0.5635 -0.8261 -0.0000
vn -0.6697 -0.7425 0.0126
vn -0.6770 -0.7359 -0.0000
vn 0.0375 0.0436 -0.9983
vn 0.0379 0.0434 -0.9983
vn 0.0380 0.0434 -0.9983
vn 0.0373 0.0413 -0.9985
vn 0.0419 0.0375 -0.9984
vn 0.0378 0.0411 -0.9984
vn 0.1631 -0.0254 0.9863
vn 0.1658 -0.0225 0.9859
vn 0.1628 -0.0254 0.9863
vn 0.1844 -0.0243 0.9826
vn 0.1659 -0.0222 0.9859
vn 0.1847 0.0178 0.9826
vn 0.8944 -0.4472 -0.0000
vn -0.0229 0.0128 -0.9997
vn -0.0219 0.0128 -0.9997
vn -0.0231 0.0128 -0.9997
vn -0.0193 0.0215 -0.9996
vn -0.0181 0.0208 -0.9996
vn -0.6757 -0.7370 0.0187
vn 0.6293 -0.7770 -0.0174
vn 0.1624 -0.1965 -0.9669
vn -0.1633 -0.1118 0.9802
vn -0.1796 -0.0683 0.9814
vn -0.1567 -0.0760 0.9847
vn -0.1563 -0.0619 0.9858
vn -0.1595 -0.0591 0.9854
vn -0.1565 -0.0619 0.9857
vn 0.0011 -0.0677 -0.9977
vn -0.0434 0.9991 -0.0016
vn -0.0434 0.9991 -0.0017
vn 0.0077 -0.0390 -0.9992
vn 0.2616 0.9651 0.0100
vn 0.1551 -0.2384 0.9587
vn 0.2241 -0.1967 0.9545
vn -0.5573 0.8252 -0.0923
vn 0.0383 -0.0666 0.9970
vn 0.0477 -0.0686 0.9965
vn 0.0409 -0.0671 0.9969
vn 0.0179 0.0024 -0.9998
vn 0.0183 -0.0007 -0.9998
vn 0.0179 -0.0009 -0.9998
vn 0.0770 -0.0011 -0.9970
vn -0.9986 -0.0366 -0.0381
vn -0.9989 -0.0462 -0.0000
vn 0.0179 0.0059 -0.9998
vn 0.0719 0.0540 0.9960
vn 0.0707 0.0625 0.9955
vn 0.0719 0.0543 0.9959
vn -0.8347 -0.5491 0.0425
vn -0.8320 -0.5537 0.0328
vn -0.8343 -0.5498 0.0409
vn -0.0436 -0.0316 -0.9985
vn -0.9810 0.1614 -0.1076
vn -0.9473 0.3014 -0.1088
vn -0.9473 0.3013 -0.1091
vn -0.9472 0.3012 -0.1095
vn 0.1655 -0.0630 0.9842
vn 0.1653 -0.0633 0.9842
vn 0.1600 -0.0637 0.9851
vn -0.9473 0.3015 -0.1085
vn -0.6331 0.7740 -0.0016
vn -0.3784 0.9250 0.0341
vn -0.6433 0.7651 0.0282
vn 0.0460 -0.0886 -0.9950
vn -0.3993 0.9168 -0.0088
vn 0.1404 0.0917 -0.9858
vn 0.1401 0.0897 -0.9861
vn 0.1429 0.0869 -0.9859
vn 0.1397 0.1194 -0.9830
vn 0.1414 0.1171 -0.9830
vn 0.1411 0.1175 -0.9830
vn -0.1396 0.1184 -0.9831
vn 0.1394 0.1194 -0.9830
vn -0.0104 -0.0285 0.9995
vn -0.0366 -0.0006 0.9993
vn 0.5344 -0.8447 0.0315
vn -0.0507 0.0418 -0.9978
vn 0.5514 -0.8337 0.0311
vn -0.0334 0.0505 -0.9982
vn -0.0329 0.0476 -0.9983
vn -0.0333 0.0498 -0.9982
vn -0.0545 0.0699 -0.9961
vn -0.1324 -0.0282 0.9908
vn -0.1534 0.0190 0.9880
vn 0.9938 0.1096 -0.0171
vn 0.0327 0.0054 -0.9994
vn 0.0329 0.0040 -0.9995
vn 0.0326 0.0068 -0.9994
vn -0.0002 0.0085 -1.0000
vn -0.0001 0.0053 -1.0000
vn -0.0007 0.0083 -1.0000
vn -0.0106 -0.0486 0.9988
vn -0.0184 -0.0938 0.9954
vn -0.6669 -0.7417 -0.0709
vn -0.7209 0.6918 -0.0412
vn -0.8177 0.5737 -0.0467
vn -0.6972 0.7067 0.1201
vn 0.6695 0.7426 0.0179
vn -0.0178 -0.0381 0.9991
vn 0.5711 0.8207 0.0153
vn 0.5709 0.8209 0.0145
vn 0.5710 0.8208 0.0148
vn -0.0256 -0.0040 -0.9997
vn -0.9968 0.0799 0.0095
vn -0.9770 0.1821 0.1111
vn -0.9740 0.1856 0.1299
vn -0.9917 0.0652 0.1111
vn -0.2303 -0.1963 0.9531
vn 0.2287 -0.1293 0.9649
vn -0.1591 -0.2391 0.9579
vn -0.2361 -0.1271 0.9634
vn 0.8381 0.0296 -0.5447
vn -0.0377 -0.9889 0.1438
vn 0.9998 0.0220 -0.0032
vn 0.0530 0.0062 0.9986
vn 0.6392 -0.7587 0.1257
vn -0.0404 0.0641 0.9971
vn -0.6263 0.7698 0.1233
vn -0.0539 0.0507 0.9973
vn -0.0001 0.0020 -1.0000
vn 0.4948 0.8690 -0.0077
vn 0.5881 0.8087 -0.0092
vn -0.0590 0.0190 0.9981
vn -0.0575 0.0230 0.9981
vn -0.0587 0.0191 0.9981
vn -0.9749 0.2052 0.0868
vn -0.0476 0.0420 -0.9980
vn -0.0422 0.0394 -0.9983
vn -0.6351 0.7706 -0.0533
vn -0.1336 0.0815 0.9877
vn 0.0421 0.0370 -0.9984
vn -0.1250 -0.0985 -0.9873
vn -0.1288 -0.0924 -0.9874
vn -0.1282 -0.0933 -0.9873
vn -0.1234 -0.2016 -0.9717
vn -0.1149 -0.0845 -0.9898
vn -0.1242 -0.0999 -0.9872
vn -0.0448 -0.1808 -0.9825
vn 0.0261 -0.0343 0.9991
vn 0.1441 0.0812 -0.9862
vn 0.1459 0.0785 -0.9862
vn 0.0230 0.0558 0.9982
vn 0.0305 0.0522 0.9982
vn 0.0233 0.0558 0.9982
vn 0.5390 0.8398 -0.0656
vn 0.9787 0.2054 -0.0000
vn 0.0685 0.0602 0.9958
vn -0.8315 -0.5546 0.0312
vn 0.0714 0.0653 0.9953
vn -0.7021 -0.7115 0.0264
vn -0.7070 -0.7071 0.0133
vn -0.1553 -0.0077 -0.9878
vn -0.1462 -0.0069 -0.9892
vn -0.1558 -0.0077 -0.9878
vn -0.1449 -0.0068 -0.9894
vn -0.1294 -0.0619 -0.9897
vn -0.1473 -0.0806 -0.9858
vn -0.0577 0.0232 0.9981
vn -0.0805 0.0261 0.9964
vn -0.8973 0.4276 -0.1097
vn 0.1007 -0.2318 -0.9676
vn 0.4239 -0.9019 0.0834
vn -0.0613 -0.0012 -0.9981
vn 0.9986 -0.0367 0.0369
vn -0.1705 0.1875 -0.9674
vn -0.6597 0.7462 0.0891
vn -0.1537 0.0827 0.9847
vn -0.1830 0.0218 0.9829
vn 0.1485 0.0776 -0.9859
vn 0.9078 0.4074 0.0995
vn 0.9078 0.4082 0.0961
vn 0.9078 0.4077 0.0983
vn 0.8152 0.5722 0.0893
vn -0.0027 -0.0746 0.9972
vn 0.7059 -0.7063 0.0535
vn -0.1819 -0.0369 0.9826
vn -0.1824 -0.0353 0.9826
vn -0.1805 -0.0410 0.9827
vn 0.1786 -0.0414 0.9831
vn 0.1531 0.0821 0.9848
vn -0.1799 -0.0426 0.9828
vn 0.0572 0.0769 0.9954
vn 0.0545 0.0690 0.9961
vn 0.0566 0.0750 0.9956
vn 0.1431 0.0811 0.9864
vn 0.0090 0.0012 1.0000
vn 0.1651 -0.1080 0.9803
vn 0.0016 -0.0871 -0.9962
vn 0.0163 0.0104 -0.9998
vn 0.0206 0.0103 -0.9997
vn 0.0179 0.0186 -0.9997
vn 0.0136 0.0077 -0.9999
vn 0.0187 0.0196 -0.9996
vn 0.1695 0.0806 0.9822
vn 0.1523 0.1084 0.9824
vn -0.8921 0.4338 0.1267
vn -0.8921 0.4338 0.1268
vn -0.0353 0.0236 -0.9991
vn 0.0139 -0.0667 0.9977
vn -0.0132 0.0004 -0.9999
vn 0.0141 0.0076 -0.9999
vn 0.9473 0.3047 0.0991
vn 0.9758 0.1807 0.1235
vn 0.9416 0.3104 0.1305
vn 0.9385 0.3288 -0.1052
vn 0.9382 0.3292 -0.1072
vn 0.9384 0.3289 -0.1058
vn -0.1596 -0.0589 0.9854
vn -0.1601 -0.0327 0.9866
vn 0.2576 0.9656 0.0359
vn 0.4344 0.9007 -0.0080
vn -0.0546 -0.1131 -0.9921
vn 0.2918 0.9565 -0.0054
vn 0.1203 -0.1982 -0.9728
vn 0.1200 -0.1025 -0.9875
vn -0.5455 -0.8375 0.0314
vn 0.0384 0.0432 -0.9983
vn 0.0502 -0.0692 0.9963
vn 0.0126 0.0026 0.9999
vn 0.9813 0.0420 -0.1876
vn 0.0900 -0.0074 0.9959
vn 0.9078 0.4085 0.0950
vn 0.1820 0.2404 0.9535
vn -0.6023 -0.7665 0.2232
vn -0.5704 0.8136 0.1124
vn -0.5683 0.8170 0.0975
vn -0.1058 0.1759 -0.9787
vn 0.5708 0.8209 0.0141
vn 0.5589 0.8291 0.0138
vn 0.9996 -0.0276 -0.0000
vn -0.0311 0.0027 -0.9995
vn 0.9953 -0.0973 -0.0000
vn 0.1782 -0.0725 0.9813
vn 0.2653 -0.9578 0.1110
vn 0.0344 -0.1781 -0.9834
vn 0.1132 -0.0751 -0.9907
vn 0.0538 0.0671 0.9963
vn -0.1560 0.0041 -0.9878
vn -0.1601 0.0244 -0.9868
vn -0.1559 0.0161 -0.9876
vn -0.1557 0.0154 -0.9877
vn -0.1642 0.0171 -0.9863
vn -0.1555 0.0261 -0.9875
vn -0.8973 0.4315 -0.0937
vn -0.8202 0.5656 -0.0856
vn 0.0133 -0.0944 -0.9954
vn 0.4261 -0.8987 0.1042
vn 0.0404 -0.0565 -0.9976
vn 0.2389 0.9704 0.0361
vn 0.0680 0.0682 -0.9954
vn -0.5135 0.8502 0.1161
vn -0.1936 0.2384 0.9517
vn 0.6013 -0.7745 0.1965
vn -0.0327 0.0469 -0.9984
vn 0.1306 -0.0852 -0.9878
vn 0.1596 -0.0051 -0.9872
vn 0.1591 -0.0051 -0.9872
vn 0.1598 -0.0052 -0.9871
vn 0.0374 0.0812 0.9960
vn 0.0306 0.0520 0.9982
vn -0.1640 0.0580 -0.9848
vn 0.6628 -0.7423 -0.0983
vn -0.1303 0.2753 0.9525
vn 0.4462 -0.8891 -0.1018
vn 0.0161 0.0202 -0.9997
vn 0.9790 0.0802 -0.1872
vn 0.0149 0.0217 -0.9997
vn -0.9444 0.2986 0.1378
vn -0.9462 0.2972 0.1283
vn -0.9450 0.2981 0.1347
vn 0.0333 -0.0495 0.9982
vn -0.1331 0.1945 -0.9718
vn -0.6681 0.7416 -0.0611
vn 0.9381 0.3293 -0.1078
vn 0.1127 0.0852 0.9900
vn -0.9467 0.2967 0.1252
vn 0.8981 0.4268 -0.1061
vn 0.1632 -0.0727 -0.9839
vn 0.1310 -0.0610 -0.9895
vn 0.1583 -0.0050 -0.9874
vt 0.386671 0.278777
vt 0.250436 0.285339
vt 0.384568 0.231870
vt 0.513915 0.318367
vt 0.389112 0.323177
vt 0.263656 0.329937
vt 0.523263 0.272407
vt 0.521574 0.398723
vt 0.496368 0.373866
vt 0.548029 0.357599
vt 0.003704 0.374090
vt 0.012764 0.373841
vt 0.003482 0.429142
vt 0.485856 0.440142
vt 0.013340 0.324636
vt 0.003933 0.324431
vt 0.743989 0.645564
vt 0.726938 0.586358
vt 0.743660 0.589806
vt 0.754350 0.588872
vt 0.754658 0.646408
vt 0.725884 0.639090
vt 0.743197 0.696245
vt 0.695016 0.129562
vt 0.711472 0.064136
vt 0.731632 0.069962
vt 0.674784 0.182539
vt 0.644458 0.140833
vt 0.800614 0.187462
vt 0.801855 0.136091
vt 0.672368 0.102967
vt 0.598504 0.742727
vt 0.594712 0.683437
vt 0.601300 0.743592
vt 0.591418 0.743531
vt 0.584812 0.683731
vt 0.007250 0.020203
vt 0.002734 0.118096
vt 0.000164 0.019341
vt 0.009185 0.017974
vt 0.011616 0.116746
vt 0.067804 0.506071
vt 0.054522 0.466131
vt 0.070005 0.467169
vt 0.078687 0.505725
vt 0.067984 0.543620
vt 0.054131 0.506841
vt 0.079998 0.468150
vt 0.086008 0.436531
vt 0.095792 0.436558
vt 0.085612 0.534881
vt 0.096119 0.369666
vt 0.175698 0.177742
vt 0.229737 0.078293
vt 0.246311 0.171766
vt 0.184941 0.243010
vt 0.087068 0.369604
vt 0.168665 0.080297
vt 0.155256 0.228030
vt 0.140192 0.276625
vt 0.140339 0.227966
vt 0.156042 0.179506
vt 0.165653 0.179501
vt 0.165221 0.227427
vt 0.156813 0.275811
vt 0.671079 0.623082
vt 0.655062 0.572743
vt 0.666189 0.571535
vt 0.660687 0.624301
vt 0.880506 0.458379
vt 0.832320 0.480865
vt 0.794215 0.407446
vt 0.894896 0.409760
vt 0.669914 0.682415
vt 0.941091 0.443175
vt 0.056420 0.373731
vt 0.057350 0.324591
vt 0.072820 0.326024
vt 0.071163 0.375394
vt 0.028776 0.373524
vt 0.028927 0.324310
vt 0.055494 0.430485
vt 0.243038 0.240330
vt 0.195546 0.289111
vt 0.241761 0.236902
vt 0.303388 0.448873
vt 0.262292 0.411171
vt 0.285958 0.383490
vt 0.087801 0.122809
vt 0.096986 0.085867
vt 0.097277 0.122854
vt 0.086914 0.179230
vt 0.324155 0.439990
vt 0.087823 0.085541
vt 0.332576 0.471072
vt 0.073946 0.115691
vt 0.085190 0.146321
vt 0.073388 0.182394
vt 0.071178 0.016208
vt 0.082906 0.017030
vt 0.085117 0.115516
vt 0.058423 0.180984
vt 0.056887 0.115620
vt 0.391729 0.375253
vt 0.463766 0.434318
vt 0.755431 0.530209
vt 0.168336 0.534364
vt 0.157082 0.535584
vt 0.167142 0.436953
vt 0.584812 0.435415
vt 0.589378 0.338144
vt 0.645794 0.435767
vt 0.744184 0.529063
vt 0.166564 0.370294
vt 0.167145 0.407605
vt 0.155470 0.370387
vt 0.598194 0.272330
vt 0.606867 0.225800
vt 0.654409 0.273481
vt 0.593183 0.309193
vt 0.155429 0.322294
vt 0.165850 0.322373
vt 0.640510 0.575401
vt 0.642939 0.618971
vt 0.638973 0.510163
vt 0.652573 0.521674
vt 0.611453 0.575464
vt 0.610934 0.510981
vt 0.012537 0.430461
vt 0.026985 0.429727
vt 0.691657 0.405007
vt 0.659088 0.341230
vt 0.795562 0.343855
vt 0.704320 0.453373
vt 0.141598 0.000373
vt 0.156424 0.010756
vt 0.141123 0.046239
vt 0.052372 0.552955
vt 0.112476 0.045312
vt 0.113637 0.000164
vt 0.024358 0.552312
vt 0.030226 0.181525
vt 0.058681 0.228537
vt 0.030267 0.228564
vt 0.014334 0.183630
vt 0.028683 0.116256
vt 0.907906 0.135196
vt 0.932577 0.109468
vt 0.959368 0.149933
vt 0.874149 0.075260
vt 0.894661 0.069483
vt 0.926101 0.190333
vt 0.681922 0.588626
vt 0.682722 0.528376
vt 0.686247 0.527437
vt 0.671485 0.587275
vt 0.680641 0.646115
vt 0.698730 0.585790
vt 0.740835 0.040284
vt 0.165168 0.123769
vt 0.155669 0.123422
vt 0.165630 0.085931
vt 0.596009 0.624694
vt 0.613490 0.685770
vt 0.595077 0.596536
vt 0.613061 0.618092
vt 0.613490 0.652615
vt 0.586730 0.624293
vt 0.029948 0.275469
vt 0.074843 0.230197
vt 0.057897 0.275596
vt 0.687554 0.749861
vt 0.698603 0.694971
vt 0.702109 0.760237
vt 0.685619 0.748612
vt 0.682578 0.700015
vt 0.597173 0.522379
vt 0.593450 0.567281
vt 0.595208 0.523616
vt 0.096394 0.178500
vt 0.232579 0.372810
vt 0.087588 0.228569
vt 0.659392 0.681425
vt 0.659397 0.739765
vt 0.641557 0.683702
vt 0.671079 0.738579
vt 0.398025 0.510129
vt 0.364751 0.491863
vt 0.394215 0.432279
vt 0.088911 0.008726
vt 0.097083 0.009995
vt 0.089554 0.046636
vt 0.429084 0.488783
vt 0.000164 0.542275
vt 0.001442 0.504708
vt 0.008399 0.541474
vt 0.139517 0.371686
vt 0.110725 0.437493
vt 0.111975 0.371518
vt 0.112068 0.324430
vt 0.140457 0.324361
vt 0.138740 0.437602
vt 0.155800 0.436950
vt 0.112515 0.276926
vt 0.112291 0.228015
vt 0.584951 0.573236
vt 0.588184 0.523213
vt 0.414797 0.028529
vt 0.378829 0.103923
vt 0.373413 0.000164
vt 0.463465 0.050896
vt 0.026463 0.466770
vt 0.211357 0.330842
vt 0.112025 0.086495
vt 0.098093 0.046906
vt 0.999836 0.319299
vt 0.940731 0.281996
vt 0.996820 0.283146
vt 0.999822 0.349421
vt 0.931531 0.350663
vt 0.084159 0.183050
vt 0.566230 0.314731
vt 0.700653 0.510163
vt 0.729897 0.510819
vt 0.697223 0.634227
vt 0.140292 0.086600
vt 0.140384 0.122229
vt 0.111714 0.122444
vt 0.990885 0.237395
vt 0.797290 0.278856
vt 0.936912 0.235815
vt 0.014137 0.230037
vt 0.013562 0.277287
vt 0.678743 0.749420
vt 0.674348 0.699252
vt 0.334591 0.033428
vt 0.798790 0.232483
vt 0.660777 0.227970
vt 0.622900 0.183224
vt 0.617160 0.760541
vt 0.645429 0.758085
vt 0.837415 0.021916
vt 0.803313 0.077545
vt 0.805731 0.000164
vt 0.079298 0.543866
vt 0.867541 0.043997
vt 0.111137 0.552753
vt 0.094677 0.537123
vt 0.140859 0.552495
vt 0.140286 0.178601
vt 0.085222 0.230298
vt 0.074446 0.277389
vt 0.978464 0.192936
vt 0.085284 0.277792
vt 0.729997 0.759109
vt 0.727783 0.693757
vt 0.054139 0.000164
vt 0.025356 0.506642
vt 0.009898 0.504394
vt 0.096089 0.322044
vt 0.641844 0.651967
vt 0.080504 0.375379
vt 0.069086 0.431058
vt 0.083087 0.325885
vt 0.078548 0.430818
vt 0.155693 0.086044
vt 0.772746 0.020037
vt 0.166244 0.048339
vt 0.004729 0.230632
vt 0.004669 0.183862
vt 0.092946 0.533871
vt 0.675335 0.527969
vt 0.010420 0.466480
vt 0.479258 0.099175
vt 0.516288 0.158701
vt 0.381191 0.166682
vt 0.523496 0.065062
vt 0.743485 0.747577
vt 0.155433 0.048286
vt 0.167719 0.010347
vt 0.112185 0.179240
vt 0.525592 0.225588
vt 0.584483 0.158471
vt 0.287486 0.058396
vt 0.671408 0.646624
vt 0.025194 0.000893
vt 0.458844 0.465996
vt 0.001451 0.466865
vt 0.097385 0.228065
vt 0.085612 0.276129
vt 0.999836 0.447338
vt 0.095827 0.275851
vt 0.004177 0.277249
vt 0.584483 0.060322
vt 0.086407 0.321534
vt 0.166939 0.275892
vt 0.277612 0.110068
vt 0.790894 0.509834
vt 0.664692 0.522971
vt 0.583791 0.223848
vt 0.577722 0.270117
vt 0.750811 0.478667
vt 0.755431 0.745231
vt 0.754887 0.696312
s 1
usemtl Material.003
f 1/1/1 35/2/2 159/3/3
f 1/1/4 38/4/5 83/5/6
f 1/1/1 83/5/7 162/6/8
f 1/1/4 136/7/9 38/4/5
f 1/1/10 159/3/10 136/7/10
f 1/1/1 162/6/8 35/2/2
f 2/8/11 14/9/11 153/10/11
f 2/11/12 18/12/13 85/13/14
f 2/8/15 85/14/15 14/9/15
f 2/11/16 97/15/16 18/12/16
f 2/11/17 153/16/17 97/15/17
f 3/17/18 39/18/19 181/19/20
f 3/17/21 70/20/21 213/21/21
f 3/17/22 98/22/23 39/18/24
f 3/17/25 181/19/25 70/20/25
f 3/17/26 213/21/26 217/23/26
f 3/17/22 217/23/27 98/22/23
f 4/24/28 24/25/28 99/26/28
f 4/24/29 44/27/30 190/28/31
f 4/24/29 93/29/32 44/27/30
f 4/24/33 99/26/33 172/30/33
f 4/24/34 172/30/34 93/29/34
f 4/24/35 182/31/35 24/25/35
f 4/24/36 190/28/36 182/31/36
f 5/32/37 76/33/37 148/34/37
f 5/32/38 100/35/38 187/36/38
f 5/37/39 132/38/40 100/39/41
f 5/37/42 148/40/42 171/41/42
f 5/37/39 171/41/43 132/38/40
f 5/32/44 187/36/44 76/33/44
f 6/42/45 34/43/46 149/44/47
f 6/42/48 46/45/48 77/46/48
f 6/42/45 77/46/49 101/47/50
f 6/42/45 101/47/50 34/43/46
f 6/42/51 149/44/51 204/48/51
f 6/42/52 204/48/52 46/45/52
f 7/49/53 66/50/53 173/51/53
f 7/49/54 78/52/54 66/50/54
f 7/53/55 118/54/55 130/55/55
f 7/53/56 130/55/56 150/56/56
f 7/49/57 150/57/57 78/52/57
f 7/53/58 173/58/58 118/54/58
f 8/59/59 32/60/60 48/61/61
f 8/59/59 48/61/61 186/62/62
f 8/59/63 182/63/63 190/64/63
f 8/59/64 186/62/64 182/63/64
f 8/59/65 190/64/65 206/65/65
f 8/59/66 206/65/67 32/60/68
f 9/66/69 57/67/69 112/68/69
f 9/66/70 88/69/70 57/67/70
f 9/70/71 112/71/71 144/72/71
f 9/70/72 144/72/72 183/73/72
f 9/66/73 167/74/73 88/69/73
f 9/70/74 183/73/74 167/75/74
f 10/76/75 105/77/76 160/78/77
f 10/76/78 160/78/78 176/79/78
f 10/76/79 168/80/79 200/81/79
f 10/76/80 176/79/80 208/82/80
f 10/76/81 200/81/81 105/77/81
f 10/76/82 208/82/83 168/80/84
f 11/83/85 35/2/86 174/84/87
f 11/83/85 159/3/88 35/2/86
f 11/83/85 174/84/87 150/56/89
f 11/83/90 209/85/91 159/3/92
f 12/86/93 28/87/93 75/88/93
f 12/89/94 36/90/94 71/91/94
f 12/89/95 71/91/95 28/92/95
f 12/86/96 75/88/96 194/93/96
f 12/89/97 155/94/97 36/90/97
f 12/86/98 194/93/99 155/95/100
f 13/96/101 37/97/101 156/98/101
f 13/96/102 53/99/102 195/100/102
f 13/96/103 92/101/104 37/97/105
f 13/96/106 156/98/106 179/102/106
f 13/96/107 179/102/108 211/103/109
f 13/96/103 195/100/110 92/101/104
f 13/96/107 211/103/109 53/99/111
f 14/9/112 38/4/113 153/10/114
f 14/9/112 52/104/115 83/5/116
f 14/9/112 83/5/116 38/4/113
f 14/9/117 85/14/117 157/105/117
f 14/9/118 157/105/118 52/104/118
f 15/106/119 70/20/119 181/19/119
f 15/107/120 110/108/120 165/109/120
f 15/110/121 165/111/121 70/112/121
f 15/106/122 181/19/122 110/113/122
f 16/114/123 55/115/123 197/116/123
f 16/117/124 103/118/125 114/119/126
f 16/117/124 114/119/126 55/120/127
f 16/114/128 151/121/128 103/122/128
f 16/114/129 197/116/129 151/121/129
f 17/123/130 57/67/130 199/124/130
f 17/123/131 74/125/132 185/126/133
f 17/123/134 152/127/134 175/128/134
f 17/123/135 175/128/135 74/125/135
f 17/123/131 185/126/133 57/67/136
f 17/123/137 199/124/137 152/127/137
f 18/12/13 69/129/138 85/13/14
f 18/12/139 89/130/140 69/129/141
f 18/12/142 97/15/143 200/81/144
f 18/12/142 168/80/145 89/130/146
f 18/12/142 200/81/144 168/80/145
f 19/131/147 70/112/147 86/132/147
f 19/131/148 86/132/148 96/133/148
f 19/131/149 96/133/149 144/72/149
f 19/131/150 144/72/150 213/134/150
f 19/131/151 213/134/151 70/112/151
f 20/135/152 77/136/152 202/137/152
f 20/138/153 101/47/153 77/46/153
f 20/135/154 107/139/154 178/140/154
f 20/138/155 178/141/156 101/47/157
f 20/135/158 202/137/159 107/139/160
f 21/142/161 26/143/162 73/144/163
f 21/142/164 60/145/165 171/41/166
f 21/142/164 73/144/167 60/145/165
f 21/142/168 116/146/169 179/102/170
f 21/142/171 171/41/172 116/146/173
f 21/142/161 179/102/174 26/143/162
f 22/147/175 58/148/175 121/149/175
f 22/147/176 93/29/176 172/30/176
f 22/147/177 109/150/177 180/151/177
f 22/147/178 121/149/179 133/152/180
f 22/147/181 133/152/181 93/29/181
f 22/147/182 172/30/182 109/150/182
f 22/147/183 180/151/183 58/148/183
f 23/153/184 62/154/184 205/155/184
f 23/153/185 118/156/185 62/154/185
f 23/153/186 122/157/186 118/156/186
f 23/153/187 134/158/187 122/157/187
f 23/153/188 205/155/188 134/158/188
f 24/25/189 59/159/189 99/26/189
f 24/160/190 91/161/190 59/162/190
f 24/160/191 182/63/191 186/62/191
f 24/160/192 186/62/192 91/161/192
f 25/163/193 45/164/193 76/33/193
f 25/163/194 49/165/194 104/166/194
f 25/163/195 76/33/195 187/36/195
f 25/163/196 104/166/196 219/167/196
f 25/163/197 187/36/197 207/168/197
f 25/163/198 207/168/198 49/165/198
f 25/163/199 219/167/199 45/164/199
f 26/143/200 42/169/200 73/144/200
f 26/143/201 68/170/202 137/171/203
f 26/143/200 137/171/200 42/169/200
f 26/143/201 156/98/204 68/170/202
f 26/143/205 179/102/205 156/98/205
f 27/172/206 51/173/206 175/174/206
f 27/172/207 64/175/207 154/176/207
f 27/177/208 152/127/209 191/178/210
f 27/172/211 154/176/211 51/173/211
f 27/177/208 175/128/212 152/127/209
f 27/177/213 191/178/213 64/179/213
f 28/92/214 71/91/214 166/180/214
f 28/87/215 87/181/215 75/88/215
f 28/92/216 166/180/217 87/182/218
f 29/183/219 53/184/220 140/185/221
f 29/183/222 88/69/222 167/74/222
f 29/183/219 140/185/221 88/69/223
f 29/183/224 167/74/224 195/186/224
f 29/183/225 195/186/225 53/184/225
f 30/187/226 67/188/227 147/189/228
f 30/190/229 125/191/229 67/192/229
f 30/187/230 147/189/231 196/193/232
f 30/194/233 196/195/233 125/196/233
f 31/197/234 47/198/234 189/199/234
f 31/197/235 56/200/236 63/201/237
f 31/197/238 63/201/238 197/116/238
f 31/197/239 126/202/239 47/198/239
f 31/197/240 142/203/241 126/202/242
f 31/197/235 189/199/243 56/200/236
f 31/197/240 197/116/244 142/203/241
f 32/60/245 56/200/246 127/204/247
f 32/60/245 63/201/248 56/200/246
f 32/60/249 95/205/250 48/61/251
f 32/60/249 127/204/252 95/205/250
f 32/60/68 151/121/253 63/201/254
f 32/60/68 206/65/67 151/121/253
f 33/206/255 43/207/255 191/178/255
f 33/206/256 49/165/256 207/168/256
f 33/208/257 106/209/257 43/210/257
f 33/206/258 191/178/258 49/165/258
f 33/208/259 207/211/259 106/209/259
f 34/43/260 89/130/261 208/82/262
f 34/43/263 101/47/263 129/212/263
f 34/43/260 129/212/264 89/130/261
f 34/43/46 208/82/265 149/44/47
f 35/2/266 123/213/266 174/84/266
f 35/2/2 162/6/8 123/213/267
f 36/90/268 40/214/268 71/91/268
f 36/90/269 155/94/270 210/215/271
f 36/90/272 210/215/272 40/214/272
f 37/216/273 41/217/273 108/218/273
f 37/216/274 92/219/274 215/220/274
f 37/97/275 108/221/275 156/98/275
f 37/216/276 215/220/276 41/217/276
f 38/4/277 136/7/278 216/222/279
f 38/4/280 216/222/280 153/10/280
f 39/18/281 94/223/281 158/224/281
f 39/18/282 98/22/282 193/225/282
f 39/18/19 110/113/283 181/19/20
f 39/18/281 134/158/281 94/223/281
f 39/18/284 158/224/284 110/113/284
f 39/18/285 193/225/285 134/158/285
f 40/214/286 107/139/286 135/226/286
f 40/214/287 119/227/287 214/228/287
f 40/214/288 135/226/288 119/227/288
f 40/214/289 210/215/290 107/139/291
f 40/214/292 214/228/293 71/91/294
f 41/217/295 50/229/296 108/218/297
f 41/217/298 90/230/298 117/231/298
f 41/217/295 117/231/299 50/229/296
f 41/217/300 215/220/300 90/230/300
f 42/169/301 105/77/301 200/81/301
f 42/169/301 137/171/301 105/77/301
f 42/169/302 184/232/303 73/144/304
f 42/169/302 200/81/305 212/233/306
f 42/169/302 212/233/306 184/232/303
f 43/207/307 64/179/307 191/178/307
f 43/234/308 82/235/308 64/175/308
f 43/210/309 106/209/309 82/236/309
f 44/27/310 93/29/310 169/237/310
f 44/27/311 169/237/311 218/238/311
f 44/27/30 198/239/312 190/28/31
f 44/27/313 218/238/314 198/239/315
f 45/164/316 84/240/316 148/34/316
f 45/164/317 140/185/318 163/241/317
f 45/164/319 148/34/319 76/33/319
f 45/164/317 163/241/317 84/240/317
f 45/164/320 219/167/320 140/185/320
f 46/242/321 61/243/321 188/244/321
f 46/242/322 109/150/322 61/243/322
f 46/45/323 188/245/323 77/46/323
f 46/242/324 204/246/325 109/150/326
f 47/198/327 66/50/328 189/199/329
f 47/198/330 94/247/330 205/248/330
f 47/198/331 126/202/331 158/249/331
f 47/198/332 158/249/332 94/247/332
f 47/198/327 205/248/333 66/50/328
f 48/61/334 79/250/335 186/62/336
f 48/61/337 95/205/338 79/250/339
f 49/165/340 191/178/340 104/166/340
f 50/251/341 68/170/341 108/221/341
f 50/251/342 81/252/343 68/170/344
f 50/229/345 117/231/346 192/253/347
f 50/251/342 192/254/348 81/252/343
f 51/173/349 74/255/349 175/174/349
f 51/173/350 98/22/350 146/256/350
f 51/173/351 146/256/351 74/255/351
f 51/173/352 154/176/352 193/225/352
f 51/173/353 193/225/353 98/22/353
f 52/104/354 75/88/355 83/5/356
f 52/104/357 147/189/358 194/93/359
f 52/104/118 157/105/118 147/189/360
f 52/104/357 194/93/359 75/88/361
f 53/184/220 163/241/362 140/185/221
f 53/99/111 211/103/109 163/257/363
f 54/258/364 101/47/157 178/141/156
f 54/258/365 125/196/365 141/259/365
f 54/258/366 129/212/366 101/47/366
f 54/258/367 141/259/368 129/212/369
f 54/258/370 178/141/370 125/196/370
f 55/120/371 86/132/371 165/111/371
f 55/120/372 114/119/372 86/132/372
f 55/115/373 165/109/373 197/116/373
f 56/200/374 78/52/375 102/260/374
f 56/200/374 102/260/374 127/204/376
f 56/200/377 189/199/378 78/52/379
f 57/67/380 88/69/380 124/261/380
f 57/67/381 124/261/381 199/124/381
f 57/67/382 185/126/382 112/68/382
f 58/262/383 65/263/383 176/79/383
f 58/262/384 176/79/384 121/264/384
f 58/262/385 180/265/385 65/263/385
f 59/162/386 91/161/386 131/266/386
f 59/159/387 115/267/387 99/26/387
f 59/162/388 131/266/389 115/268/390
f 60/145/391 73/144/391 184/232/391
f 60/145/392 132/38/392 171/41/392
f 60/145/393 145/269/393 203/270/393
f 60/145/394 184/232/394 145/269/394
f 60/145/395 203/270/395 132/38/395
f 61/243/396 99/26/396 115/267/396
f 61/243/397 109/150/397 172/30/397
f 61/243/398 115/267/398 188/244/398
f 61/243/399 172/30/399 99/26/399
f 62/271/400 66/50/400 205/248/400
f 62/154/401 118/156/401 173/272/401
f 62/271/402 173/51/402 66/50/402
f 63/201/254 151/121/253 197/116/403
f 64/175/404 82/235/404 154/176/404
f 65/263/405 149/44/47 208/82/265
f 65/263/406 180/265/406 149/44/406
f 65/263/407 208/82/407 176/79/407
f 66/50/408 78/52/379 189/199/378
f 67/192/409 125/191/409 210/215/409
f 67/188/227 155/95/100 194/93/99
f 67/188/227 194/93/99 147/189/228
f 67/192/410 210/215/271 155/94/270
f 68/170/411 81/252/412 137/171/413
f 68/170/414 156/98/414 108/221/414
f 69/129/141 89/130/140 129/212/415
f 69/129/141 129/212/415 164/273/416
f 69/129/417 164/273/417 85/13/417
f 70/112/418 165/111/418 86/132/418
f 71/91/294 214/228/293 166/180/419
f 72/274/420 80/275/421 201/276/422
f 72/274/423 106/209/423 207/211/423
f 72/274/424 187/277/424 80/275/424
f 72/274/420 201/276/422 106/209/425
f 72/274/426 207/211/426 187/277/426
f 74/255/427 146/256/427 185/278/427
f 75/88/355 87/181/428 162/6/429
f 75/88/355 162/6/429 83/5/356
f 77/136/430 170/279/431 202/137/432
f 77/136/433 188/280/433 170/279/433
f 78/52/434 150/57/434 102/260/434
f 79/250/335 91/161/435 186/62/336
f 79/250/339 95/205/338 143/281/436
f 79/250/335 119/227/437 91/161/435
f 79/250/438 143/281/438 214/228/438
f 79/250/439 214/228/439 119/227/439
f 80/275/440 120/282/441 159/3/442
f 80/275/440 132/283/443 120/282/441
f 80/275/444 159/3/444 201/276/444
f 80/275/445 187/277/445 132/283/445
f 81/252/412 105/77/446 137/171/413
f 81/252/447 160/78/77 105/77/76
f 81/252/448 192/254/448 160/78/448
f 82/236/449 106/209/449 161/284/449
f 82/235/450 161/285/450 154/176/450
f 84/286/451 116/146/451 148/40/451
f 84/286/452 163/257/452 116/146/452
f 85/14/453 113/287/453 157/105/453
f 85/13/454 164/273/454 113/288/454
f 86/132/455 90/230/455 96/133/455
f 86/132/456 114/119/456 90/230/456
f 87/181/428 123/213/457 162/6/429
f 87/182/458 139/289/459 123/290/460
f 87/182/218 166/180/217 139/289/461
f 88/69/462 140/185/462 124/261/462
f 89/130/463 168/80/84 208/82/83
f 90/230/464 114/119/465 218/238/466
f 90/230/467 169/237/467 117/231/467
f 90/230/468 215/220/468 96/133/468
f 90/230/464 218/238/466 169/237/469
f 91/161/470 119/227/471 131/266/472
f 92/219/473 167/75/473 215/220/473
f 92/219/474 195/291/474 167/75/474
f 93/29/475 133/152/475 169/237/475
f 94/223/476 134/158/476 205/155/476
f 95/205/477 111/292/478 139/289/479
f 95/205/477 127/204/480 111/292/478
f 95/205/477 139/289/479 143/281/481
f 96/133/482 183/73/482 144/72/482
f 96/133/483 215/220/483 183/73/483
f 97/15/484 153/16/484 216/293/485
f 97/15/143 212/233/486 200/81/144
f 97/15/484 216/293/485 212/233/485
f 98/22/487 217/23/487 146/256/487
f 100/294/488 132/283/488 187/277/488
f 102/260/489 111/292/478 127/204/480
f 102/260/490 123/290/490 111/292/490
f 102/260/491 150/57/491 174/295/491
f 102/260/492 174/295/492 123/290/492
f 103/122/493 151/121/494 198/296/495
f 103/118/496 198/239/315 218/238/314
f 103/118/497 218/238/497 114/119/497
f 104/166/498 124/261/498 219/167/498
f 104/166/499 152/127/499 199/124/499
f 104/166/500 191/178/500 152/127/500
f 104/166/501 199/124/501 124/261/501
f 106/209/502 177/297/502 161/284/502
f 106/209/503 201/276/503 177/297/503
f 107/139/160 202/137/159 135/226/504
f 107/139/291 210/215/290 178/140/505
f 109/150/326 204/246/325 180/151/506
f 110/108/507 126/202/242 142/203/241
f 110/108/508 142/203/508 165/109/508
f 110/108/509 158/249/509 126/202/509
f 111/292/510 123/290/460 139/289/459
f 112/71/511 128/298/511 144/72/511
f 112/68/512 185/126/512 128/299/512
f 113/288/513 141/259/513 196/195/513
f 113/288/514 164/273/514 141/259/514
f 113/287/515 196/193/515 157/105/515
f 115/268/390 131/266/389 170/279/516
f 115/268/517 170/279/517 188/280/517
f 116/146/518 163/257/518 211/103/518
f 116/146/173 171/41/172 148/40/519
f 116/146/169 211/103/520 179/102/170
f 117/231/346 133/152/180 192/253/347
f 117/231/521 169/237/521 133/152/521
f 118/156/522 122/157/522 161/285/522
f 118/54/523 161/284/523 177/297/523
f 118/54/524 177/297/524 130/55/524
f 119/227/471 135/226/525 131/266/472
f 120/282/526 132/283/526 203/300/526
f 120/282/527 136/7/528 159/3/529
f 120/282/527 145/301/530 136/7/528
f 120/282/527 203/300/531 145/301/530
f 121/264/532 160/78/532 192/254/532
f 121/264/533 176/79/533 160/78/533
f 121/149/179 192/253/347 133/152/180
f 122/157/534 134/158/534 193/225/534
f 122/157/535 154/176/535 161/285/535
f 122/157/536 193/225/536 154/176/536
f 124/261/537 140/185/537 219/167/537
f 125/191/538 178/140/538 210/215/538
f 125/196/539 196/195/539 141/259/539
f 128/298/540 138/302/540 144/72/540
f 128/303/541 185/278/541 138/304/541
f 129/212/369 141/259/368 164/273/542
f 130/55/543 177/297/543 201/276/543
f 130/55/544 209/85/545 150/56/546
f 131/266/547 135/226/547 170/279/547
f 135/226/548 202/137/432 170/279/431
f 136/7/278 145/301/549 216/222/279
f 138/304/550 185/278/550 217/23/550
f 138/302/551 213/134/551 144/72/551
f 138/304/552 217/23/552 213/21/552
f 139/289/479 166/180/553 143/281/481
f 142/203/554 197/116/554 165/109/554
f 143/281/481 166/180/553 214/228/555
f 145/269/556 184/232/557 216/293/558
f 146/256/559 217/23/559 185/278/559
f 147/189/231 157/105/560 196/193/232
f 149/44/561 180/265/561 204/48/561
f 151/121/494 206/65/562 198/296/495
f 167/75/563 183/73/563 215/220/563
f 184/232/557 212/233/564 216/293/558
f 190/64/565 198/296/565 206/65/565
f 11/83/90 150/56/566 209/85/91
f 130/55/567 201/276/567 159/3/567
f 130/55/544 159/3/568 209/85/545
